0
SECTION
2
HEADER
9
$INSUNITS
70
4
9
$ACADVER
1
AC1014
9
$HANDSEED
5
FFFF
0
ENDSEC
0
SECTION
2
TABLES
0
TABLE
2
VPORT
5
8
100
AcDbSymbolTable
0
ENDTAB
0
TABLE
2
LTYPE
5
5
100
AcDbSymbolTable
0
LTYPE
5
14
100
AcDbSymbolTableRecord
100
AcDbLinetypeTableRecord
2
BYBLOCK
70
0
0
LTYPE
5
15
100
AcDbSymbolTableRecord
100
AcDbLinetypeTableRecord
2
BYLAYER
70
0
0
ENDTAB
0
TABLE
2
LAYER
5
2
100
AcDbSymbolTable
70
2
0
LAYER
5
50
100
AcDbSymbolTableRecord
100
AcDbLayerTableRecord
2
0
70
0
6
CONTINUOUS
0
ENDTAB
0
TABLE
2
STYLE
5
3
100
AcDbSymbolTable
70
1
0
STYLE
5
11
100
AcDbSymbolTableRecord
100
AcDbTextStyleTableRecord
2
STANDARD
70
0
0
ENDTAB
0
TABLE
2
VIEW
5
6
100
AcDbSymbolTable
70
0
0
ENDTAB
0
TABLE
2
UCS
5
7
100
AcDbSymbolTable
70
0
0
ENDTAB
0
TABLE
2
APPID
5
9
100
AcDbSymbolTable
70
2
0
APPID
5
12
100
AcDbSymbolTableRecord
100
AcDbRegAppTableRecord
2
ACAD
70
0
0
ENDTAB
0
TABLE
2
DIMSTYLE
5
A
100
AcDbSymbolTable
70
1
0
ENDTAB
0
TABLE
2
BLOCK_RECORD
5
1
100
AcDbSymbolTable
70
1
0
BLOCK_RECORD
5
1F
100
AcDbSymbolTableRecord
100
AcDbBlockTableRecord
2
*MODEL_SPACE
0
BLOCK_RECORD
5
1B
100
AcDbSymbolTableRecord
100
AcDbBlockTableRecord
2
*PAPER_SPACE
0
ENDTAB
0
ENDSEC
0
SECTION
2
BLOCKS
0
BLOCK
5
20
100
AcDbEntity
100
AcDbBlockBegin
2
*MODEL_SPACE
0
ENDBLK
5
21
100
AcDbEntity
100
AcDbBlockEnd
0
BLOCK
5
1C
100
AcDbEntity
100
AcDbBlockBegin
2
*PAPER_SPACE
0
ENDBLK
5
1D
100
AcDbEntity
100
AcDbBlockEnd
0
ENDSEC
0
SECTION
2
ENTITIES
0
CIRCLE
5
100
100
AcDbEntity
8
0
100
AcDbCircle
10
10.000000000000004
20
-9.9999999999999964
30
0
40
3.0000000000000004
210
0
220
0
230
1
0
CIRCLE
5
101
100
AcDbEntity
8
0
100
AcDbCircle
10
10.000000000000002
20
10.000000000000002
30
0
40
3.0000000000000004
210
0
220
0
230
1
0
CIRCLE
5
102
100
AcDbEntity
8
0
100
AcDbCircle
10
-9.9999999999999964
20
-10.000000000000004
30
0
40
3.0000000000000004
210
0
220
0
230
1
0
CIRCLE
5
103
100
AcDbEntity
8
0
100
AcDbCircle
10
-10.000000000000002
20
9.9999999999999982
30
0
40
3.0000000000000004
210
0
220
0
230
1
0
LWPOLYLINE
5
104
100
AcDbEntity
8
0
100
AcDbPolyline
90
42
70
1
43
0.0
10
-17.499999999999993
20
36.791836214113466
42
-0.41421356237309548
10
-14.499999999999989
20
39.791836214113459
10
14.499999999999989
20
39.791836214113474
42
-0.41421356237309503
10
17.499999999999993
20
36.791836214113481
10
17.499999999999996
20
19.04967103839267
42
-0.51067993524098676
10
16.1875
20
18.099753278794498
42
1.3816985594155107
10
16.1875
20
12.400246721205495
42
-0.51067993524098865
10
17.499999999999996
20
11.450328961607328
10
17.499999999999996
20
10.561552234558739
42
-0.11953502484459609
10
17.166666865348816
20
9.1871840781862506
42
0.11953502484459513
10
17.00000029802322
20
8.5000000000000036
10
17.00000029802322
20
-8.4999999999999982
42
0.11953502484459531
10
17.166666865348816
20
-9.187184078186247
42
-0.11953502484459677
10
17.499999999999996
20
-10.561552234558738
10
17.499999999999993
20
-11.450328961607351
42
-0.51067993524099298
10
16.187499999999996
20
-12.400246721205512
42
1.3816985594155151
10
16.187499999999996
20
-18.099753278794516
42
-0.5106799352409912
10
17.499999999999996
20
-19.049671038392681
10
17.499999999999996
20
-32.075354939231659
42
-0.41421356237309659
10
14.499999999999995
20
-35.075354939231659
10
14.250000000000004
20
-35.075354939231659
42
0.27230930495234223
10
11.475240146008549
20
-36.707573659931171
42
-0.27230930495234212
10
8.8531266805240971
20
-38.25
10
-8.8531266805240989
20
-38.25
42
-0.27230930495234196
10
-11.475240146008549
20
-36.707573659931171
42
0.27230930495234223
10
-14.250000000000005
20
-35.075354939231659
10
-14.499999999999995
20
-35.075354939231659
42
-0.41421356237309659
10
-17.499999999999996
20
-32.075354939231659
10
-17.499999999999996
20
-19.049671038392681
42
-0.51067993524099209
10
-16.187499999999996
20
-18.099753278794516
42
1.3816985594155171
10
-16.187499999999996
20
-12.400246721205512
42
-0.51067993524099209
10
-17.499999999999996
20
-11.450328961607351
10
-17.499999999999996
20
-10.561552234558736
42
-0.11953502484459655
10
-17.166666865348816
20
-9.1871840781862453
42
0.11953502484459495
10
-17.00000029802322
20
-8.5
10
-17.00000029802322
20
8.5000000000000071
42
0.11953502484459384
10
-17.166666865348816
20
9.1871840781862506
42
-0.11953502484459631
10
-17.499999999999996
20
10.561552234558743
10
-17.499999999999996
20
11.450328961607322
42
-0.51067993524098831
10
-16.187500000000004
20
12.400246721205491
42
1.3816985594155091
10
-16.1875
20
18.099753278794498
42
-0.51067993524098598
10
-17.499999999999996
20
19.04967103839267
0
ENDSEC
0
SECTION
2
OBJECTS
0
DICTIONARY
5
C
100
AcDbDictionary
3
ACAD_GROUP
350
D
3
ACAD_MLINESTYLE
350
17
0
DICTIONARY
5
D
100
AcDbDictionary
0
DICTIONARY
5
1A
330
C
100
AcDbDictionary
0
DICTIONARY
5
17
100
AcDbDictionary
0
ENDSEC
0
EOF
