0
SECTION
2
HEADER
9
$INSUNITS
70
4
9
$ACADVER
1
AC1014
9
$HANDSEED
5
FFFF
0
ENDSEC
0
SECTION
2
TABLES
0
TABLE
2
VPORT
5
8
100
AcDbSymbolTable
0
ENDTAB
0
TABLE
2
LTYPE
5
5
100
AcDbSymbolTable
0
LTYPE
5
14
100
AcDbSymbolTableRecord
100
AcDbLinetypeTableRecord
2
BYBLOCK
70
0
0
LTYPE
5
15
100
AcDbSymbolTableRecord
100
AcDbLinetypeTableRecord
2
BYLAYER
70
0
0
ENDTAB
0
TABLE
2
LAYER
5
2
100
AcDbSymbolTable
70
2
0
LAYER
5
50
100
AcDbSymbolTableRecord
100
AcDbLayerTableRecord
2
0
70
0
6
CONTINUOUS
0
ENDTAB
0
TABLE
2
STYLE
5
3
100
AcDbSymbolTable
70
1
0
STYLE
5
11
100
AcDbSymbolTableRecord
100
AcDbTextStyleTableRecord
2
STANDARD
70
0
0
ENDTAB
0
TABLE
2
VIEW
5
6
100
AcDbSymbolTable
70
0
0
ENDTAB
0
TABLE
2
UCS
5
7
100
AcDbSymbolTable
70
0
0
ENDTAB
0
TABLE
2
APPID
5
9
100
AcDbSymbolTable
70
2
0
APPID
5
12
100
AcDbSymbolTableRecord
100
AcDbRegAppTableRecord
2
ACAD
70
0
0
ENDTAB
0
TABLE
2
DIMSTYLE
5
A
100
AcDbSymbolTable
70
1
0
ENDTAB
0
TABLE
2
BLOCK_RECORD
5
1
100
AcDbSymbolTable
70
1
0
BLOCK_RECORD
5
1F
100
AcDbSymbolTableRecord
100
AcDbBlockTableRecord
2
*MODEL_SPACE
0
BLOCK_RECORD
5
1B
100
AcDbSymbolTableRecord
100
AcDbBlockTableRecord
2
*PAPER_SPACE
0
ENDTAB
0
ENDSEC
0
SECTION
2
BLOCKS
0
BLOCK
5
20
100
AcDbEntity
100
AcDbBlockBegin
2
*MODEL_SPACE
0
ENDBLK
5
21
100
AcDbEntity
100
AcDbBlockEnd
0
BLOCK
5
1C
100
AcDbEntity
100
AcDbBlockBegin
2
*PAPER_SPACE
0
ENDBLK
5
1D
100
AcDbEntity
100
AcDbBlockEnd
0
ENDSEC
0
SECTION
2
ENTITIES
0
CIRCLE
5
100
100
AcDbEntity
8
0
100
AcDbCircle
10
-69.999999999999972
20
89.999999999999986
30
0
40
4.5000000000000107
210
0
220
0
230
1
0
LWPOLYLINE
5
101
100
AcDbEntity
8
0
100
AcDbPolyline
90
16
70
1
43
0.0
10
-71.487738210795428
20
101.00843640530519
42
-0.65493105850971101
10
-65.848269388230761
20
100.30350280248449
10
-64.70677032402763
20
96.432733774655546
42
0.18935029646999729
10
-62.462247652017481
20
93.546918910642489
10
-58.991563594694753
20
91.487738210795456
42
-0.65493105850971112
10
-59.696497197515477
20
85.848269388230761
10
-63.56726622534439
20
84.70677032402763
42
0.1893502964699966
10
-66.453081089357454
20
82.462247652017481
10
-68.512261789204572
20
78.99156359469481
42
-0.654931058509713
10
-74.151730611769182
20
79.696497197515498
10
-75.293229675972299
20
83.567266225344412
42
0.18935029646999041
10
-77.537752347982462
20
86.453081089357482
10
-81.008436405305162
20
88.512261789204558
42
-0.65493105850970956
10
-80.303502802484473
20
94.151730611769182
10
-76.432733774655546
20
95.293229675972313
42
0.18935029646999577
10
-73.546918910642489
20
97.537752347982462
0
ARC
5
102
100
AcDbEntity
8
0
100
AcDbCircle
10
-79.426639828779813
20
91.178329978597475
30
0
40
1.3999999999999817
210
0
220
-0
230
1
100
AcDbArc
50
82.874983651097764
51
262.87498365109781
0
LINE
5
103
100
AcDbEntity
8
0
100
AcDbLine
10
-79.252991200354913
20
92.567519005996587
30
0
11
-77.764574385284405
21
92.38146690411277
31
0
0
ARC
5
104
100
AcDbEntity
8
0
100
AcDbCircle
10
-77.938223013709305
20
90.992277876713644
30
0
40
1.3999999999999995
210
0
220
0
230
1
100
AcDbArc
50
-97.125016348902122
51
82.87498365109785
0
LINE
5
105
100
AcDbEntity
8
0
100
AcDbLine
10
-78.111871642134204
20
89.603088849314503
30
0
11
-79.600288457204712
21
89.789140951198348
31
0
0
LWPOLYLINE
5
106
100
AcDbEntity
8
0
100
AcDbPolyline
90
4
70
1
43
0.0
10
-70.210859048801623
20
99.600288457204726
42
-0.99999999999999989
10
-67.43248099400337
20
99.252991200354927
10
-67.618533095887187
20
97.764574385284462
42
-0.99999999999999989
10
-70.396911150685455
20
98.111871642134219
0
ARC
5
107
100
AcDbEntity
8
0
100
AcDbCircle
10
-60.573360171220124
20
88.821670021402511
30
0
40
1.3999999999999995
210
0
220
0
230
1
100
AcDbArc
50
-97.125016348902165
51
82.874983651097978
0
LINE
5
108
100
AcDbEntity
8
0
100
AcDbLine
10
-60.747008799645023
20
87.432480994003384
30
0
11
-62.235425614715531
21
87.618533095887187
31
0
0
ARC
5
109
100
AcDbEntity
8
0
100
AcDbCircle
10
-62.061776986290631
20
89.007722123286328
30
0
40
1.3999999999999995
210
0
220
-0
230
1
100
AcDbArc
50
82.874983651098191
51
262.87498365109792
0
LINE
5
110
100
AcDbEntity
8
0
100
AcDbLine
10
-61.888128357865739
20
90.396911150685469
30
0
11
-60.399711542795231
21
90.210859048801609
31
0
0
LWPOLYLINE
5
111
100
AcDbEntity
8
0
100
AcDbPolyline
90
4
70
1
43
0.0
10
-69.789140951198391
20
80.399711542795245
42
-0.99999999999999989
10
-72.567519005996559
20
80.74700879964503
10
-72.381466904112756
20
82.235425614715581
42
-0.99999999999999989
10
-69.603088849314489
20
81.888128357865753
0
ENDSEC
0
SECTION
2
OBJECTS
0
DICTIONARY
5
C
100
AcDbDictionary
3
ACAD_GROUP
350
D
3
ACAD_MLINESTYLE
350
17
0
DICTIONARY
5
D
100
AcDbDictionary
0
DICTIONARY
5
1A
330
C
100
AcDbDictionary
0
DICTIONARY
5
17
100
AcDbDictionary
0
ENDSEC
0
EOF
