0
SECTION
2
HEADER
9
$INSUNITS
70
4
9
$ACADVER
1
AC1014
9
$HANDSEED
5
FFFF
0
ENDSEC
0
SECTION
2
TABLES
0
TABLE
2
VPORT
5
8
100
AcDbSymbolTable
0
ENDTAB
0
TABLE
2
LTYPE
5
5
100
AcDbSymbolTable
0
LTYPE
5
14
100
AcDbSymbolTableRecord
100
AcDbLinetypeTableRecord
2
BYBLOCK
70
0
0
LTYPE
5
15
100
AcDbSymbolTableRecord
100
AcDbLinetypeTableRecord
2
BYLAYER
70
0
0
ENDTAB
0
TABLE
2
LAYER
5
2
100
AcDbSymbolTable
70
2
0
LAYER
5
50
100
AcDbSymbolTableRecord
100
AcDbLayerTableRecord
2
0
70
0
6
CONTINUOUS
0
ENDTAB
0
TABLE
2
STYLE
5
3
100
AcDbSymbolTable
70
1
0
STYLE
5
11
100
AcDbSymbolTableRecord
100
AcDbTextStyleTableRecord
2
STANDARD
70
0
0
ENDTAB
0
TABLE
2
VIEW
5
6
100
AcDbSymbolTable
70
0
0
ENDTAB
0
TABLE
2
UCS
5
7
100
AcDbSymbolTable
70
0
0
ENDTAB
0
TABLE
2
APPID
5
9
100
AcDbSymbolTable
70
2
0
APPID
5
12
100
AcDbSymbolTableRecord
100
AcDbRegAppTableRecord
2
ACAD
70
0
0
ENDTAB
0
TABLE
2
DIMSTYLE
5
A
100
AcDbSymbolTable
70
1
0
ENDTAB
0
TABLE
2
BLOCK_RECORD
5
1
100
AcDbSymbolTable
70
1
0
BLOCK_RECORD
5
1F
100
AcDbSymbolTableRecord
100
AcDbBlockTableRecord
2
*MODEL_SPACE
0
BLOCK_RECORD
5
1B
100
AcDbSymbolTableRecord
100
AcDbBlockTableRecord
2
*PAPER_SPACE
0
ENDTAB
0
ENDSEC
0
SECTION
2
BLOCKS
0
BLOCK
5
20
100
AcDbEntity
100
AcDbBlockBegin
2
*MODEL_SPACE
0
ENDBLK
5
21
100
AcDbEntity
100
AcDbBlockEnd
0
BLOCK
5
1C
100
AcDbEntity
100
AcDbBlockBegin
2
*PAPER_SPACE
0
ENDBLK
5
1D
100
AcDbEntity
100
AcDbBlockEnd
0
ENDSEC
0
SECTION
2
ENTITIES
0
ARC
5
100
100
AcDbEntity
8
0
100
AcDbCircle
10
-153.87968975983205
20
125.50278836986314
30
0
40
1.5000000000000169
210
0
220
0
230
1
100
AcDbArc
50
119.99999998686472
51
239.99999998686312
0
ARC
5
101
100
AcDbEntity
8
0
100
AcDbCircle
10
-155.37968976042774
20
122.9047121588537
30
0
40
1.5000000000000213
210
0
220
0
230
1
100
AcDbArc
50
0
51
59.999999986864083
0
LINE
5
102
100
AcDbEntity
8
0
100
AcDbLine
10
-153.87968976042771
20
122.90471215850982
30
0
11
-153.87968976065696
21
121.90471215850982
31
0
0
ARC
5
103
100
AcDbEntity
8
0
100
AcDbCircle
10
-155.37968976065696
20
121.90471215885373
30
0
40
1.4999999999999836
210
0
220
0
230
1
100
AcDbArc
50
299.99999998686383
51
360
0
ARC
5
104
100
AcDbEntity
8
0
100
AcDbCircle
10
-153.87968976125265
20
119.30663594715652
30
0
40
1.4999999999999836
210
0
220
0
230
1
100
AcDbArc
50
119.99999998686313
51
239.99999998686499
0
ARC
5
105
100
AcDbEntity
8
0
100
AcDbCircle
10
-155.37968976184834
20
116.70855973614709
30
0
40
1.5000000000000391
210
0
220
0
230
1
100
AcDbArc
50
0
51
59.999999986861916
0
LINE
5
106
100
AcDbEntity
8
0
100
AcDbLine
10
-153.87968975387341
20
116.70855973580319
30
0
11
-153.87968975038643
21
101.49911020547842
31
0
0
ARC
5
107
100
AcDbEntity
8
0
100
AcDbCircle
10
-148.87968976871375
20
101.49868210138585
30
0
40
4.9999999999999982
210
0
220
0
230
1
100
AcDbArc
50
-180.00490571153111
51
0
0
LINE
5
108
100
AcDbEntity
8
0
100
AcDbLine
10
-143.87968976871375
20
101.49868210253216
30
0
11
-143.87968975095953
21
103.99868210253216
31
0
0
LINE
5
109
100
AcDbEntity
8
0
100
AcDbLine
10
-143.87968975095953
20
103.99868210253216
30
0
11
-143.87968975387344
21
116.70855973351053
31
0
0
ARC
5
110
100
AcDbEntity
8
0
100
AcDbCircle
10
-142.37968976184834
20
116.70855973316668
30
0
40
1.4999999999999416
210
0
220
0
230
1
100
AcDbArc
50
119.99999998686246
51
180
0
ARC
5
111
100
AcDbEntity
8
0
100
AcDbCircle
10
-143.87968976125262
20
119.3066359448639
30
0
40
1.5000000000000233
210
-0
220
0
230
1
100
AcDbArc
50
-60.000000013136741
51
59.999999986864083
0
ARC
5
112
100
AcDbEntity
8
0
100
AcDbCircle
10
-142.37968976065696
20
121.90471215587328
30
0
40
1.4999999999999503
210
0
220
0
230
1
100
AcDbArc
50
180
51
239.99999998686297
0
LINE
5
113
100
AcDbEntity
8
0
100
AcDbLine
10
-143.8796897606569
20
121.9047121562172
30
0
11
-143.87968976042771
21
122.90471215621722
31
0
0
ARC
5
114
100
AcDbEntity
8
0
100
AcDbCircle
10
-142.37968976042777
20
122.90471215587333
30
0
40
1.4999999999999505
210
0
220
0
230
1
100
AcDbArc
50
119.99999998686219
51
180
0
ARC
5
115
100
AcDbEntity
8
0
100
AcDbCircle
10
-143.87968975983205
20
125.50278836757052
30
0
40
1.5000000000000016
210
-0
220
0
230
1
100
AcDbArc
50
-60.000000013135931
51
59.999999986864083
0
ARC
5
116
100
AcDbEntity
8
0
100
AcDbCircle
10
-142.37968975923638
20
128.10086457857997
30
0
40
1.5000000000000036
210
0
220
0
230
1
100
AcDbArc
50
180
51
239.99999998686434
0
LINE
5
117
100
AcDbEntity
8
0
100
AcDbLine
10
-143.87968975648528
20
128.1008645789239
30
0
11
-143.87968975923641
21
140.10086457892388
31
0
0
ARC
5
118
100
AcDbEntity
8
0
100
AcDbCircle
10
-142.3796897592363
20
140.10086457926772
30
0
40
1.5000000000000941
210
0
220
0
230
1
100
AcDbArc
50
120.0000000131374
51
180
0
ARC
5
119
100
AcDbEntity
8
0
100
AcDbCircle
10
-143.87968975983205
20
142.69894079027722
30
0
40
1.5000000000000213
210
-0
220
0
230
1
100
AcDbArc
50
-59.999999986863784
51
60.000000013136209
0
ARC
5
120
100
AcDbEntity
8
0
100
AcDbCircle
10
-142.37968976042768
20
145.29701700197444
30
0
40
1.5000000000000213
210
0
220
0
230
1
100
AcDbArc
50
180
51
240.00000001313526
0
LINE
5
121
100
AcDbEntity
8
0
100
AcDbLine
10
-143.87968976042771
20
145.29701700163054
30
0
11
-143.87968976065696
21
146.29701700163054
31
0
0
ARC
5
122
100
AcDbEntity
8
0
100
AcDbCircle
10
-142.37968976065696
20
146.29701700197447
30
0
40
1.4999999999999638
210
0
220
0
230
1
100
AcDbArc
50
120.00000001313582
51
180
0
ARC
5
123
100
AcDbEntity
8
0
100
AcDbCircle
10
-143.87968976125262
20
148.89509321298385
30
0
40
1.5000000000000058
210
-0
220
0
230
1
100
AcDbArc
50
-59.999999986862868
51
60.000000013135271
0
ARC
5
124
100
AcDbEntity
8
0
100
AcDbCircle
10
-142.3796897618482
20
151.49316942468107
30
0
40
1.5000000000000568
210
0
220
0
230
1
100
AcDbArc
50
180
51
240.00000001313435
0
LINE
5
125
100
AcDbEntity
8
0
100
AcDbLine
10
-143.87968976184825
20
151.49316942433717
30
0
11
-143.87968976441732
21
162.69894079027725
31
0
0
ARC
5
126
100
AcDbEntity
8
0
100
AcDbCircle
10
-133.87968976441744
20
162.69894079256994
30
0
40
9.9999999999999005
210
0
220
0
230
1
100
AcDbArc
50
124.56171039425517
51
180
0
ARC
5
127
100
AcDbEntity
8
0
100
AcDbCircle
10
-142.1621753459016
20
174.72226947444926
30
0
40
4.5999999999999472
210
-0
220
0
230
1
100
AcDbArc
50
-55.438289605744259
51
45.000000013136436
0
LINE
5
128
100
AcDbEntity
8
0
100
AcDbLine
10
-138.90948415318925
20
177.97496066865313
30
0
11
-139.19232686572869
21
178.2578033810629
31
0
0
ARC
5
129
100
AcDbEntity
8
0
100
AcDbCircle
10
-136.01034635111873
20
181.43978389713192
30
0
40
4.500000000000016
210
0
220
0
230
1
100
AcDbArc
50
135.00000001313666
51
225.00000001313612
0
LINE
5
130
100
AcDbEntity
8
0
100
AcDbLine
10
-139.19232686718775
20
184.62176441174182
30
0
11
-134.66684346863136
21
189.14724781237328
31
0
0
ARC
5
131
100
AcDbEntity
8
0
100
AcDbCircle
10
-137.91953466283519
20
192.39993900508568
30
0
40
4.6000000000000005
210
-0
220
0
230
1
100
AcDbArc
50
-44.99999998686431
51
135.00000001313595
0
LINE
5
132
100
AcDbEntity
8
0
100
AcDbLine
10
-141.17222585703905
20
195.65263019779809
30
0
11
-145.69770925559538
21
191.12714679716669
31
0
0
ARC
5
133
100
AcDbEntity
8
0
100
AcDbCircle
10
-148.87968977166437
20
194.30912731177665
30
0
40
4.5000000000000293
210
0
220
0
230
1
100
AcDbArc
50
225.00000001313586
51
315.00000001313589
0
LINE
5
134
100
AcDbEntity
8
0
100
AcDbLine
10
-152.06167028627436
20
191.12714679570763
30
0
11
-156.58715368690579
21
195.65263019426396
31
0
0
ARC
5
135
100
AcDbEntity
8
0
100
AcDbCircle
10
-159.8398448796182
20
192.39993900006016
30
0
40
4.5999999999999757
210
0
220
-0
230
1
100
AcDbArc
50
45.00000001313542
51
225.00000001313569
0
LINE
5
136
100
AcDbEntity
8
0
100
AcDbLine
10
-163.0925360723306
20
189.14724780585632
30
0
11
-158.56705267169914
21
184.62176440729991
31
0
0
ARC
5
137
100
AcDbEntity
8
0
100
AcDbCircle
10
-161.74903318630902
20
181.43978389123092
30
0
40
4.4999999999999538
210
-0
220
0
230
1
100
AcDbArc
50
-44.99999998686441
51
45.000000013136642
0
LINE
5
138
100
AcDbEntity
8
0
100
AcDbLine
10
-158.56705267024009
20
178.25780337662098
30
0
11
-158.84989538264989
21
177.97496066408155
31
0
0
ARC
5
139
100
AcDbEntity
8
0
100
AcDbCircle
10
-155.59720418844606
20
174.72226947136915
30
0
40
4.6000000000000005
210
0
220
0
230
1
100
AcDbArc
50
135.00000001313569
51
235.43828963201614
0
ARC
5
140
100
AcDbEntity
8
0
100
AcDbCircle
10
-163.87968976441729
20
162.69894078569197
30
0
40
9.9999999999999645
210
0
220
-0
230
1
100
AcDbArc
50
0
51
55.438289632016271
0
LINE
5
141
100
AcDbEntity
8
0
100
AcDbLine
10
-153.87968976441732
20
162.69894078798461
30
0
11
-153.87968976184828
21
151.49316942204453
31
0
0
ARC
5
142
100
AcDbEntity
8
0
100
AcDbCircle
10
-155.37968976184831
20
151.49316942170063
30
0
40
1.5000000000000366
210
0
220
0
230
1
100
AcDbArc
50
-59.999999986864339
51
0
0
ARC
5
143
100
AcDbEntity
8
0
100
AcDbCircle
10
-153.87968976125265
20
148.89509321069119
30
0
40
1.4999999999999882
210
0
220
0
230
1
100
AcDbArc
50
120.00000001313622
51
240.00000001313526
0
ARC
5
144
100
AcDbEntity
8
0
100
AcDbCircle
10
-155.37968976065699
20
146.29701699899394
30
0
40
1.5000000000000213
210
0
220
-0
230
1
100
AcDbArc
50
0
51
60.000000013137686
0
LINE
5
145
100
AcDbEntity
8
0
100
AcDbLine
10
-153.87968976065696
20
146.29701699933787
30
0
11
-153.87968976042771
21
145.29701699933787
31
0
0
ARC
5
146
100
AcDbEntity
8
0
100
AcDbCircle
10
-155.37968976042774
20
145.297016998994
30
0
40
1.5000000000000124
210
0
220
0
230
1
100
AcDbArc
50
-59.999999986863784
51
0
0
ARC
5
147
100
AcDbEntity
8
0
100
AcDbCircle
10
-153.87968975983205
20
142.69894078798455
30
0
40
1.5000000000000124
210
0
220
0
230
1
100
AcDbArc
50
120.00000001313663
51
240.00000001313472
0
ARC
5
148
100
AcDbEntity
8
0
100
AcDbCircle
10
-155.3796897592365
20
140.10086457628734
30
0
40
1.5000000000000568
210
0
220
-0
230
1
100
AcDbArc
50
0
51
60.000000013133921
0
LINE
5
149
100
AcDbEntity
8
0
100
AcDbLine
10
-153.87968975923644
20
140.10086457663124
30
0
11
-153.87968975923641
21
128.10086458121648
31
0
0
ARC
5
150
100
AcDbEntity
8
0
100
AcDbCircle
10
-155.37968975923641
20
128.10086458156039
30
0
40
1.500000000000008
210
0
220
0
230
1
100
AcDbArc
50
299.99999998686326
51
360
0
CIRCLE
5
151
100
AcDbEntity
8
0
100
AcDbCircle
10
-148.87968976871375
20
101.49868210138585
30
0
40
1.5500000000000003
210
0
220
-0
230
1
0
CIRCLE
5
152
100
AcDbEntity
8
0
100
AcDbCircle
10
-148.87968975267898
20
111.49868210138585
30
0
40
1.5500000000000025
210
0
220
-0
230
1
0
LWPOLYLINE
5
153
100
AcDbEntity
8
0
100
AcDbPolyline
90
4
70
1
43
0.0
10
-141.03080449626253
20
175.85364032460714
10
-142.09146466828557
20
176.91430049614382
42
0.99999999999999989
10
-144.35420636756368
20
174.65155879582809
10
-143.2935461955407
20
173.59089862429141
42
0.99999999999999989
0
ARC
5
154
100
AcDbEntity
8
0
100
AcDbCircle
10
-155.5972041915262
20
188.15729831391354
30
0
40
1.600000000000007
210
0
220
-0
230
1
100
AcDbArc
50
45.000000013136273
51
225.00000001313552
0
LINE
5
155
100
AcDbEntity
8
0
100
AcDbLine
10
-154.46583334188711
20
189.28866916407142
30
0
11
-153.40517316986416
21
188.22800899253474
31
0
0
ARC
5
156
100
AcDbEntity
8
0
100
AcDbCircle
10
-154.5365440195032
20
187.09663814237686
30
0
40
1.600000000000007
210
0
220
0
230
1
100
AcDbArc
50
-134.99999998686374
51
45.000000013137708
0
LINE
5
157
100
AcDbEntity
8
0
100
AcDbLine
10
-155.66791486914229
20
185.96526729221898
30
0
11
-156.7285750411653
21
187.02592746375569
31
0
0
LWPOLYLINE
5
158
100
AcDbEntity
8
0
100
AcDbPolyline
90
3
70
1
43
0.0
10
-139.86120065572277
20
177.35960060177408
42
-9.5924075647183923e-05
10
-139.86018889092648
20
177.35871753217978
10
-139.8395022245063
20
177.34262790274943
42
-0.0013774045421489384
0
LWPOLYLINE
5
159
100
AcDbEntity
8
0
100
AcDbPolyline
90
4
70
1
43
0.0
10
-142.09146467036061
20
185.96526729533164
10
-141.03080449882395
20
187.02592746735462
42
0.99999999999999989
10
-143.29354619913968
20
189.28866916663279
10
-144.35420637067634
20
188.22800899460981
42
0.99999999999999989
0
CIRCLE
5
160
100
AcDbEntity
8
0
100
AcDbCircle
10
-148.87968976871392
20
181.4397838941814
30
0
40
3.4999999999999964
210
0
220
-0
230
1
0
LINE
5
161
100
AcDbEntity
8
0
100
AcDbLine
10
-153.40517316675152
20
174.65155879375303
30
0
11
-154.46583333828823
21
173.59089862173005
31
0
0
ARC
5
162
100
AcDbEntity
8
0
100
AcDbCircle
10
-155.59720418844606
20
174.72226947136915
30
0
40
1.600000000000007
210
0
220
0
230
1
100
AcDbArc
50
135.00000001313626
51
315.00000001313481
0
LINE
5
163
100
AcDbEntity
8
0
100
AcDbLine
10
-156.72857503860394
20
175.85364032100824
30
0
11
-155.66791486706728
21
176.91430049303122
31
0
0
ARC
5
164
100
AcDbEntity
8
0
100
AcDbCircle
10
-154.5365440169094
20
175.78292964339212
30
0
40
1.600000000000007
210
0
220
0
230
1
100
AcDbArc
50
-44.999999986863699
51
135.00000001313626
0
ENDSEC
0
SECTION
2
OBJECTS
0
DICTIONARY
5
C
100
AcDbDictionary
3
ACAD_GROUP
350
D
3
ACAD_MLINESTYLE
350
17
0
DICTIONARY
5
D
100
AcDbDictionary
0
DICTIONARY
5
1A
330
C
100
AcDbDictionary
0
DICTIONARY
5
17
100
AcDbDictionary
0
ENDSEC
0
EOF
