0
SECTION
2
HEADER
9
$INSUNITS
70
4
9
$ACADVER
1
AC1014
9
$HANDSEED
5
FFFF
0
ENDSEC
0
SECTION
2
TABLES
0
TABLE
2
VPORT
5
8
100
AcDbSymbolTable
0
ENDTAB
0
TABLE
2
LTYPE
5
5
100
AcDbSymbolTable
0
LTYPE
5
14
100
AcDbSymbolTableRecord
100
AcDbLinetypeTableRecord
2
BYBLOCK
70
0
0
LTYPE
5
15
100
AcDbSymbolTableRecord
100
AcDbLinetypeTableRecord
2
BYLAYER
70
0
0
ENDTAB
0
TABLE
2
LAYER
5
2
100
AcDbSymbolTable
70
2
0
LAYER
5
50
100
AcDbSymbolTableRecord
100
AcDbLayerTableRecord
2
0
70
0
6
CONTINUOUS
0
ENDTAB
0
TABLE
2
STYLE
5
3
100
AcDbSymbolTable
70
1
0
STYLE
5
11
100
AcDbSymbolTableRecord
100
AcDbTextStyleTableRecord
2
STANDARD
70
0
0
ENDTAB
0
TABLE
2
VIEW
5
6
100
AcDbSymbolTable
70
0
0
ENDTAB
0
TABLE
2
UCS
5
7
100
AcDbSymbolTable
70
0
0
ENDTAB
0
TABLE
2
APPID
5
9
100
AcDbSymbolTable
70
2
0
APPID
5
12
100
AcDbSymbolTableRecord
100
AcDbRegAppTableRecord
2
ACAD
70
0
0
ENDTAB
0
TABLE
2
DIMSTYLE
5
A
100
AcDbSymbolTable
70
1
0
ENDTAB
0
TABLE
2
BLOCK_RECORD
5
1
100
AcDbSymbolTable
70
1
0
BLOCK_RECORD
5
1F
100
AcDbSymbolTableRecord
100
AcDbBlockTableRecord
2
*MODEL_SPACE
0
BLOCK_RECORD
5
1B
100
AcDbSymbolTableRecord
100
AcDbBlockTableRecord
2
*PAPER_SPACE
0
ENDTAB
0
ENDSEC
0
SECTION
2
BLOCKS
0
BLOCK
5
20
100
AcDbEntity
100
AcDbBlockBegin
2
*MODEL_SPACE
0
ENDBLK
5
21
100
AcDbEntity
100
AcDbBlockEnd
0
BLOCK
5
1C
100
AcDbEntity
100
AcDbBlockBegin
2
*PAPER_SPACE
0
ENDBLK
5
1D
100
AcDbEntity
100
AcDbBlockEnd
0
ENDSEC
0
SECTION
2
ENTITIES
0
ARC
5
100
100
AcDbEntity
8
0
100
AcDbCircle
10
-146.71751443786835
20
232.56641082574703
30
0
40
1.600000000000007
210
0
220
-0
230
1
100
AcDbArc
50
45.000000018609413
51
225.00000001860869
0
LINE
5
101
100
AcDbEntity
8
0
100
AcDbLine
10
-145.58614358833734
20
233.69778167601297
30
0
11
-144.52548341621304
21
232.63712150457764
31
0
0
ARC
5
102
100
AcDbEntity
8
0
100
AcDbCircle
10
-145.65685426574404
20
231.5057506543117
30
0
40
1.5999999999999943
210
0
220
0
230
1
100
AcDbArc
50
-134.9999999813906
51
45.000000018609413
0
LINE
5
103
100
AcDbEntity
8
0
100
AcDbLine
10
-146.78822511527505
20
230.37437980404576
30
0
11
-147.84888528739938
21
231.43503997548109
31
0
0
CIRCLE
5
104
100
AcDbEntity
8
0
100
AcDbCircle
10
-139.99999999169819
20
155.90779461386109
30
0
40
1.4999999999999991
210
0
220
-0
230
1
0
CIRCLE
5
105
100
AcDbEntity
8
0
100
AcDbCircle
10
-140.00000001441438
20
225.84889640665659
30
0
40
3.4999999999999969
210
0
220
-0
230
1
0
LWPOLYLINE
5
106
100
AcDbEntity
8
0
100
AcDbPolyline
90
3
70
1
43
0.0
10
-130.98049913623709
20
221.76783004551663
10
-130.9598124698154
20
221.7517404160883
42
-0.0013774045421489384
10
-130.98151090103349
20
221.76871311511081
42
-9.5924075647183923e-05
0
ARC
5
107
100
AcDbEntity
8
0
100
AcDbCircle
10
-145.65685426206949
20
220.19204215532696
30
0
40
1.600000000000007
210
0
220
0
230
1
100
AcDbArc
50
-44.999999981389891
51
135.00000001860872
0
LINE
5
108
100
AcDbEntity
8
0
100
AcDbLine
10
-144.52548341180352
20
219.06067130579595
30
0
11
-145.58614358323888
21
218.00001113367162
31
0
0
ARC
5
109
100
AcDbEntity
8
0
100
AcDbCircle
10
-146.71751443350479
20
219.13138198320263
30
0
40
1.600000000000007
210
0
220
0
230
1
100
AcDbArc
50
135.00000001861017
51
315.00000001860866
0
LINE
5
110
100
AcDbEntity
8
0
100
AcDbLine
10
-147.84888528377076
20
220.26275283273364
30
0
11
-146.7882251123354
21
221.32341300485797
31
0
0
LWPOLYLINE
5
111
100
AcDbEntity
8
0
100
AcDbPolyline
90
4
70
1
43
0.0
10
-135.4745166126157
20
219.06067130873561
42
-0.99999999999999989
10
-133.21177491355368
20
221.32341300926748
10
-132.15111474142935
20
220.26275283783212
42
-0.99999999999999989
10
-134.41385644049137
20
218.00001113730025
0
CIRCLE
5
112
100
AcDbEntity
8
0
100
AcDbCircle
10
-140.0000000067777
20
145.90779461386109
30
0
40
1.4999999999999991
210
0
220
-0
230
1
0
ARC
5
113
100
AcDbEntity
8
0
100
AcDbCircle
10
-134.34314576675928
20
231.50575065798631
30
0
40
1.600000000000007
210
0
220
0
230
1
100
AcDbArc
50
135.00000001860943
51
315.00000001860866
0
LINE
5
114
100
AcDbEntity
8
0
100
AcDbLine
10
-135.47451661702522
20
232.63712150751732
30
0
11
-134.41385644558991
21
233.69778167964165
31
0
0
ARC
5
115
100
AcDbEntity
8
0
100
AcDbCircle
10
-133.28248559532395
20
232.56641083011061
30
0
40
1.600000000000007
210
0
220
0
230
1
100
AcDbArc
50
-44.999999981391312
51
135.00000001860943
0
LINE
5
116
100
AcDbEntity
8
0
100
AcDbLine
10
-132.15111474505801
20
231.43503998057957
30
0
11
-133.21177491649334
21
230.37437980845527
31
0
0
LINE
5
117
100
AcDbEntity
8
0
100
AcDbLine
10
-144.9999999934405
20
161.27217536718496
30
0
11
-144.99999998845044
21
145.90822271747601
31
0
0
ARC
5
118
100
AcDbEntity
8
0
100
AcDbCircle
10
-140.0000000067777
20
145.90779461386109
30
0
40
4.9999999999999929
210
0
220
0
230
1
100
AcDbArc
50
-180.00490570603338
51
0
0
LINE
5
119
100
AcDbEntity
8
0
100
AcDbLine
10
-135.0000000067777
20
145.90779461548505
30
0
11
-134.99999998926231
21
148.40779461548502
31
0
0
LINE
5
120
100
AcDbEntity
8
0
100
AcDbLine
10
-134.99999998926231
20
148.40779461548502
30
0
11
-134.99999999088899
21
161.45779462878451
31
0
0
LINE
5
121
100
AcDbEntity
8
0
100
AcDbLine
10
-134.99999999088899
20
161.45779462878451
30
0
11
-135.00000000037727
21
166.11767224646337
31
0
0
ARC
5
122
100
AcDbEntity
8
0
100
AcDbCircle
10
-133.50000000037721
20
166.11767224626277
30
0
40
1.5000000000000402
210
0
220
0
230
1
100
AcDbArc
50
119.99999999233935
51
180
0
ARC
5
123
100
AcDbEntity
8
0
100
AcDbCircle
10
-135.00000000002979
20
168.71574845781674
30
0
40
1.5000000000000047
210
-0
220
0
230
1
100
AcDbArc
50
-60.000000007664411
51
59.999999992337074
0
ARC
5
124
100
AcDbEntity
8
0
100
AcDbCircle
10
-133.49999999968236
20
171.3138246689694
30
0
40
1.4999999999999503
210
0
220
0
230
1
100
AcDbArc
50
180
51
239.99999999233788
0
LINE
5
125
100
AcDbEntity
8
0
100
AcDbLine
10
-134.9999999996823
20
171.31382466917
30
0
11
-134.99999999954861
21
172.31382466917006
31
0
0
ARC
5
126
100
AcDbEntity
8
0
100
AcDbCircle
10
-133.49999999954875
20
172.31382466896952
30
0
40
1.4999999999998017
210
0
220
0
230
1
100
AcDbArc
50
119.9999999923336
51
180
0
ARC
5
127
100
AcDbEntity
8
0
100
AcDbCircle
10
-134.99999999920112
20
174.91190088052338
30
0
40
1.5000000000000533
210
-0
220
0
230
1
100
AcDbArc
50
-60.000000007663083
51
59.999999992337074
0
ARC
5
128
100
AcDbEntity
8
0
100
AcDbCircle
10
-133.49999999885367
20
177.50997709167606
30
0
40
1.5000000000000036
210
0
220
0
230
1
100
AcDbArc
50
180
51
239.99999999233751
0
LINE
5
129
100
AcDbEntity
8
0
100
AcDbLine
10
-134.9999999988537
20
177.50997709187669
30
0
11
-135.00000000000006
21
189.50997709187672
31
0
0
ARC
5
130
100
AcDbEntity
8
0
100
AcDbCircle
10
-133.49999999999989
20
189.50997709236384
30
0
40
1.5000000026119724
210
0
220
0
230
1
100
AcDbArc
50
120.00000019140967
51
180
0
ARC
5
131
100
AcDbEntity
8
0
100
AcDbCircle
10
-135.00000000084384
20
192.10805330323007
30
0
40
1.4999999973881695
210
-0
220
0
230
1
100
AcDbArc
50
-60.000000154189095
51
60.000000191406428
0
ARC
5
132
100
AcDbEntity
8
0
100
AcDbCircle
10
-133.50000000168765
20
194.70612951507053
30
0
40
1.499999999999968
210
0
220
0
230
1
100
AcDbArc
50
180
51
239.99999984581052
0
LINE
5
133
100
AcDbEntity
8
0
100
AcDbLine
10
-135.00000000168762
20
194.70612951458338
30
0
11
-135.00000000201243
21
195.70612951458338
31
0
0
ARC
5
134
100
AcDbEntity
8
0
100
AcDbCircle
10
-133.5000000020124
20
195.70612951507056
30
0
40
1.5000000000000269
210
0
220
0
230
1
100
AcDbArc
50
120.00000001860987
51
180
0
ARC
5
135
100
AcDbEntity
8
0
100
AcDbCircle
10
-135.00000000285627
20
198.30420572593667
30
0
40
1.4999999999999871
210
-0
220
0
230
1
100
AcDbArc
50
-59.999999981389976
51
60.000000018610422
0
ARC
5
136
100
AcDbEntity
8
0
100
AcDbCircle
10
-133.50000000369999
20
200.90228193777727
30
0
40
1.5000000000000746
210
0
220
0
230
1
100
AcDbArc
50
180
51
240.00000001860644
0
LINE
5
137
100
AcDbEntity
8
0
100
AcDbLine
10
-135.00000000370008
20
200.90228193729004
30
0
11
-135.00000000571566
21
207.10805330323007
31
0
0
ARC
5
138
100
AcDbEntity
8
0
100
AcDbCircle
10
-125.00000000832756
20
207.10805330647801
30
0
40
9.9999999999999574
210
0
220
0
230
1
100
AcDbArc
50
124.56171039972868
51
180
0
ARC
5
139
100
AcDbEntity
8
0
100
AcDbCircle
10
-133.28248559096036
20
219.13138198756621
30
0
40
4.599999999999981
210
-0
220
0
230
1
100
AcDbArc
50
-55.438289600271119
51
45.000000018609477
0
LINE
5
140
100
AcDbEntity
8
0
100
AcDbLine
10
-130.02979439855872
20
222.38407318208078
30
0
11
-130.31263711112518
21
222.66691589446353
31
0
0
ARC
5
141
100
AcDbEntity
8
0
100
AcDbCircle
10
-127.13065659681918
20
225.84889641083649
30
0
40
4.4999999999999911
210
0
220
0
230
1
100
AcDbArc
50
135.00000001860965
51
225.00000001860914
0
LINE
5
142
100
AcDbEntity
8
0
100
AcDbLine
10
-130.31263711319215
20
229.03087692514245
30
0
11
-125.78715371506806
21
233.55636032620617
31
0
0
ARC
5
143
100
AcDbEntity
8
0
100
AcDbCircle
10
-129.03984490958263
20
236.80905151860784
30
0
40
4.6000000000000005
210
-0
220
0
230
1
100
AcDbArc
50
-44.999999981390751
51
135.000000018609
0
LINE
5
144
100
AcDbEntity
8
0
100
AcDbLine
10
-132.29253610409717
20
240.06174271100952
30
0
11
-136.81801950222123
21
235.53625930994585
31
0
0
ARC
5
145
100
AcDbEntity
8
0
100
AcDbCircle
10
-140.00000001859425
20
238.71823982425187
30
0
40
4.5000000000000542
210
0
220
0
230
1
100
AcDbArc
50
225.00000001860948
51
315.00000001860951
0
LINE
5
146
100
AcDbEntity
8
0
100
AcDbLine
10
-143.18198053290024
20
235.53625930787888
30
0
11
-147.70746393396394
21
240.06174270600292
31
0
0
ARC
5
147
100
AcDbEntity
8
0
100
AcDbCircle
10
-150.96015512636561
20
236.80905151148838
30
0
40
4.5999999999999632
210
0
220
-0
230
1
100
AcDbArc
50
45.000000018608993
51
225.00000001860897
0
LINE
5
148
100
AcDbEntity
8
0
100
AcDbLine
10
-154.21284631876728
20
233.55636031697384
30
0
11
-149.68736291770355
21
229.03087691884969
31
0
0
ARC
5
149
100
AcDbEntity
8
0
100
AcDbCircle
10
-152.86934343200946
20
225.84889640247681
30
0
40
4.4999999999999405
210
-0
220
0
230
1
100
AcDbArc
50
-44.999999981391774
51
45.000000018609263
0
LINE
5
150
100
AcDbEntity
8
0
100
AcDbLine
10
-149.68736291563661
20
222.66691588817082
30
0
11
-149.97020562801936
21
222.3840731756043
31
0
0
ARC
5
151
100
AcDbEntity
8
0
100
AcDbCircle
10
-146.71751443350479
20
219.13138198320263
30
0
40
4.6000000000000005
210
0
220
0
230
1
100
AcDbArc
50
135.00000001860926
51
235.43828963748945
0
ARC
5
152
100
AcDbEntity
8
0
100
AcDbCircle
10
-155.00000000832753
20
207.10805329673423
30
0
40
10.000000000000018
210
0
220
-0
230
1
100
AcDbArc
50
0
51
55.438289637489405
0
LINE
5
153
100
AcDbEntity
8
0
100
AcDbLine
10
-145.00000000832753
20
207.10805329998223
30
0
11
-145.0000000033809
21
200.90228193404212
31
0
0
ARC
5
154
100
AcDbEntity
8
0
100
AcDbCircle
10
-146.50000000370031
20
200.90228193355497
30
0
40
1.5000000000001505
210
0
220
0
230
1
100
AcDbArc
50
-59.999999981386509
51
0
0
ARC
5
155
100
AcDbEntity
8
0
100
AcDbCircle
10
-145.00000000285632
20
198.30420572268878
30
0
40
1.4999999999999787
210
0
220
0
230
1
100
AcDbArc
50
120.00000001860855
51
240.00000001860894
0
ARC
5
156
100
AcDbEntity
8
0
100
AcDbCircle
10
-146.50000000201246
20
195.70612951084829
30
0
40
1.499999999999968
210
0
220
-0
230
1
100
AcDbArc
50
0
51
60.000000018610422
0
LINE
5
157
100
AcDbEntity
8
0
100
AcDbLine
10
-145.00000000201248
20
195.70612951133546
30
0
11
-145.00000000168765
21
194.70612951133546
31
0
0
ARC
5
158
100
AcDbEntity
8
0
100
AcDbCircle
10
-146.50000000168771
20
194.70612951084831
30
0
40
1.5000000000000357
210
0
220
0
230
1
100
AcDbArc
50
-59.999999981390125
51
0
0
ARC
5
159
100
AcDbEntity
8
0
100
AcDbCircle
10
-145.00000000084384
20
192.10805329998212
30
0
40
1.50000000000004
210
0
220
0
230
1
100
AcDbArc
50
120.0000000186084
51
240.00000001860948
0
ARC
5
160
100
AcDbEntity
8
0
100
AcDbCircle
10
-146.50000000000003
20
189.5099770881416
30
0
40
1.5000000000000391
210
0
220
-0
230
1
100
AcDbArc
50
0
51
60.000000018608539
0
LINE
5
161
100
AcDbEntity
8
0
100
AcDbLine
10
-145
20
189.50997708828493
30
0
11
-145.00000000000003
21
177.50997709355795
31
0
0
ARC
5
162
100
AcDbEntity
8
0
100
AcDbCircle
10
-146.49999999885384
20
177.50997709341476
30
0
40
1.5000000000001372
210
0
220
0
230
1
100
AcDbArc
50
-60.000000007659828
51
0
0
ARC
5
163
100
AcDbEntity
8
0
100
AcDbCircle
10
-144.99999999920115
20
174.91190088186073
30
0
40
1.5000000000000224
210
0
220
0
230
1
100
AcDbArc
50
119.99999999233748
51
239.99999999233711
0
ARC
5
164
100
AcDbEntity
8
0
100
AcDbCircle
10
-146.49999999954855
20
172.31382467070807
30
0
40
1.4999999999999147
210
0
220
0
230
1
100
AcDbArc
50
0
51
59.9999999923388
0
LINE
5
165
100
AcDbEntity
8
0
100
AcDbLine
10
-144.99999999954863
20
172.31382467050742
30
0
11
-144.99999999968236
21
171.31382467050742
31
0
0
ARC
5
166
100
AcDbEntity
8
0
100
AcDbCircle
10
-146.49999999968233
20
171.31382467070802
30
0
40
1.4999999999999649
210
0
220
0
230
1
100
AcDbArc
50
299.99999999233609
51
360
0
ARC
5
167
100
AcDbEntity
8
0
100
AcDbCircle
10
-145.00000000002981
20
168.7157484591541
30
0
40
1.4999999999999827
210
0
220
0
230
1
100
AcDbArc
50
119.99999999233802
51
239.99999999233711
0
ARC
5
168
100
AcDbEntity
8
0
100
AcDbCircle
10
-146.50000000037744
20
166.1176722480013
30
0
40
1.5000000000001457
210
0
220
0
230
1
100
AcDbArc
50
0
51
59.999999992333997
0
LINE
5
169
100
AcDbEntity
8
0
100
AcDbLine
10
-145.00000000037727
20
166.11767224780078
30
0
11
-144.9999999934405
21
161.27217536718496
31
0
0
ENDSEC
0
SECTION
2
OBJECTS
0
DICTIONARY
5
C
100
AcDbDictionary
3
ACAD_GROUP
350
D
3
ACAD_MLINESTYLE
350
17
0
DICTIONARY
5
D
100
AcDbDictionary
0
DICTIONARY
5
1A
330
C
100
AcDbDictionary
0
DICTIONARY
5
17
100
AcDbDictionary
0
ENDSEC
0
EOF
