0
SECTION
2
HEADER
9
$INSUNITS
70
4
9
$ACADVER
1
AC1014
9
$HANDSEED
5
FFFF
0
ENDSEC
0
SECTION
2
TABLES
0
TABLE
2
VPORT
5
8
100
AcDbSymbolTable
0
ENDTAB
0
TABLE
2
LTYPE
5
5
100
AcDbSymbolTable
0
LTYPE
5
14
100
AcDbSymbolTableRecord
100
AcDbLinetypeTableRecord
2
BYBLOCK
70
0
0
LTYPE
5
15
100
AcDbSymbolTableRecord
100
AcDbLinetypeTableRecord
2
BYLAYER
70
0
0
ENDTAB
0
TABLE
2
LAYER
5
2
100
AcDbSymbolTable
70
2
0
LAYER
5
50
100
AcDbSymbolTableRecord
100
AcDbLayerTableRecord
2
0
70
0
6
CONTINUOUS
0
ENDTAB
0
TABLE
2
STYLE
5
3
100
AcDbSymbolTable
70
1
0
STYLE
5
11
100
AcDbSymbolTableRecord
100
AcDbTextStyleTableRecord
2
STANDARD
70
0
0
ENDTAB
0
TABLE
2
VIEW
5
6
100
AcDbSymbolTable
70
0
0
ENDTAB
0
TABLE
2
UCS
5
7
100
AcDbSymbolTable
70
0
0
ENDTAB
0
TABLE
2
APPID
5
9
100
AcDbSymbolTable
70
2
0
APPID
5
12
100
AcDbSymbolTableRecord
100
AcDbRegAppTableRecord
2
ACAD
70
0
0
ENDTAB
0
TABLE
2
DIMSTYLE
5
A
100
AcDbSymbolTable
70
1
0
ENDTAB
0
TABLE
2
BLOCK_RECORD
5
1
100
AcDbSymbolTable
70
1
0
BLOCK_RECORD
5
1F
100
AcDbSymbolTableRecord
100
AcDbBlockTableRecord
2
*MODEL_SPACE
0
BLOCK_RECORD
5
1B
100
AcDbSymbolTableRecord
100
AcDbBlockTableRecord
2
*PAPER_SPACE
0
ENDTAB
0
ENDSEC
0
SECTION
2
BLOCKS
0
BLOCK
5
20
100
AcDbEntity
100
AcDbBlockBegin
2
*MODEL_SPACE
0
ENDBLK
5
21
100
AcDbEntity
100
AcDbBlockEnd
0
BLOCK
5
1C
100
AcDbEntity
100
AcDbBlockBegin
2
*PAPER_SPACE
0
ENDBLK
5
1D
100
AcDbEntity
100
AcDbBlockEnd
0
ENDSEC
0
SECTION
2
ENTITIES
0
CIRCLE
5
100
100
AcDbEntity
8
0
100
AcDbCircle
10
22.455762454059688
20
-28.871694583791019
30
0
40
1.549999999999998
210
0
220
-0
230
1
0
LWPOLYLINE
5
101
100
AcDbEntity
8
0
100
AcDbPolyline
90
4
70
1
43
0.0
10
62.260232561633366
20
-87.420077520544467
42
-0.99999999999999989
10
61.863321410947904
20
-90.595366726028189
10
60.374904595877396
20
-90.409314624144372
42
-0.99999999999999989
10
60.771815746562858
20
-87.23402541866065
0
CIRCLE
5
102
100
AcDbEntity
8
0
100
AcDbCircle
10
69.999999999999972
20
-89.999999999999986
30
0
40
3.499999999999996
210
0
220
-0
230
1
0
LWPOLYLINE
5
103
100
AcDbEntity
8
0
100
AcDbPolyline
90
4
70
1
43
0.0
10
79.625095404122547
20
-89.5906853758556
42
-0.99999999999999989
10
79.228184253437078
20
-92.765974581339336
10
77.739767438366584
20
-92.579922479455519
42
-0.99999999999999989
10
78.136678589052039
20
-89.404633273971797
0
LWPOLYLINE
5
104
100
AcDbEntity
8
0
100
AcDbPolyline
90
4
70
1
43
0.0
10
67.420077520544453
20
-97.739767438366584
42
-0.99999999999999989
10
70.595366726028175
20
-98.136678589052053
10
70.409314624144358
20
-99.625095404122561
42
-0.99999999999999989
10
67.234025418660636
20
-99.228184253437092
0
CIRCLE
5
105
100
AcDbEntity
8
0
100
AcDbCircle
10
26.139406135149201
20
-33.607807888048981
30
0
40
1.5500000000000025
210
0
220
-0
230
1
0
LWPOLYLINE
5
106
100
AcDbEntity
8
0
100
AcDbPolyline
90
4
70
1
43
0.0
10
72.579922479455504
20
-82.260232561633373
42
-0.99999999999999989
10
69.404633273971768
20
-81.863321410947918
10
69.590685375855585
20
-80.37490459587741
42
-0.99999999999999989
10
72.765974581339322
20
-80.771815746562865
0
LWPOLYLINE
5
107
100
AcDbEntity
8
0
100
AcDbPolyline
90
20
70
1
43
0.0
10
60.399711542795238
20
-93.435762148121057
10
60.002800392109805
20
-93.386148254285374
42
-0.46863797583154115
10
56.187793221247091
20
-87.433576895094305
42
0.24672630324879818
10
54.54747419941679
20
-78.276577007101153
10
16.667179512910664
20
-29.573340981593248
42
-0.4142135645553176
10
17.01800273239574
20
-26.766755310662322
10
21.754116064098966
20
-23.083111664859601
42
-0.41421356019087208
10
24.560701714119194
20
-23.433934881730842
10
62.440996373180027
20
-72.137170871951909
42
0.24672630324879699
10
70.912471582322851
20
-75.981049280924225
42
-0.46863797583153649
10
75.742808211480337
20
-81.143919950330456
10
75.693194317644668
20
-81.540831101015954
42
0.4142135623730972
10
79.600288457204712
20
-86.5642378518789
10
85.950866868172227
20
-87.358060153249852
42
-0.99999999999999989
10
84.809747309951462
20
-96.487016619015577
10
78.459168898984046
20
-95.693194317644668
42
0.41421356237309859
10
73.435762148121043
20
-99.600288457204783
10
72.64193984675012
20
-105.9508668681722
42
-0.99999999999999989
10
63.512983380984373
20
-104.80974730995149
10
64.306805682355304
20
-98.459168898983989
42
0.41421356237309515
0
ENDSEC
0
SECTION
2
OBJECTS
0
DICTIONARY
5
C
100
AcDbDictionary
3
ACAD_GROUP
350
D
3
ACAD_MLINESTYLE
350
17
0
DICTIONARY
5
D
100
AcDbDictionary
0
DICTIONARY
5
1A
330
C
100
AcDbDictionary
0
DICTIONARY
5
17
100
AcDbDictionary
0
ENDSEC
0
EOF
