0
SECTION
2
HEADER
9
$INSUNITS
70
4
9
$ACADVER
1
AC1014
9
$HANDSEED
5
FFFF
0
ENDSEC
0
SECTION
2
TABLES
0
TABLE
2
VPORT
5
8
100
AcDbSymbolTable
0
ENDTAB
0
TABLE
2
LTYPE
5
5
100
AcDbSymbolTable
0
LTYPE
5
14
100
AcDbSymbolTableRecord
100
AcDbLinetypeTableRecord
2
BYBLOCK
70
0
0
LTYPE
5
15
100
AcDbSymbolTableRecord
100
AcDbLinetypeTableRecord
2
BYLAYER
70
0
0
ENDTAB
0
TABLE
2
LAYER
5
2
100
AcDbSymbolTable
70
2
0
LAYER
5
50
100
AcDbSymbolTableRecord
100
AcDbLayerTableRecord
2
0
70
0
6
CONTINUOUS
0
ENDTAB
0
TABLE
2
STYLE
5
3
100
AcDbSymbolTable
70
1
0
STYLE
5
11
100
AcDbSymbolTableRecord
100
AcDbTextStyleTableRecord
2
STANDARD
70
0
0
ENDTAB
0
TABLE
2
VIEW
5
6
100
AcDbSymbolTable
70
0
0
ENDTAB
0
TABLE
2
UCS
5
7
100
AcDbSymbolTable
70
0
0
ENDTAB
0
TABLE
2
APPID
5
9
100
AcDbSymbolTable
70
2
0
APPID
5
12
100
AcDbSymbolTableRecord
100
AcDbRegAppTableRecord
2
ACAD
70
0
0
ENDTAB
0
TABLE
2
DIMSTYLE
5
A
100
AcDbSymbolTable
70
1
0
ENDTAB
0
TABLE
2
BLOCK_RECORD
5
1
100
AcDbSymbolTable
70
1
0
BLOCK_RECORD
5
1F
100
AcDbSymbolTableRecord
100
AcDbBlockTableRecord
2
*MODEL_SPACE
0
BLOCK_RECORD
5
1B
100
AcDbSymbolTableRecord
100
AcDbBlockTableRecord
2
*PAPER_SPACE
0
ENDTAB
0
ENDSEC
0
SECTION
2
BLOCKS
0
BLOCK
5
20
100
AcDbEntity
100
AcDbBlockBegin
2
*MODEL_SPACE
0
ENDBLK
5
21
100
AcDbEntity
100
AcDbBlockEnd
0
BLOCK
5
1C
100
AcDbEntity
100
AcDbBlockBegin
2
*PAPER_SPACE
0
ENDBLK
5
1D
100
AcDbEntity
100
AcDbBlockEnd
0
ENDSEC
0
SECTION
2
ENTITIES
0
CIRCLE
5
100
100
AcDbEntity
8
0
100
AcDbCircle
10
144.99999998167266
20
133.76816841804654
30
0
40
1.5500000000000003
210
0
220
-0
230
1
0
CIRCLE
5
101
100
AcDbEntity
8
0
100
AcDbCircle
10
145.00000000000006
20
143.76816841804654
30
0
40
1.5500000000000025
210
0
220
-0
230
1
0
ARC
5
102
100
AcDbEntity
8
0
100
AcDbCircle
10
150.6568542494924
20
208.05241596134974
30
0
40
1.600000000000007
210
0
220
-0
230
1
100
AcDbArc
50
44.999999999999275
51
225.00000000000071
0
LINE
5
103
100
AcDbEntity
8
0
100
AcDbLine
10
151.7882250993909
20
209.18378681124821
30
0
11
152.84888527117073
21
208.12312663946838
31
0
0
ARC
5
104
100
AcDbEntity
8
0
100
AcDbCircle
10
151.71751442127231
20
206.99175578956988
30
0
40
1.600000000000007
210
0
220
0
230
1
100
AcDbArc
50
-135
51
45.000000000002153
0
LINE
5
105
100
AcDbEntity
8
0
100
AcDbLine
10
150.58614357137384
20
205.86038493967141
30
0
11
149.52548339959392
21
206.92104511145124
31
0
0
CIRCLE
5
106
100
AcDbEntity
8
0
100
AcDbCircle
10
145.00000000000006
20
213.70927021084208
30
0
40
3.4999999999999969
210
-0
220
0
230
1
0
ARC
5
107
100
AcDbEntity
8
0
100
AcDbCircle
10
138.28248557872786
20
220.42678463211431
30
0
40
1.600000000000007
210
0
220
-0
230
1
100
AcDbArc
50
45
51
225
0
LINE
5
108
100
AcDbEntity
8
0
100
AcDbLine
10
139.41385642862633
20
221.55815548201278
30
0
11
140.47451660040613
21
220.49749531023295
31
0
0
ARC
5
109
100
AcDbEntity
8
0
100
AcDbCircle
10
139.34314575050769
20
219.36612446033448
30
0
40
1.600000000000007
210
0
220
0
230
1
100
AcDbArc
50
-134.99999999999929
51
45.000000000000718
0
LINE
5
110
100
AcDbEntity
8
0
100
AcDbLine
10
138.21177490060921
20
218.23475361043597
30
0
11
137.15111472882938
21
219.29541378221583
31
0
0
ARC
5
111
100
AcDbEntity
8
0
100
AcDbCircle
10
150.65685424949243
20
219.36612446033448
30
0
40
1.600000000000007
210
0
220
0
230
1
100
AcDbArc
50
135
51
314.99999999999932
0
LINE
5
112
100
AcDbEntity
8
0
100
AcDbLine
10
149.52548339959395
20
220.49749531023295
30
0
11
150.58614357137378
21
221.55815548201278
31
0
0
ARC
5
113
100
AcDbEntity
8
0
100
AcDbCircle
10
151.71751442127226
20
220.42678463211431
30
0
40
1.600000000000007
210
-0
220
0
230
1
100
AcDbArc
50
-45
51
135
0
LINE
5
114
100
AcDbEntity
8
0
100
AcDbLine
10
152.84888527117073
20
219.29541378221583
30
0
11
151.7882250993909
21
218.23475361043597
31
0
0
LWPOLYLINE
5
115
100
AcDbEntity
8
0
100
AcDbPolyline
90
16
70
1
43
0.0
10
140.00000000000006
20
133.76859652330526
10
140.00000000000006
20
201.84854876459841
42
0.19891236737965648
10
132.6776695296638
20
219.52621829426209
10
130.78715369815041
20
221.41673412577546
42
-0.99999999999999989
10
137.29253608506664
20
227.9221165126917
10
141.81801948466057
20
223.39663311309781
42
0.41421356237309265
10
148.18198051533952
20
223.39663311309781
10
152.70746391493341
20
227.9221165126917
42
-0.99999999999999989
10
159.21284630184965
20
221.41673412577546
10
154.68736290225579
20
216.89125072618157
42
0.41421356237309914
10
154.68736290225576
20
210.52728969550262
10
154.97020561473036
20
210.24444698302798
42
-0.46863797583154415
10
154.32706467210431
20
203.20358373851647
42
0.24672630324880007
10
150.00000000000006
20
194.96842710579159
10
150.00000000000006
20
136.26816841804654
10
149.99999998167272
20
133.76816841803966
42
-1.0000428114416344
0
ENDSEC
0
SECTION
2
OBJECTS
0
DICTIONARY
5
C
100
AcDbDictionary
3
ACAD_GROUP
350
D
3
ACAD_MLINESTYLE
350
17
0
DICTIONARY
5
D
100
AcDbDictionary
0
DICTIONARY
5
1A
330
C
100
AcDbDictionary
0
DICTIONARY
5
17
100
AcDbDictionary
0
ENDSEC
0
EOF
