0
SECTION
2
HEADER
9
$INSUNITS
70
4
9
$ACADVER
1
AC1014
9
$HANDSEED
5
FFFF
0
ENDSEC
0
SECTION
2
TABLES
0
TABLE
2
VPORT
5
8
100
AcDbSymbolTable
0
ENDTAB
0
TABLE
2
LTYPE
5
5
100
AcDbSymbolTable
0
LTYPE
5
14
100
AcDbSymbolTableRecord
100
AcDbLinetypeTableRecord
2
BYBLOCK
70
0
0
LTYPE
5
15
100
AcDbSymbolTableRecord
100
AcDbLinetypeTableRecord
2
BYLAYER
70
0
0
ENDTAB
0
TABLE
2
LAYER
5
2
100
AcDbSymbolTable
70
2
0
LAYER
5
50
100
AcDbSymbolTableRecord
100
AcDbLayerTableRecord
2
0
70
0
6
CONTINUOUS
0
ENDTAB
0
TABLE
2
STYLE
5
3
100
AcDbSymbolTable
70
1
0
STYLE
5
11
100
AcDbSymbolTableRecord
100
AcDbTextStyleTableRecord
2
STANDARD
70
0
0
ENDTAB
0
TABLE
2
VIEW
5
6
100
AcDbSymbolTable
70
0
0
ENDTAB
0
TABLE
2
UCS
5
7
100
AcDbSymbolTable
70
0
0
ENDTAB
0
TABLE
2
APPID
5
9
100
AcDbSymbolTable
70
2
0
APPID
5
12
100
AcDbSymbolTableRecord
100
AcDbRegAppTableRecord
2
ACAD
70
0
0
ENDTAB
0
TABLE
2
DIMSTYLE
5
A
100
AcDbSymbolTable
70
1
0
ENDTAB
0
TABLE
2
BLOCK_RECORD
5
1
100
AcDbSymbolTable
70
1
0
BLOCK_RECORD
5
1F
100
AcDbSymbolTableRecord
100
AcDbBlockTableRecord
2
*MODEL_SPACE
0
BLOCK_RECORD
5
1B
100
AcDbSymbolTableRecord
100
AcDbBlockTableRecord
2
*PAPER_SPACE
0
ENDTAB
0
ENDSEC
0
SECTION
2
BLOCKS
0
BLOCK
5
20
100
AcDbEntity
100
AcDbBlockBegin
2
*MODEL_SPACE
0
ENDBLK
5
21
100
AcDbEntity
100
AcDbBlockEnd
0
BLOCK
5
1C
100
AcDbEntity
100
AcDbBlockBegin
2
*PAPER_SPACE
0
ENDBLK
5
1D
100
AcDbEntity
100
AcDbBlockEnd
0
ENDSEC
0
SECTION
2
ENTITIES
0
ARC
5
100
100
AcDbEntity
8
0
100
AcDbCircle
10
-160.65685425913841
20
136.33144828908112
30
0
40
1.5999999999999943
210
0
220
0
230
1
100
AcDbArc
50
-44.999999986864466
51
135.00000001313558
0
LINE
5
101
100
AcDbEntity
8
0
100
AcDbLine
10
-159.52548340898056
20
135.20007743944203
30
0
11
-160.58614358051727
21
134.13941726741908
31
0
0
ARC
5
102
100
AcDbEntity
8
0
100
AcDbCircle
10
-161.71751443067512
20
135.27078811705817
30
0
40
1.600000000000007
210
0
220
0
230
1
100
AcDbArc
50
135.00000001313626
51
315.00000001313555
0
LINE
5
103
100
AcDbEntity
8
0
100
AcDbLine
10
-162.848885280833
20
136.40215896669727
30
0
11
-161.78822510929626
21
137.46281913872022
31
0
0
LWPOLYLINE
5
104
100
AcDbEntity
8
0
100
AcDbPolyline
90
4
70
1
43
0.0
10
-162.84888528339425
20
147.57444610944469
42
-0.99999999999999989
10
-160.58614358411606
20
149.83718780976039
10
-159.52548341209308
20
148.77652763822377
42
-0.99999999999999989
10
-161.78822511137128
20
146.51378593790804
0
ARC
5
105
100
AcDbEntity
8
0
100
AcDbCircle
10
-149.34314576015362
20
136.33144829167495
30
0
40
1.600000000000007
210
0
220
-0
230
1
100
AcDbArc
50
45.000000013135555
51
225.00000001313626
0
LINE
5
106
100
AcDbEntity
8
0
100
AcDbLine
10
-148.21177491051452
20
137.4628191418328
30
0
11
-147.1511147384916
21
136.40215897029617
31
0
0
ARC
5
107
100
AcDbEntity
8
0
100
AcDbCircle
10
-148.28248558813064
20
135.27078812013829
30
0
40
1.600000000000007
210
0
220
0
230
1
100
AcDbArc
50
-134.99999998686374
51
45.000000013137708
0
LINE
5
108
100
AcDbEntity
8
0
100
AcDbLine
10
-149.41385643776974
20
134.13941726998041
30
0
11
-150.47451660979272
21
135.20007744151707
31
0
0
CIRCLE
5
109
100
AcDbEntity
8
0
100
AcDbCircle
10
-154.99999999490817
20
72.047200747074839
30
0
40
1.5500000000000025
210
0
220
-0
230
1
0
CIRCLE
5
110
100
AcDbEntity
8
0
100
AcDbCircle
10
-155.00000001094295
20
141.98830253987043
30
0
40
3.4999999999999964
210
0
220
-0
230
1
0
CIRCLE
5
111
100
AcDbEntity
8
0
100
AcDbCircle
10
-155.00000001094298
20
62.047200747074882
30
0
40
1.5500000000000003
210
0
220
-0
230
1
0
LWPOLYLINE
5
112
100
AcDbEntity
8
0
100
AcDbPolyline
90
3
70
1
43
0.0
10
-145.98049913315555
20
137.90723617786881
10
-145.9598124667354
20
137.89114654843851
42
-0.0013774045421439424
10
-145.98151089795184
20
137.90811924746311
42
-9.5924075647183923e-05
0
ARC
5
113
100
AcDbEntity
8
0
100
AcDbCircle
10
-149.34314576274747
20
147.64515679065968
30
0
40
1.600000000000007
210
0
220
0
230
1
100
AcDbArc
50
135.00000001313484
51
315.00000001313481
0
LINE
5
114
100
AcDbEntity
8
0
100
AcDbLine
10
-150.47451661290529
20
148.77652764029878
30
0
11
-149.41385644136864
21
149.83718781232173
31
0
0
ARC
5
115
100
AcDbEntity
8
0
100
AcDbCircle
10
-148.28248559121081
20
148.70581696268269
30
0
40
1.6000000000000194
210
0
220
0
230
1
100
AcDbArc
50
-44.999999986864466
51
135.00000001313626
0
LINE
5
116
100
AcDbEntity
8
0
100
AcDbLine
10
-147.15111474105294
20
147.57444611304356
30
0
11
-148.21177491258962
21
146.51378594102056
31
0
0
LINE
5
117
100
AcDbEntity
8
0
100
AcDbLine
10
-159.99999999613803
20
77.411581500876451
30
0
11
-159.99999999261564
21
62.047628851167467
31
0
0
ARC
5
118
100
AcDbEntity
8
0
100
AcDbCircle
10
-155.00000001094298
20
62.047200747074882
30
0
40
4.9999999999999805
210
0
220
0
230
1
100
AcDbArc
50
-180.00490571153111
51
0
0
LINE
5
119
100
AcDbEntity
8
0
100
AcDbLine
10
-150.00000001094298
20
62.047200748221172
30
0
11
-149.99999999318874
21
64.547200748221172
31
0
0
LINE
5
120
100
AcDbEntity
8
0
100
AcDbLine
10
-149.99999999318874
20
64.547200748221172
30
0
11
-149.99999999356879
21
77.597200761520668
31
0
0
LINE
5
121
100
AcDbEntity
8
0
100
AcDbLine
10
-149.99999999356879
20
77.597200761520668
30
0
11
-150.0000000026119
21
82.257078379199555
31
0
0
ARC
5
122
100
AcDbEntity
8
0
100
AcDbCircle
10
-148.50000000261184
20
82.257078378855624
30
0
40
1.5000000000000258
210
0
220
0
230
1
100
AcDbArc
50
119.99999998686472
51
180
0
ARC
5
123
100
AcDbEntity
8
0
100
AcDbCircle
10
-150.00000000201626
20
84.855154590552857
30
0
40
1.5000000000000258
210
-0
220
0
230
1
100
AcDbArc
50
-60.00000001313461
51
59.999999986864083
0
ARC
5
124
100
AcDbEntity
8
0
100
AcDbCircle
10
-148.50000000142057
20
87.453230801562256
30
0
40
1.499999999999968
210
0
220
0
230
1
100
AcDbArc
50
180
51
239.99999998686232
0
LINE
5
125
100
AcDbEntity
8
0
100
AcDbLine
10
-150.00000000142055
20
87.453230801906145
30
0
11
-150.0000000011913
21
88.453230801906173
31
0
0
ARC
5
126
100
AcDbEntity
8
0
100
AcDbCircle
10
-148.50000000119135
20
88.453230801562313
30
0
40
1.5000000000000016
210
0
220
0
230
1
100
AcDbArc
50
119.99999998686407
51
180
0
ARC
5
127
100
AcDbEntity
8
0
100
AcDbCircle
10
-150.00000000059566
20
91.051307013259475
30
0
40
1.4999999999999352
210
-0
220
0
230
1
100
AcDbArc
50
-60.000000013136336
51
59.999999986863138
0
ARC
5
128
100
AcDbEntity
8
0
100
AcDbCircle
10
-148.50000000000003
20
93.649383224268959
30
0
40
1.5000000000000036
210
0
220
0
230
1
100
AcDbArc
50
180
51
239.99999998686673
0
LINE
5
129
100
AcDbEntity
8
0
100
AcDbLine
10
-150.00000000000003
20
93.649383224612862
30
0
11
-150.00000000000003
21
105.64938322461285
31
0
0
ARC
5
130
100
AcDbEntity
8
0
100
AcDbCircle
10
-148.49999999999994
20
105.64938322495675
30
0
40
1.5000000026118763
210
0
220
0
230
1
100
AcDbArc
50
120.00000018593464
51
180
0
ARC
5
131
100
AcDbEntity
8
0
100
AcDbCircle
10
-150.00000000059561
20
108.24745943596618
30
0
40
1.4999999973881484
210
-0
220
0
230
1
100
AcDbArc
50
-60.000000159662505
51
60.00000018593451
0
ARC
5
132
100
AcDbEntity
8
0
100
AcDbCircle
10
-148.50000000119135
20
110.84553564766338
30
0
40
1.4999999999999147
210
0
220
0
230
1
100
AcDbArc
50
180
51
239.99999984033909
0
LINE
5
133
100
AcDbEntity
8
0
100
AcDbLine
10
-150.00000000119127
20
110.84553564731954
30
0
11
-150.00000000142049
21
111.84553564731949
31
0
0
ARC
5
134
100
AcDbEntity
8
0
100
AcDbCircle
10
-148.50000000142063
20
111.84553564766348
30
0
40
1.4999999999999041
210
0
220
0
230
1
100
AcDbArc
50
120.00000001313326
51
180
0
ARC
5
135
100
AcDbEntity
8
0
100
AcDbCircle
10
-150.00000000201615
20
114.44361185867282
30
0
40
1.4999999999999638
210
-0
220
0
230
1
100
AcDbArc
50
-59.999999986864189
51
60.000000013135534
0
ARC
5
136
100
AcDbEntity
8
0
100
AcDbCircle
10
-148.50000000261176
20
117.04168807037007
30
0
40
1.5000000000000036
210
0
220
0
230
1
100
AcDbArc
50
180
51
240.00000001313552
0
LINE
5
137
100
AcDbEntity
8
0
100
AcDbLine
10
-150.00000000261176
20
117.0416880700262
30
0
11
-150.00000000403452
21
123.24745943596622
31
0
0
ARC
5
138
100
AcDbEntity
8
0
100
AcDbCircle
10
-140.00000000664639
20
123.24745943825886
30
0
40
10.000000000000028
210
0
220
0
230
1
100
AcDbArc
50
124.56171039425546
51
180
0
ARC
5
139
100
AcDbEntity
8
0
100
AcDbCircle
10
-148.28248558813064
20
135.27078812013829
30
0
40
4.5999999999999313
210
-0
220
0
230
1
100
AcDbArc
50
-55.438289605744721
51
45.000000013135924
0
LINE
5
140
100
AcDbEntity
8
0
100
AcDbLine
10
-145.02979439541826
20
138.52347931434213
30
0
11
-145.31263710795773
21
138.8063220267519
31
0
0
ARC
5
141
100
AcDbEntity
8
0
100
AcDbCircle
10
-142.13065659334777
20
141.98830254282089
30
0
40
4.4999999999999911
210
0
220
0
230
1
100
AcDbArc
50
135.00000001313614
51
225.00000001313586
0
LINE
5
142
100
AcDbEntity
8
0
100
AcDbLine
10
-145.31263710941676
20
145.17028305743082
30
0
11
-140.78715371086034
21
149.69576645806225
31
0
0
ARC
5
143
100
AcDbEntity
8
0
100
AcDbCircle
10
-144.03984490506414
20
152.94845765077466
30
0
40
4.599999999999989
210
-0
220
0
230
1
100
AcDbArc
50
-44.999999986864566
51
135.00000001313569
0
LINE
5
144
100
AcDbEntity
8
0
100
AcDbLine
10
-147.29253609926798
20
156.20114884348706
30
0
11
-151.81801949782431
21
151.67566544285566
31
0
0
ARC
5
145
100
AcDbEntity
8
0
100
AcDbCircle
10
-155.00000001389336
20
154.85764595746562
30
0
40
4.500000000000016
210
0
220
0
230
1
100
AcDbArc
50
225.00000001313509
51
315.0000000131364
0
LINE
5
146
100
AcDbEntity
8
0
100
AcDbLine
10
-158.18198052850337
20
151.67566544139666
30
0
11
-162.70746392913478
21
156.20114883995302
31
0
0
ARC
5
147
100
AcDbEntity
8
0
100
AcDbCircle
10
-165.96015512184715
20
152.94845764574919
30
0
40
4.5999999999999757
210
0
220
-0
230
1
100
AcDbArc
50
45.000000013135924
51
225.00000001313543
0
LINE
5
148
100
AcDbEntity
8
0
100
AcDbLine
10
-169.21284631455956
20
149.69576645154538
30
0
11
-164.68736291392815
21
145.17028305298894
31
0
0
ARC
5
149
100
AcDbEntity
8
0
100
AcDbCircle
10
-167.86934342853806
20
141.98830253691997
30
0
40
4.4999999999999911
210
-0
220
0
230
1
100
AcDbArc
50
-44.99999998686441
51
45.000000013136123
0
LINE
5
150
100
AcDbEntity
8
0
100
AcDbLine
10
-164.6873629124691
20
138.80632202231001
30
0
11
-164.9702056248789
21
138.52347930977058
31
0
0
ARC
5
151
100
AcDbEntity
8
0
100
AcDbCircle
10
-161.71751443067512
20
135.27078811705817
30
0
40
4.5999999999999508
210
0
220
0
230
1
100
AcDbArc
50
135.00000001313518
51
235.43828963201571
0
ARC
5
152
100
AcDbEntity
8
0
100
AcDbCircle
10
-170.00000000664647
20
123.24745943138099
30
0
40
10.000000000000071
210
0
220
-0
230
1
100
AcDbArc
50
0
51
55.438289632016016
0
LINE
5
153
100
AcDbEntity
8
0
100
AcDbLine
10
-160.00000000371534
20
123.24745943367373
30
0
11
-160.00000000229255
21
117.04168806773353
31
0
0
ARC
5
154
100
AcDbEntity
8
0
100
AcDbCircle
10
-161.50000000261184
20
117.04168806738963
30
0
40
1.4999999999999882
210
0
220
0
230
1
100
AcDbArc
50
-59.999999986863784
51
0
0
ARC
5
155
100
AcDbEntity
8
0
100
AcDbCircle
10
-160.00000000201618
20
114.44361185638019
30
0
40
1.5000000000000366
210
0
220
0
230
1
100
AcDbArc
50
120.00000001313565
51
240.00000001313526
0
ARC
5
156
100
AcDbEntity
8
0
100
AcDbCircle
10
-161.50000000142055
20
111.84553564468297
30
0
40
1.5000000000000213
210
0
220
-0
230
1
100
AcDbArc
50
0
51
60.000000013136209
0
LINE
5
157
100
AcDbEntity
8
0
100
AcDbLine
10
-160.00000000142052
20
111.84553564502687
30
0
11
-160.0000000011913
21
110.84553564502691
31
0
0
ARC
5
158
100
AcDbEntity
8
0
100
AcDbCircle
10
-161.50000000119127
20
110.84553564468303
30
0
40
1.4999999999999727
210
0
220
0
230
1
100
AcDbArc
50
-59.999999986864189
51
0
0
ARC
5
159
100
AcDbEntity
8
0
100
AcDbCircle
10
-160.00000000059558
20
108.24745943367358
30
0
40
1.5000000000000853
210
0
220
0
230
1
100
AcDbArc
50
120.00000001313701
51
240.00000001313552
0
ARC
5
160
100
AcDbEntity
8
0
100
AcDbCircle
10
-161.50000000000011
20
105.64938322197632
30
0
40
1.5000000000000924
210
0
220
0
230
1
100
AcDbArc
50
0
51
60.0000000131311
0
LINE
5
161
100
AcDbEntity
8
0
100
AcDbLine
10
-160.00000000000003
20
105.64938322197632
30
0
11
-160.00000000114639
21
93.649383227249416
31
0
0
ARC
5
162
100
AcDbEntity
8
0
100
AcDbCircle
10
-161.50000000000006
20
93.649383227249402
30
0
40
1.5000000000000104
210
0
220
0
230
1
100
AcDbArc
50
-60.000000013134958
51
0
0
ARC
5
163
100
AcDbEntity
8
0
100
AcDbCircle
10
-160.00000000059566
20
91.05130701555214
30
0
40
1.5000000000000566
210
0
220
0
230
1
100
AcDbArc
50
119.99999998686366
51
239.99999998686354
0
ARC
5
164
100
AcDbEntity
8
0
100
AcDbCircle
10
-161.50000000119127
20
88.453230804542798
30
0
40
1.4999999999999503
210
0
220
0
230
1
100
AcDbArc
50
0
51
59.999999986864594
0
LINE
5
165
100
AcDbEntity
8
0
100
AcDbLine
10
-160.00000000119132
20
88.453230804198853
30
0
11
-160.00000000142057
21
87.453230804198824
31
0
0
ARC
5
166
100
AcDbEntity
8
0
100
AcDbCircle
10
-161.50000000142057
20
87.453230804542727
30
0
40
1.4999999999999925
210
0
220
0
230
1
100
AcDbArc
50
299.99999998686405
51
360
0
ARC
5
167
100
AcDbEntity
8
0
100
AcDbCircle
10
-160.00000000201624
20
84.855154592845537
30
0
40
1.4999999999999925
210
0
220
0
230
1
100
AcDbArc
50
119.99999998686407
51
239.99999998686474
0
ARC
5
168
100
AcDbEntity
8
0
100
AcDbCircle
10
-161.50000000261187
20
82.257078381836124
30
0
40
1.4999999999999503
210
0
220
0
230
1
100
AcDbArc
50
0
51
59.999999986863799
0
LINE
5
169
100
AcDbEntity
8
0
100
AcDbLine
10
-160.00000000261193
20
82.257078381492207
30
0
11
-159.99999999613803
21
77.411581500876451
31
0
0
ENDSEC
0
SECTION
2
OBJECTS
0
DICTIONARY
5
C
100
AcDbDictionary
3
ACAD_GROUP
350
D
3
ACAD_MLINESTYLE
350
17
0
DICTIONARY
5
D
100
AcDbDictionary
0
DICTIONARY
5
1A
330
C
100
AcDbDictionary
0
DICTIONARY
5
17
100
AcDbDictionary
0
ENDSEC
0
EOF
