0
SECTION
2
HEADER
9
$INSUNITS
70
4
9
$ACADVER
1
AC1014
9
$HANDSEED
5
FFFF
0
ENDSEC
0
SECTION
2
TABLES
0
TABLE
2
VPORT
5
8
100
AcDbSymbolTable
0
ENDTAB
0
TABLE
2
LTYPE
5
5
100
AcDbSymbolTable
0
LTYPE
5
14
100
AcDbSymbolTableRecord
100
AcDbLinetypeTableRecord
2
BYBLOCK
70
0
0
LTYPE
5
15
100
AcDbSymbolTableRecord
100
AcDbLinetypeTableRecord
2
BYLAYER
70
0
0
ENDTAB
0
TABLE
2
LAYER
5
2
100
AcDbSymbolTable
70
2
0
LAYER
5
50
100
AcDbSymbolTableRecord
100
AcDbLayerTableRecord
2
0
70
0
6
CONTINUOUS
0
ENDTAB
0
TABLE
2
STYLE
5
3
100
AcDbSymbolTable
70
1
0
STYLE
5
11
100
AcDbSymbolTableRecord
100
AcDbTextStyleTableRecord
2
STANDARD
70
0
0
ENDTAB
0
TABLE
2
VIEW
5
6
100
AcDbSymbolTable
70
0
0
ENDTAB
0
TABLE
2
UCS
5
7
100
AcDbSymbolTable
70
0
0
ENDTAB
0
TABLE
2
APPID
5
9
100
AcDbSymbolTable
70
2
0
APPID
5
12
100
AcDbSymbolTableRecord
100
AcDbRegAppTableRecord
2
ACAD
70
0
0
ENDTAB
0
TABLE
2
DIMSTYLE
5
A
100
AcDbSymbolTable
70
1
0
ENDTAB
0
TABLE
2
BLOCK_RECORD
5
1
100
AcDbSymbolTable
70
1
0
BLOCK_RECORD
5
1F
100
AcDbSymbolTableRecord
100
AcDbBlockTableRecord
2
*MODEL_SPACE
0
BLOCK_RECORD
5
1B
100
AcDbSymbolTableRecord
100
AcDbBlockTableRecord
2
*PAPER_SPACE
0
ENDTAB
0
ENDSEC
0
SECTION
2
BLOCKS
0
BLOCK
5
20
100
AcDbEntity
100
AcDbBlockBegin
2
*MODEL_SPACE
0
ENDBLK
5
21
100
AcDbEntity
100
AcDbBlockEnd
0
BLOCK
5
1C
100
AcDbEntity
100
AcDbBlockBegin
2
*PAPER_SPACE
0
ENDBLK
5
1D
100
AcDbEntity
100
AcDbBlockEnd
0
ENDSEC
0
SECTION
2
ENTITIES
0
ARC
5
100
100
AcDbEntity
8
0
100
AcDbCircle
10
-3.0468750000000027
20
-5.7416506976979154
30
0
40
1.5000000000000049
210
0
220
0
230
1
100
AcDbArc
50
-117.95318688338098
51
62.046813116619056
0
ARC
5
101
100
AcDbEntity
8
0
100
AcDbCircle
10
1.4432899320127035e-14
20
1.2212453270876722e-14
30
0
40
8.0000000000000178
210
0
220
0
230
1
100
AcDbArc
50
207.95318688338116
51
242.04681311661884
0
ARC
5
102
100
AcDbEntity
8
0
100
AcDbCircle
10
-5.7416506976979171
20
-3.046875
30
0
40
1.4999999999999991
210
0
220
-0
230
1
100
AcDbArc
50
27.953186883381143
51
207.95318688338108
0
ARC
5
103
100
AcDbEntity
8
0
100
AcDbCircle
10
1.4432899320127035e-14
20
1.2212453270876722e-14
30
0
40
5.0000000000000178
210
0
220
0
230
1
100
AcDbArc
50
207.95318688338116
51
242.04681311661869
0
ARC
5
104
100
AcDbEntity
8
0
100
AcDbCircle
10
5.7416506976979171
20
-3.046875
30
0
40
1.5000000000000011
210
0
220
0
230
1
100
AcDbArc
50
-27.953186883381015
51
152.04681311661898
0
ARC
5
105
100
AcDbEntity
8
0
100
AcDbCircle
10
1.4432899320127035e-14
20
1.2212453270876722e-14
30
0
40
8.0000000000000018
210
0
220
0
230
1
100
AcDbArc
50
297.95318688338102
51
332.04681311661875
0
ARC
5
106
100
AcDbEntity
8
0
100
AcDbCircle
10
3.0468749999999978
20
-5.7416506976979154
30
0
40
1.4999999999999991
210
0
220
0
230
1
100
AcDbArc
50
117.95318688338106
51
297.95318688338119
0
ARC
5
107
100
AcDbEntity
8
0
100
AcDbCircle
10
1.4432899320127035e-14
20
1.2212453270876722e-14
30
0
40
5
210
-0
220
0
230
1
100
AcDbArc
50
297.95318688338097
51
332.04681311661858
0
ARC
5
108
100
AcDbEntity
8
0
100
AcDbCircle
10
-5.7416506976979198
20
3.046875
30
0
40
1.5000000000000036
210
0
220
0
230
1
100
AcDbArc
50
152.04681311661892
51
332.04681311661892
0
ARC
5
109
100
AcDbEntity
8
0
100
AcDbCircle
10
1.4432899320127035e-14
20
1.2212453270876722e-14
30
0
40
7.9999999999999947
210
0
220
0
230
1
100
AcDbArc
50
117.95318672329876
51
152.04681311661901
0
ARC
5
110
100
AcDbEntity
8
0
100
AcDbCircle
10
-3.0468750000000044
20
5.7416506976979171
30
0
40
1.5000000000000011
210
-0
220
0
230
1
100
AcDbArc
50
-62.046813116618836
51
117.95318688338119
0
ARC
5
111
100
AcDbEntity
8
0
100
AcDbCircle
10
1.4432899320127035e-14
20
1.2212453270876722e-14
30
0
40
4.9999999999999956
210
0
220
0
230
1
100
AcDbArc
50
117.95318688338138
51
152.04681311661909
0
ARC
5
112
100
AcDbEntity
8
0
100
AcDbCircle
10
1.4432899320127035e-14
20
1.2212453270876722e-14
30
0
40
7.9999999999999787
210
0
220
-0
230
1
100
AcDbArc
50
27.953186883381129
51
62.046813116618907
0
ARC
5
113
100
AcDbEntity
8
0
100
AcDbCircle
10
5.7416506976979154
20
3.046875
30
0
40
1.5000000000000002
210
0
220
0
230
1
100
AcDbArc
50
-152.04681311661889
51
27.95318688338125
0
ARC
5
114
100
AcDbEntity
8
0
100
AcDbCircle
10
1.4432899320127035e-14
20
1.2212453270876722e-14
30
0
40
4.9999999999999787
210
0
220
-0
230
1
100
AcDbArc
50
27.95318688338109
51
62.046813372751032
0
ARC
5
115
100
AcDbEntity
8
0
100
AcDbCircle
10
3.0468749999999991
20
5.7416506976979171
30
0
40
1.5000000000000018
210
0
220
-0
230
1
100
AcDbArc
50
62.046813116618779
51
242.04681311661884
0
CIRCLE
5
116
100
AcDbEntity
8
0
100
AcDbCircle
10
1.4432899320127035e-14
20
1.2212453270876722e-14
30
0
40
2.5
210
0
220
0
230
1
0
CIRCLE
5
117
100
AcDbEntity
8
0
100
AcDbCircle
10
-14.250000000000004
20
43.249999999999993
30
0
40
1.6000000000000014
210
0
220
-0
230
1
0
ARC
5
118
100
AcDbEntity
8
0
100
AcDbCircle
10
-14.250000000000004
20
-38.25
30
0
40
4.2499999999999973
210
0
220
0
230
1
100
AcDbArc
50
218.78944029428675
51
270
0
LINE
5
119
100
AcDbEntity
8
0
100
AcDbLine
10
-14.250000000000004
20
-42.5
30
0
11
14.250000000000004
21
-42.5
31
0
0
ARC
5
120
100
AcDbEntity
8
0
100
AcDbCircle
10
14.250000000000004
20
-38.25
30
0
40
4.2500000000000027
210
-0
220
0
230
1
100
AcDbArc
50
270
51
321.21055970571331
0
ARC
5
121
100
AcDbEntity
8
0
100
AcDbCircle
10
19.901037409552991
20
-42.791836214113452
30
0
40
2.9999999999999893
210
0
220
-0
230
1
100
AcDbArc
50
90
51
141.21055970571351
0
LINE
5
122
100
AcDbEntity
8
0
100
AcDbLine
10
19.901037409552991
20
-39.791836214113459
30
0
11
27.060317055421585
21
-39.791836214113459
31
0
0
ARC
5
123
100
AcDbEntity
8
0
100
AcDbCircle
10
27.060317055421585
20
-34.791836214113474
30
0
40
4.9999999999999911
210
-0
220
0
230
1
100
AcDbArc
50
-90
51
37.874983651098198
0
LINE
5
124
100
AcDbEntity
8
0
100
AcDbLine
10
31.007078142303214
20
-31.722133146538873
30
0
11
25.212955772326865
21
-24.272547242283551
31
0
0
ARC
5
125
100
AcDbEntity
8
0
100
AcDbCircle
10
41.000000119853581
20
-11.993734971985063
30
0
40
20.000000000000206
210
0
220
0
230
1
100
AcDbArc
50
180
51
217.87498365109803
0
LINE
5
126
100
AcDbEntity
8
0
100
AcDbLine
10
21.000000119853375
20
-11.993734761205651
30
0
11
21.000000246255045
21
-4.9885873210087084e-08
31
0
0
LINE
5
127
100
AcDbEntity
8
0
100
AcDbLine
10
21.000000246255045
20
-4.9885873210087084e-08
30
0
11
21.000000119853382
21
11.993734761205648
31
0
0
ARC
5
128
100
AcDbEntity
8
0
100
AcDbCircle
10
41.000000119853524
20
11.993734971985084
30
0
40
20.000000000000142
210
0
220
0
230
1
100
AcDbArc
50
142.12501634890194
51
180
0
LINE
5
129
100
AcDbEntity
8
0
100
AcDbLine
10
25.212955772326858
20
24.272547242283544
30
0
11
31.007078142303207
21
31.722133146538873
31
0
0
ARC
5
130
100
AcDbEntity
8
0
100
AcDbCircle
10
27.060317055421585
20
34.791836214113474
30
0
40
4.9999999999999938
210
-0
220
0
230
1
100
AcDbArc
50
-37.874983651098241
51
90
0
LINE
5
131
100
AcDbEntity
8
0
100
AcDbLine
10
27.060317055421585
20
39.791836214113466
30
0
11
21.656583128864085
21
39.791836214113474
31
0
0
ARC
5
132
100
AcDbEntity
8
0
100
AcDbCircle
10
21.656583128864092
20
42.791836214113488
30
0
40
3.0000000000000142
210
0
220
0
230
1
100
AcDbArc
50
188.77479600448478
51
269.99999999999983
0
LINE
5
133
100
AcDbEntity
8
0
100
AcDbLine
10
18.691696379311814
20
42.334182892996495
30
0
11
18.450256228532385
21
43.898342204915686
31
0
0
ARC
5
134
100
AcDbEntity
8
0
100
AcDbCircle
10
14.250000000000004
20
43.249999999999993
30
0
40
4.2500000000000018
210
0
220
-0
230
1
100
AcDbArc
50
8.774796004484184
51
90.09641812406764
0
LINE
5
135
100
AcDbEntity
8
0
100
AcDbLine
10
14.242848034923675
20
47.5
30
0
11
-14.250000000000004
21
47.5
31
0
0
ARC
5
136
100
AcDbEntity
8
0
100
AcDbCircle
10
-14.250000000000004
20
43.249999999999993
30
0
40
4.2500000000000071
210
0
220
-0
230
1
100
AcDbArc
50
90
51
171.22520399551584
0
LINE
5
137
100
AcDbEntity
8
0
100
AcDbLine
10
-18.450256228532393
20
43.898342204915686
30
0
11
-18.691696379311814
21
42.334182892996502
31
0
0
ARC
5
138
100
AcDbEntity
8
0
100
AcDbCircle
10
-21.656583128864085
20
42.791836214113474
30
0
40
2.9999999999999982
210
0
220
0
230
1
100
AcDbArc
50
270.00000000000011
51
351.22520399551564
0
LINE
5
139
100
AcDbEntity
8
0
100
AcDbLine
10
-21.656583128864078
20
39.791836214113474
30
0
11
-27.060317055421585
21
39.791836214113466
31
0
0
ARC
5
140
100
AcDbEntity
8
0
100
AcDbCircle
10
-27.060317055421585
20
34.791836214113474
30
0
40
4.9999999999999956
210
0
220
-0
230
1
100
AcDbArc
50
90
51
217.8749836510982
0
LINE
5
141
100
AcDbEntity
8
0
100
AcDbLine
10
-31.007078142303214
20
31.722133146538873
30
0
11
-25.212955772326865
21
24.272547242283551
31
0
0
ARC
5
142
100
AcDbEntity
8
0
100
AcDbCircle
10
-41.000000119853524
20
11.993734971985086
30
0
40
20.000000000000142
210
0
220
0
230
1
100
AcDbArc
50
0
51
37.874983651098084
0
LINE
5
143
100
AcDbEntity
8
0
100
AcDbLine
10
-21.000000119853386
20
11.993734761205648
30
0
11
-21.000000246255048
21
-4.9885873210087084e-08
31
0
0
LINE
5
144
100
AcDbEntity
8
0
100
AcDbLine
10
-21.000000246255048
20
-4.9885873210087084e-08
30
0
11
-21.000000119853386
21
-11.993734761205639
31
0
0
ARC
5
145
100
AcDbEntity
8
0
100
AcDbCircle
10
-41.000000119853546
20
-11.993734971985077
30
0
40
20.00000000000016
210
0
220
0
230
1
100
AcDbArc
50
-37.874983651098034
51
0
0
LINE
5
146
100
AcDbEntity
8
0
100
AcDbLine
10
-25.212955772326858
20
-24.272547242283544
30
0
11
-31.007078142303214
21
-31.722133146538873
31
0
0
ARC
5
147
100
AcDbEntity
8
0
100
AcDbCircle
10
-27.060317055421585
20
-34.791836214113474
30
0
40
4.9999999999999973
210
0
220
0
230
1
100
AcDbArc
50
142.12501634890182
51
270
0
LINE
5
148
100
AcDbEntity
8
0
100
AcDbLine
10
-27.060317055421585
20
-39.791836214113466
30
0
11
-19.901037409552991
21
-39.791836214113481
31
0
0
ARC
5
149
100
AcDbEntity
8
0
100
AcDbCircle
10
-19.901037409552977
20
-42.791836214113431
30
0
40
2.9999999999999654
210
0
220
-0
230
1
100
AcDbArc
50
38.789440294286265
51
90.00000000000027
0
CIRCLE
5
150
100
AcDbEntity
8
0
100
AcDbCircle
10
-15.250000000000002
20
15.250000000000005
30
0
40
1.6000000000000014
210
0
220
-0
230
1
0
CIRCLE
5
151
100
AcDbEntity
8
0
100
AcDbCircle
10
-15.250000000000005
20
-15.250000000000011
30
0
40
1.6000000000000014
210
0
220
-0
230
1
0
CIRCLE
5
152
100
AcDbEntity
8
0
100
AcDbCircle
10
15.25
20
-15.250000000000007
30
0
40
1.6000000000000014
210
0
220
-0
230
1
0
CIRCLE
5
153
100
AcDbEntity
8
0
100
AcDbCircle
10
15.250000000000011
20
15.249999999999996
30
0
40
1.6000000000000014
210
0
220
-0
230
1
0
CIRCLE
5
154
100
AcDbEntity
8
0
100
AcDbCircle
10
-10
20
10
30
0
40
1.6000000000000014
210
0
220
-0
230
1
0
CIRCLE
5
155
100
AcDbEntity
8
0
100
AcDbCircle
10
-10
20
-10.000000000000004
30
0
40
1.6000000000000014
210
0
220
-0
230
1
0
CIRCLE
5
156
100
AcDbEntity
8
0
100
AcDbCircle
10
9.9999999999999982
20
-10.000000000000002
30
0
40
1.6000000000000003
210
0
220
-0
230
1
0
CIRCLE
5
157
100
AcDbEntity
8
0
100
AcDbCircle
10
10.000000000000002
20
9.9999999999999982
30
0
40
1.6000000000000003
210
0
220
-0
230
1
0
CIRCLE
5
158
100
AcDbEntity
8
0
100
AcDbCircle
10
14.250000000000004
20
43.249999999999993
30
0
40
1.6000000000000014
210
0
220
-0
230
1
0
CIRCLE
5
159
100
AcDbEntity
8
0
100
AcDbCircle
10
-14.250000000000004
20
-38.25
30
0
40
1.6000000000000014
210
0
220
-0
230
1
0
CIRCLE
5
160
100
AcDbEntity
8
0
100
AcDbCircle
10
14.250000000000004
20
-38.25
30
0
40
1.6000000000000014
210
0
220
-0
230
1
0
CIRCLE
5
161
100
AcDbEntity
8
0
100
AcDbCircle
10
27.060317055421585
20
-34.791836214113474
30
0
40
1.5500000000000025
210
0
220
-0
230
1
0
CIRCLE
5
162
100
AcDbEntity
8
0
100
AcDbCircle
10
-27.060317055421585
20
-34.791836214113474
30
0
40
1.5500000000000025
210
0
220
-0
230
1
0
CIRCLE
5
163
100
AcDbEntity
8
0
100
AcDbCircle
10
27.060317055421585
20
34.791836214113474
30
0
40
1.5500000000000025
210
0
220
-0
230
1
0
CIRCLE
5
164
100
AcDbEntity
8
0
100
AcDbCircle
10
-27.060317055421585
20
34.791836214113474
30
0
40
1.5500000000000025
210
0
220
-0
230
1
0
CIRCLE
5
165
100
AcDbEntity
8
0
100
AcDbCircle
10
20.920910934739165
20
-26.898314029098273
30
0
40
1.5500000000000003
210
0
220
-0
230
1
0
CIRCLE
5
166
100
AcDbEntity
8
0
100
AcDbCircle
10
-20.920910934739165
20
-26.898314029098273
30
0
40
1.5500000000000025
210
0
220
-0
230
1
0
CIRCLE
5
167
100
AcDbEntity
8
0
100
AcDbCircle
10
-20.920910934739165
20
26.898314029098273
30
0
40
1.5500000000000025
210
0
220
-0
230
1
0
CIRCLE
5
168
100
AcDbEntity
8
0
100
AcDbCircle
10
20.920910934739165
20
26.898314029098273
30
0
40
1.5500000000000003
210
0
220
-0
230
1
0
ENDSEC
0
SECTION
2
OBJECTS
0
DICTIONARY
5
C
100
AcDbDictionary
3
ACAD_GROUP
350
D
3
ACAD_MLINESTYLE
350
17
0
DICTIONARY
5
D
100
AcDbDictionary
0
DICTIONARY
5
1A
330
C
100
AcDbDictionary
0
DICTIONARY
5
17
100
AcDbDictionary
0
ENDSEC
0
EOF
