0
SECTION
2
HEADER
9
$INSUNITS
70
4
9
$ACADVER
1
AC1014
9
$HANDSEED
5
FFFF
0
ENDSEC
0
SECTION
2
TABLES
0
TABLE
2
VPORT
5
8
100
AcDbSymbolTable
0
ENDTAB
0
TABLE
2
LTYPE
5
5
100
AcDbSymbolTable
0
LTYPE
5
14
100
AcDbSymbolTableRecord
100
AcDbLinetypeTableRecord
2
BYBLOCK
70
0
0
LTYPE
5
15
100
AcDbSymbolTableRecord
100
AcDbLinetypeTableRecord
2
BYLAYER
70
0
0
ENDTAB
0
TABLE
2
LAYER
5
2
100
AcDbSymbolTable
70
2
0
LAYER
5
50
100
AcDbSymbolTableRecord
100
AcDbLayerTableRecord
2
0
70
0
6
CONTINUOUS
0
ENDTAB
0
TABLE
2
STYLE
5
3
100
AcDbSymbolTable
70
1
0
STYLE
5
11
100
AcDbSymbolTableRecord
100
AcDbTextStyleTableRecord
2
STANDARD
70
0
0
ENDTAB
0
TABLE
2
VIEW
5
6
100
AcDbSymbolTable
70
0
0
ENDTAB
0
TABLE
2
UCS
5
7
100
AcDbSymbolTable
70
0
0
ENDTAB
0
TABLE
2
APPID
5
9
100
AcDbSymbolTable
70
2
0
APPID
5
12
100
AcDbSymbolTableRecord
100
AcDbRegAppTableRecord
2
ACAD
70
0
0
ENDTAB
0
TABLE
2
DIMSTYLE
5
A
100
AcDbSymbolTable
70
1
0
ENDTAB
0
TABLE
2
BLOCK_RECORD
5
1
100
AcDbSymbolTable
70
1
0
BLOCK_RECORD
5
1F
100
AcDbSymbolTableRecord
100
AcDbBlockTableRecord
2
*MODEL_SPACE
0
BLOCK_RECORD
5
1B
100
AcDbSymbolTableRecord
100
AcDbBlockTableRecord
2
*PAPER_SPACE
0
ENDTAB
0
ENDSEC
0
SECTION
2
BLOCKS
0
BLOCK
5
20
100
AcDbEntity
100
AcDbBlockBegin
2
*MODEL_SPACE
0
ENDBLK
5
21
100
AcDbEntity
100
AcDbBlockEnd
0
BLOCK
5
1C
100
AcDbEntity
100
AcDbBlockBegin
2
*PAPER_SPACE
0
ENDBLK
5
1D
100
AcDbEntity
100
AcDbBlockEnd
0
ENDSEC
0
SECTION
2
ENTITIES
0
CIRCLE
5
100
100
AcDbEntity
8
0
100
AcDbCircle
10
20.920910934739165
20
26.898314029098273
30
0
40
1.4999999999999991
210
0
220
-0
230
1
0
CIRCLE
5
101
100
AcDbEntity
8
0
100
AcDbCircle
10
-20.920910934739165
20
26.898314029098273
30
0
40
1.4999999999999991
210
0
220
-0
230
1
0
CIRCLE
5
102
100
AcDbEntity
8
0
100
AcDbCircle
10
-20.920910934739165
20
-26.898314029098273
30
0
40
1.4999999999999991
210
0
220
-0
230
1
0
CIRCLE
5
103
100
AcDbEntity
8
0
100
AcDbCircle
10
20.920910934739165
20
-26.898314029098273
30
0
40
1.4999999999999991
210
0
220
-0
230
1
0
CIRCLE
5
104
100
AcDbEntity
8
0
100
AcDbCircle
10
-27.060317055421585
20
34.791836214113474
30
0
40
1.4999999999999991
210
0
220
-0
230
1
0
CIRCLE
5
105
100
AcDbEntity
8
0
100
AcDbCircle
10
27.060317055421585
20
34.791836214113474
30
0
40
1.4999999999999991
210
0
220
-0
230
1
0
CIRCLE
5
106
100
AcDbEntity
8
0
100
AcDbCircle
10
-27.060317055421585
20
-34.791836214113474
30
0
40
1.4999999999999991
210
0
220
-0
230
1
0
CIRCLE
5
107
100
AcDbEntity
8
0
100
AcDbCircle
10
27.060317055421585
20
-34.791836214113474
30
0
40
1.4999999999999991
210
0
220
-0
230
1
0
CIRCLE
5
108
100
AcDbEntity
8
0
100
AcDbCircle
10
14.250000000000004
20
-38.25
30
0
40
1.6000000000000014
210
0
220
-0
230
1
0
CIRCLE
5
109
100
AcDbEntity
8
0
100
AcDbCircle
10
-14.250000000000004
20
-38.25
30
0
40
1.6000000000000014
210
0
220
-0
230
1
0
CIRCLE
5
110
100
AcDbEntity
8
0
100
AcDbCircle
10
14.250000000000004
20
43.249999999999993
30
0
40
1.6000000000000014
210
0
220
-0
230
1
0
CIRCLE
5
111
100
AcDbEntity
8
0
100
AcDbCircle
10
10.000000000000002
20
9.9999999999999982
30
0
40
1.6000000000000003
210
0
220
-0
230
1
0
CIRCLE
5
112
100
AcDbEntity
8
0
100
AcDbCircle
10
9.9999999999999982
20
-10.000000000000002
30
0
40
1.6000000000000003
210
0
220
-0
230
1
0
CIRCLE
5
113
100
AcDbEntity
8
0
100
AcDbCircle
10
-10
20
-10.000000000000004
30
0
40
1.6000000000000014
210
0
220
-0
230
1
0
CIRCLE
5
114
100
AcDbEntity
8
0
100
AcDbCircle
10
-10
20
10
30
0
40
1.6000000000000014
210
0
220
-0
230
1
0
CIRCLE
5
115
100
AcDbEntity
8
0
100
AcDbCircle
10
15.250000000000011
20
15.249999999999996
30
0
40
1.6000000000000014
210
0
220
-0
230
1
0
CIRCLE
5
116
100
AcDbEntity
8
0
100
AcDbCircle
10
15.25
20
-15.250000000000007
30
0
40
1.6000000000000014
210
0
220
-0
230
1
0
CIRCLE
5
117
100
AcDbEntity
8
0
100
AcDbCircle
10
-15.250000000000005
20
-15.250000000000011
30
0
40
1.6000000000000014
210
0
220
-0
230
1
0
CIRCLE
5
118
100
AcDbEntity
8
0
100
AcDbCircle
10
-15.250000000000002
20
15.250000000000005
30
0
40
1.6000000000000014
210
0
220
-0
230
1
0
CIRCLE
5
119
100
AcDbEntity
8
0
100
AcDbCircle
10
-14.250000000000004
20
43.249999999999993
30
0
40
1.6000000000000014
210
0
220
-0
230
1
0
CIRCLE
5
120
100
AcDbEntity
8
0
100
AcDbCircle
10
0
20
0
30
0
40
2.5
210
0
220
0
230
1
0
ARC
5
121
100
AcDbEntity
8
0
100
AcDbCircle
10
0
20
0
30
0
40
7.9999999999999964
210
0
220
-0
230
1
100
AcDbArc
50
27.953186883381157
51
62.046813116618857
0
ARC
5
122
100
AcDbEntity
8
0
100
AcDbCircle
10
5.7416506976979154
20
3.046875
30
0
40
1.5000000000000002
210
0
220
0
230
1
100
AcDbArc
50
-152.04681311661889
51
27.95318688338125
0
ARC
5
123
100
AcDbEntity
8
0
100
AcDbCircle
10
0
20
0
30
0
40
4.9999999999999964
210
0
220
-0
230
1
100
AcDbArc
50
27.953186883381143
51
62.046813372750961
0
ARC
5
124
100
AcDbEntity
8
0
100
AcDbCircle
10
3.0468749999999991
20
5.7416506976979171
30
0
40
1.5000000000000018
210
0
220
-0
230
1
100
AcDbArc
50
62.046813116618779
51
242.04681226284524
0
LWPOLYLINE
5
125
100
AcDbEntity
8
0
100
AcDbPolyline
90
4
70
1
43
0.0
10
-4.4166543828445501
20
2.3437499999999991
42
-0.99999999999999989
10
-7.0666470125512859
20
3.7500000000000004
42
-0.1498686736698584
10
-3.7499999802560229
20
7.0666470230286631
42
-0.9999999925494194
10
-2.3437500000000022
20
4.416654382844551
42
0.14986867295567793
0
ARC
5
126
100
AcDbEntity
8
0
100
AcDbCircle
10
5.7416506976979171
20
-3.046875
30
0
40
1.5000000000000011
210
0
220
0
230
1
100
AcDbArc
50
-27.953186883381015
51
152.04681311661898
0
ARC
5
127
100
AcDbEntity
8
0
100
AcDbCircle
10
0
20
0
30
0
40
7.9999999999999973
210
0
220
0
230
1
100
AcDbArc
50
297.95318688338119
51
332.04681311661892
0
ARC
5
128
100
AcDbEntity
8
0
100
AcDbCircle
10
3.0468749999999978
20
-5.7416506976979154
30
0
40
1.4999999999999991
210
0
220
0
230
1
100
AcDbArc
50
117.95318688338106
51
297.95318688338119
0
ARC
5
129
100
AcDbEntity
8
0
100
AcDbCircle
10
0
20
0
30
0
40
4.9999999999999964
210
-0
220
0
230
1
100
AcDbArc
50
297.95318688338119
51
332.04681311661881
0
ARC
5
130
100
AcDbEntity
8
0
100
AcDbCircle
10
-3.0468750000000018
20
-5.7416506976979154
30
0
40
1.5000000000000044
210
0
220
0
230
1
100
AcDbArc
50
-117.95318688338106
51
62.046813116618921
0
ARC
5
131
100
AcDbEntity
8
0
100
AcDbCircle
10
0
20
0
30
0
40
8.0000000000000036
210
0
220
0
230
1
100
AcDbArc
50
207.95318688338116
51
242.04681311661884
0
ARC
5
132
100
AcDbEntity
8
0
100
AcDbCircle
10
-5.7416506976979171
20
-3.046875
30
0
40
1.4999999999999991
210
0
220
-0
230
1
100
AcDbArc
50
27.953186883381143
51
207.95318688338122
0
ARC
5
133
100
AcDbEntity
8
0
100
AcDbCircle
10
0
20
0
30
0
40
4.9999999999999991
210
0
220
0
230
1
100
AcDbArc
50
207.95318688338111
51
242.04681311661884
0
LWPOLYLINE
5
134
100
AcDbEntity
8
0
100
AcDbPolyline
90
38
70
1
43
0.0
10
-22.541145285685392
20
19.692480208133198
42
-0.2052887512691223
10
-22.618453802944451
20
11.813378114837947
42
0.10406395040152311
10
-23.000000298023227
20
9.9999998509883898
10
-23.000000298023231
20
-10.000000149011612
42
0.10406394764082298
10
-22.618453822754695
20
-11.813378367869142
42
-0.20528875274329064
10
-22.541145413351455
20
-19.692480514231057
42
-0.066573919808274026
10
-25.212955772326868
20
-24.272547242283554
10
-31.007078142303214
20
-31.722133146538873
42
0.6241111318741871
10
-27.060317055421585
20
-39.791836214113466
10
-19.901037409552991
20
-39.791836214113474
42
-0.22724288000268156
10
-17.562677102151756
20
-40.912455711721691
42
0.22724288000267859
10
-14.250000000000004
20
-42.5
10
14.250000000000004
20
-42.5
42
0.22724288000267898
10
17.562677102151756
20
-40.912455711721677
42
-0.22724288000267948
10
19.901037409552991
20
-39.791836214113459
10
27.060317055421585
20
-39.791836214113459
42
0.6241111318741871
10
31.007078142303214
20
-31.722133146538873
10
25.212955772326854
20
-24.272547242283551
42
-0.066573919808270446
10
22.541145413351455
20
-19.692480514231068
42
-0.20528875274329064
10
22.618453822754702
20
-11.813378367869145
42
0.1040639476408229
10
23.000000298023231
20
-10.000000149011612
10
23.000000298023224
20
9.9999998509883881
42
0.10406395040152289
10
22.618453802944455
20
11.813378114837946
42
-0.2052887512691231
10
22.541145285685413
20
19.692480208133233
42
-0.066573923972321813
10
25.212955772326858
20
24.272547242283537
10
31.007078142303207
20
31.722133146538873
42
0.62411113187418732
10
27.060317055421585
20
39.791836214113466
10
21.656583128864085
20
39.791836214113474
42
-0.37003625867915535
10
18.691696379311814
20
42.334182892996495
10
18.450256228532385
20
43.898342204915686
42
0.3705146421991955
10
14.242848045050362
20
47.499993982294612
10
-14.250000000000004
20
47.5
42
0.37003625867915929
10
-18.450256228532393
20
43.898342204915686
10
-18.691696379311821
20
42.334182892996502
42
-0.37003625867915813
10
-21.656583128864078
20
39.791836214113474
10
-27.060317055421585
20
39.791836214113466
42
0.6241111318741871
10
-31.007078142303214
20
31.722133146538873
10
-25.212955772326865
20
24.272547242283551
42
-0.066573923972322369
0
ENDSEC
0
SECTION
2
OBJECTS
0
DICTIONARY
5
C
100
AcDbDictionary
3
ACAD_GROUP
350
D
3
ACAD_MLINESTYLE
350
17
0
DICTIONARY
5
D
100
AcDbDictionary
0
DICTIONARY
5
1A
330
C
100
AcDbDictionary
0
DICTIONARY
5
17
100
AcDbDictionary
0
ENDSEC
0
EOF
