0
SECTION
2
HEADER
9
$INSUNITS
70
4
9
$ACADVER
1
AC1014
9
$HANDSEED
5
FFFF
0
ENDSEC
0
SECTION
2
TABLES
0
TABLE
2
VPORT
5
8
100
AcDbSymbolTable
0
ENDTAB
0
TABLE
2
LTYPE
5
5
100
AcDbSymbolTable
0
LTYPE
5
14
100
AcDbSymbolTableRecord
100
AcDbLinetypeTableRecord
2
BYBLOCK
70
0
0
LTYPE
5
15
100
AcDbSymbolTableRecord
100
AcDbLinetypeTableRecord
2
BYLAYER
70
0
0
ENDTAB
0
TABLE
2
LAYER
5
2
100
AcDbSymbolTable
70
2
0
LAYER
5
50
100
AcDbSymbolTableRecord
100
AcDbLayerTableRecord
2
0
70
0
6
CONTINUOUS
0
ENDTAB
0
TABLE
2
STYLE
5
3
100
AcDbSymbolTable
70
1
0
STYLE
5
11
100
AcDbSymbolTableRecord
100
AcDbTextStyleTableRecord
2
STANDARD
70
0
0
ENDTAB
0
TABLE
2
VIEW
5
6
100
AcDbSymbolTable
70
0
0
ENDTAB
0
TABLE
2
UCS
5
7
100
AcDbSymbolTable
70
0
0
ENDTAB
0
TABLE
2
APPID
5
9
100
AcDbSymbolTable
70
2
0
APPID
5
12
100
AcDbSymbolTableRecord
100
AcDbRegAppTableRecord
2
ACAD
70
0
0
ENDTAB
0
TABLE
2
DIMSTYLE
5
A
100
AcDbSymbolTable
70
1
0
ENDTAB
0
TABLE
2
BLOCK_RECORD
5
1
100
AcDbSymbolTable
70
1
0
BLOCK_RECORD
5
1F
100
AcDbSymbolTableRecord
100
AcDbBlockTableRecord
2
*MODEL_SPACE
0
BLOCK_RECORD
5
1B
100
AcDbSymbolTableRecord
100
AcDbBlockTableRecord
2
*PAPER_SPACE
0
ENDTAB
0
ENDSEC
0
SECTION
2
BLOCKS
0
BLOCK
5
20
100
AcDbEntity
100
AcDbBlockBegin
2
*MODEL_SPACE
0
ENDBLK
5
21
100
AcDbEntity
100
AcDbBlockEnd
0
BLOCK
5
1C
100
AcDbEntity
100
AcDbBlockBegin
2
*PAPER_SPACE
0
ENDBLK
5
1D
100
AcDbEntity
100
AcDbBlockEnd
0
ENDSEC
0
SECTION
2
ENTITIES
0
LWPOLYLINE
5
100
100
AcDbEntity
8
0
100
AcDbPolyline
90
8
70
1
43
0.0
10
2.9166666666666652
20
42.363415400204175
42
-0.17970931960134912
10
6.3634154002041772
20
38.916666666666686
42
-0.54648810365225853
10
5.454356057317856
20
37.500000000000007
10
4.3301270189221945
20
37.500000000000007
42
-0.26794919243112059
10
3.4641016151377562
20
38.000000000000007
42
0.13165249758739767
10
1.9999999999999978
20
39.464101615137764
42
-0.26794919243112181
10
1.5000000000000002
20
40.330127018922198
10
1.5000000000000147
20
41.454356057317867
42
-0.5464881036522643
0
LWPOLYLINE
5
101
100
AcDbEntity
8
0
100
AcDbPolyline
90
8
70
1
43
0.0
10
6.3634154002041656
20
14.083333333333339
42
-0.17970931960134784
10
2.9166666666666701
20
10.636584599795835
42
-0.54648810365226286
10
1.4999999999999987
20
11.545643942682142
10
1.4999999999999989
20
12.669872981077805
42
-0.26794919243112264
10
1.9999999999999984
20
13.535898384862243
42
0.1316524975873952
10
3.4641016151377486
20
14.999999999999991
42
-0.26794919243112597
10
4.3301270189221919
20
15.499999999999998
10
5.4543560573178551
20
15.499999999999996
42
-0.54648810365225942
0
LWPOLYLINE
5
102
100
AcDbEntity
8
0
100
AcDbPolyline
90
8
70
1
43
0.0
10
-2.9166666666666807
20
-23.363415400204161
42
-0.17970931960134864
10
-6.3634154002041754
20
-19.916666666666668
42
-0.54648810365226219
10
-5.4543560573178667
20
-18.499999999999996
10
-4.3301270189222043
20
-18.499999999999993
42
-0.26794919243112236
10
-3.4641016151377664
20
-18.999999999999996
42
0.13165249758739678
10
-2.0000000000000151
20
-20.464101615137746
42
-0.26794919243112619
10
-1.5000000000000124
20
-21.330127018922191
10
-1.5000000000000151
20
-22.454356057317856
42
-0.5464881036522603
0
LWPOLYLINE
5
103
100
AcDbEntity
8
0
100
AcDbPolyline
90
8
70
1
43
0.0
10
-6.3634154002042038
20
-14.083333333333307
42
-0.17970931960134773
10
-2.9166666666666767
20
-10.636584599795825
42
-0.54648810365226275
10
-1.5000000000000089
20
-11.545643942682133
10
-1.5000000000000075
20
-12.669872981077797
42
-0.26794919243111903
10
-2.0000000000000089
20
-13.535898384862238
42
0.13165249758739536
10
-3.4641016151377606
20
-14.999999999999984
42
-0.26794919243112475
10
-4.3301270189222016
20
-15.499999999999988
10
-5.4543560573178667
20
-15.499999999999988
42
-0.54648810365226108
0
LWPOLYLINE
5
104
100
AcDbEntity
8
0
100
AcDbPolyline
90
8
70
1
43
0.0
10
-2.9166666666666821
20
10.636584599795835
42
-0.17970931960134762
10
-6.3634154002041754
20
14.083333333333332
42
-0.54648810365226219
10
-5.4543560573178667
20
15.500000000000004
10
-4.3301270189222043
20
15.500000000000005
42
-0.26794919243112236
10
-3.4641016151377659
20
15.000000000000002
42
0.13165249758739547
10
-2.0000000000000147
20
13.53589838486225
42
-0.26794919243112236
10
-1.5000000000000124
20
12.669872981077809
10
-1.5000000000000113
20
11.545643942682142
42
-0.54648810365225953
0
LWPOLYLINE
5
105
100
AcDbEntity
8
0
100
AcDbPolyline
90
8
70
1
43
0.0
10
-6.3634154002041523
20
38.916666666666657
42
-0.17970931960134784
10
-2.9166666666666781
20
42.363415400204175
42
-0.54648810365226752
10
-1.5000000000000091
20
41.454356057317867
10
-1.5000000000000091
20
40.330127018922198
42
-0.2679491924311237
10
-2.0000000000000089
20
39.464101615137764
42
0.13165249758739525
10
-3.4641016151377624
20
38.000000000000014
42
-0.26794919243112286
10
-4.3301270189222008
20
37.500000000000014
10
-5.4543560573178667
20
37.500000000000021
42
-0.54648810365225853
0
LWPOLYLINE
5
106
100
AcDbEntity
8
0
100
AcDbPolyline
90
8
70
1
43
0.0
10
6.3634154002041932
20
33.083333333333314
42
-0.17970931960134762
10
2.916666666666667
20
29.636584599795839
42
-0.54648810365226452
10
1.4999999999999982
20
30.545643942682148
10
1.500000000000004
20
31.669872981077809
42
-0.26794919243112347
10
1.9999999999999978
20
32.535898384862243
42
0.13165249758739547
10
3.4641016151377468
20
34
42
-0.26794919243112164
10
4.330127018922191
20
34.5
10
5.4543560573178551
20
34.499999999999986
42
-0.54648810365226075
0
LWPOLYLINE
5
107
100
AcDbEntity
8
0
100
AcDbPolyline
90
8
70
1
43
0.0
10
2.9166666666666634
20
23.363415400204172
42
-0.17970931960134762
10
6.3634154002041656
20
19.916666666666679
42
-0.54648810365225919
10
5.4543560573178578
20
18.500000000000011
10
4.3301270189221945
20
18.500000000000011
42
-0.26794919243112236
10
3.4641016151377544
20
19.000000000000007
42
0.13165249758739569
10
2.0000000000000018
20
20.464101615137764
42
-0.26794919243112153
10
1.5000000000000002
20
21.330127018922202
10
1.5000000000000053
20
22.454356057317867
42
-0.5464881036522653
0
LWPOLYLINE
5
108
100
AcDbEntity
8
0
100
AcDbPolyline
90
8
70
1
43
0.0
10
6.3634154002041328
20
-19.916666666666654
42
-0.17970931960134739
10
2.9166666666666741
20
-23.363415400204168
42
-0.54648810365226241
10
1.4999999999999987
20
-22.454356057317856
10
1.4999999999999993
20
-21.330127018922195
42
-0.26794919243112236
10
1.9999999999999982
20
-20.464101615137757
42
0.13165249758739536
10
3.4641016151377508
20
-19
42
-0.26794919243112297
10
4.3301270189221901
20
-18.5
10
5.4543560573178551
20
-18.5
42
-0.54648810365225997
0
LWPOLYLINE
5
109
100
AcDbEntity
8
0
100
AcDbPolyline
90
8
70
1
43
0.0
10
2.9166666666666674
20
-10.636584599795819
42
-0.17970931960134659
10
6.363415400204163
20
-14.083333333333318
42
-0.54648810365226286
10
5.454356057317856
20
-15.499999999999989
10
4.3301270189221936
20
-15.499999999999991
42
-0.26794919243112164
10
3.4641016151377544
20
-14.999999999999989
42
0.13165249758739389
10
2.0000000000000031
20
-13.535898384862236
42
-0.26794919243112286
10
1.5000000000000002
20
-12.669872981077797
10
1.500000000000004
20
-11.545643942682133
42
-0.54648810365226175
0
LWPOLYLINE
5
110
100
AcDbEntity
8
0
100
AcDbPolyline
90
8
70
1
43
0.0
10
-1.5000000000000093
20
21.330127018922202
10
-1.5000000000000091
20
22.454356057317867
42
0.54648810365226141
10
-2.9166666666666785
20
23.363415400204175
42
0.17970931960134762
10
-6.3634154002041763
20
19.916666666666675
42
0.54648810365225886
10
-5.4543560573178667
20
18.500000000000011
10
-4.3301270189222016
20
18.500000000000011
42
0.26794919243112286
10
-3.4641016151377659
20
19.000000000000007
42
-0.13165249758739558
10
-2.0000000000000084
20
20.464101615137764
42
0.26794919243112036
0
LWPOLYLINE
5
111
100
AcDbEntity
8
0
100
AcDbPolyline
90
8
70
1
43
0.0
10
-4.3301270189222043
20
34.5
10
-5.4543560573178667
20
34.5
42
0.54648810365226208
10
-6.3634154002041763
20
33.083333333333336
42
0.17970931960134628
10
-2.9166666666666812
20
29.636584599795839
42
0.54648810365225953
10
-1.5000000000000129
20
30.545643942682148
10
-1.5000000000000127
20
31.669872981077809
42
0.26794919243112714
10
-2.0000000000000151
20
32.53589838486225
42
-0.13165249758739378
10
-3.4641016151377664
20
34
42
0.26794919243112536
0
CIRCLE
5
112
100
AcDbEntity
8
0
100
AcDbCircle
10
15.250000000000011
20
15.249999999999996
30
0
40
1.6000000000000014
210
0
220
-0
230
1
0
CIRCLE
5
113
100
AcDbEntity
8
0
100
AcDbCircle
10
15.25
20
-15.250000000000007
30
0
40
1.6000000000000014
210
0
220
-0
230
1
0
CIRCLE
5
114
100
AcDbEntity
8
0
100
AcDbCircle
10
-15.250000000000005
20
-15.250000000000011
30
0
40
1.6000000000000014
210
0
220
-0
230
1
0
CIRCLE
5
115
100
AcDbEntity
8
0
100
AcDbCircle
10
9.9999999999999982
20
-10.000000000000002
30
0
40
1.6000000000000003
210
0
220
-0
230
1
0
CIRCLE
5
116
100
AcDbEntity
8
0
100
AcDbCircle
10
-10
20
10
30
0
40
1.6000000000000014
210
0
220
-0
230
1
0
CIRCLE
5
117
100
AcDbEntity
8
0
100
AcDbCircle
10
-10
20
-10.000000000000004
30
0
40
1.6000000000000014
210
0
220
-0
230
1
0
CIRCLE
5
118
100
AcDbEntity
8
0
100
AcDbCircle
10
10.000000000000002
20
9.9999999999999982
30
0
40
1.6000000000000003
210
0
220
-0
230
1
0
CIRCLE
5
119
100
AcDbEntity
8
0
100
AcDbCircle
10
14.250000000000004
20
43.249999999999993
30
0
40
1.6000000000000014
210
0
220
-0
230
1
0
CIRCLE
5
120
100
AcDbEntity
8
0
100
AcDbCircle
10
-14.250000000000004
20
43.249999999999993
30
0
40
1.6000000000000014
210
0
220
-0
230
1
0
CIRCLE
5
121
100
AcDbEntity
8
0
100
AcDbCircle
10
-14.250000000000004
20
-38.25
30
0
40
1.6000000000000014
210
0
220
-0
230
1
0
CIRCLE
5
122
100
AcDbEntity
8
0
100
AcDbCircle
10
14.250000000000004
20
-38.25
30
0
40
1.6000000000000014
210
0
220
-0
230
1
0
CIRCLE
5
123
100
AcDbEntity
8
0
100
AcDbCircle
10
-26.139406135149201
20
-33.607807888048981
30
0
40
1.5500000000000025
210
0
220
-0
230
1
0
CIRCLE
5
124
100
AcDbEntity
8
0
100
AcDbCircle
10
26.139406135149201
20
33.607807888048981
30
0
40
1.5500000000000025
210
0
220
-0
230
1
0
CIRCLE
5
125
100
AcDbEntity
8
0
100
AcDbCircle
10
-26.139406135149201
20
33.607807888048981
30
0
40
1.5500000000000025
210
0
220
-0
230
1
0
CIRCLE
5
126
100
AcDbEntity
8
0
100
AcDbCircle
10
22.455762454059688
20
-28.871694583791019
30
0
40
1.549999999999998
210
0
220
-0
230
1
0
CIRCLE
5
127
100
AcDbEntity
8
0
100
AcDbCircle
10
22.455762454059688
20
28.871694583791019
30
0
40
1.549999999999998
210
0
220
-0
230
1
0
CIRCLE
5
128
100
AcDbEntity
8
0
100
AcDbCircle
10
26.139406135149201
20
-33.607807888048981
30
0
40
1.5500000000000025
210
0
220
-0
230
1
0
CIRCLE
5
129
100
AcDbEntity
8
0
100
AcDbCircle
10
-22.455762454059688
20
28.871694583791019
30
0
40
1.549999999999998
210
0
220
-0
230
1
0
CIRCLE
5
130
100
AcDbEntity
8
0
100
AcDbCircle
10
-15.250000000000002
20
15.250000000000005
30
0
40
1.6000000000000014
210
0
220
-0
230
1
0
CIRCLE
5
131
100
AcDbEntity
8
0
100
AcDbCircle
10
-22.455762454059688
20
-28.871694583791019
30
0
40
1.549999999999998
210
0
220
-0
230
1
0
LINE
5
132
100
AcDbEntity
8
0
100
AcDbLine
10
-22.106477826236741
20
-20.278504168739122
30
0
11
-30.086167222030824
21
-30.538104820474388
31
0
0
ARC
5
133
100
AcDbEntity
8
0
100
AcDbCircle
10
-26.139406135149201
20
-33.607807888048981
30
0
40
4.9999999999999849
210
0
220
0
230
1
100
AcDbArc
50
142.12501634890182
51
322.12501720267551
0
LINE
5
134
100
AcDbEntity
8
0
100
AcDbLine
10
-22.192645002525442
20
-36.677510896812244
30
0
11
-22.078704434752652
21
-36.531015881104381
31
0
0
ARC
5
135
100
AcDbEntity
8
0
100
AcDbCircle
10
-20.500000000000004
20
-37.758897108134214
30
0
40
1.9999999999999951
210
0
220
0
230
1
100
AcDbArc
50
0
51
142.12501634890191
0
LINE
5
136
100
AcDbEntity
8
0
100
AcDbLine
10
-18.500000000000007
20
-37.758897108134221
30
0
11
-18.500000000000007
21
-38.25
31
0
0
ARC
5
137
100
AcDbEntity
8
0
100
AcDbCircle
10
-14.250000000000004
20
-38.25
30
0
40
4.2500000000000053
210
0
220
0
230
1
100
AcDbArc
50
180
51
270
0
LINE
5
138
100
AcDbEntity
8
0
100
AcDbLine
10
-14.250000000000004
20
-42.5
30
0
11
-7
21
-42.5
31
0
0
ARC
5
139
100
AcDbEntity
8
0
100
AcDbCircle
10
-7.0000000000000107
20
-40.499999999999986
30
0
40
2.0000000000000107
210
-0
220
0
230
1
100
AcDbArc
50
270.00000000000034
51
360
0
LINE
5
140
100
AcDbEntity
8
0
100
AcDbLine
10
-5
20
-40.5
30
0
11
-5.0000000000000018
21
-39.5
31
0
0
ARC
5
141
100
AcDbEntity
8
0
100
AcDbCircle
10
-3.9999999999999951
20
-39.500000000000007
30
0
40
1.0000000000000053
210
0
220
0
230
1
100
AcDbArc
50
90.000000000000242
51
180
0
LINE
5
142
100
AcDbEntity
8
0
100
AcDbLine
10
-3.9999999999999991
20
-38.5
30
0
11
3.9999999999999991
21
-38.500000000000007
31
0
0
ARC
5
143
100
AcDbEntity
8
0
100
AcDbCircle
10
3.9999999999999951
20
-39.500000000000007
30
0
40
1.0000000000000049
210
0
220
-0
230
1
100
AcDbArc
50
0
51
89.999999999999773
0
LINE
5
144
100
AcDbEntity
8
0
100
AcDbLine
10
5
20
-39.5
30
0
11
5
21
-40.5
31
0
0
ARC
5
145
100
AcDbEntity
8
0
100
AcDbCircle
10
7.0000000000000107
20
-40.499999999999986
30
0
40
2.0000000000000107
210
0
220
0
230
1
100
AcDbArc
50
180
51
269.99999999999972
0
LINE
5
146
100
AcDbEntity
8
0
100
AcDbLine
10
7
20
-42.5
30
0
11
14.250000000000004
21
-42.5
31
0
0
ARC
5
147
100
AcDbEntity
8
0
100
AcDbCircle
10
14.250000000000004
20
-38.25
30
0
40
4.2499999999999982
210
-0
220
0
230
1
100
AcDbArc
50
-90
51
0
0
LINE
5
148
100
AcDbEntity
8
0
100
AcDbLine
10
18.5
20
-38.25
30
0
11
18.500000000000004
21
-37.758897108134221
31
0
0
ARC
5
149
100
AcDbEntity
8
0
100
AcDbCircle
10
20.5
20
-37.758897108134207
30
0
40
1.9999999999999947
210
0
220
-0
230
1
100
AcDbArc
50
37.874983651098098
51
180
0
LINE
5
150
100
AcDbEntity
8
0
100
AcDbLine
10
22.078704434752648
20
-36.531015881104373
30
0
11
22.192645048267568
21
-36.677510955623582
31
0
0
ARC
5
151
100
AcDbEntity
8
0
100
AcDbCircle
10
26.139406135149201
20
-33.607807888048981
30
0
40
5.0000000000000009
210
0
220
0
230
1
100
AcDbArc
50
-142.12501634890182
51
37.874984504871833
0
LINE
5
152
100
AcDbEntity
8
0
100
AcDbLine
10
30.086167176288697
20
-30.538104761663053
30
0
11
22.106477826236741
21
-20.278504168739122
31
0
0
ARC
5
153
100
AcDbEntity
8
0
100
AcDbCircle
10
30.000000000000064
20
-14.139098033589887
30
0
40
10.000000000000064
210
0
220
0
230
1
100
AcDbArc
50
180
51
217.87498365109815
0
LINE
5
154
100
AcDbEntity
8
0
100
AcDbLine
10
19.999999999999996
20
-14.139098033589917
30
0
11
19.999999999999996
21
-10.75
31
0
0
ARC
5
155
100
AcDbEntity
8
0
100
AcDbCircle
10
19.499999999999996
20
-10.750000000000007
30
0
40
0.50000000000000266
210
0
220
-0
230
1
100
AcDbArc
50
0
51
89.999999999999588
0
LINE
5
156
100
AcDbEntity
8
0
100
AcDbLine
10
19.5
20
-10.250000000000004
30
0
11
18.5
21
-10.250000000000002
31
0
0
ARC
5
157
100
AcDbEntity
8
0
100
AcDbCircle
10
18.5
20
-9.7500000000000053
30
0
40
0.499999999999996
210
0
220
0
230
1
100
AcDbArc
50
180
51
270
0
LINE
5
158
100
AcDbEntity
8
0
100
AcDbLine
10
18.000000000000004
20
-9.7500000000000036
30
0
11
18
21
9.7500000000000053
31
0
0
ARC
5
159
100
AcDbEntity
8
0
100
AcDbCircle
10
18.5
20
9.7500000000000036
30
0
40
0.49999999999999933
210
0
220
-0
230
1
100
AcDbArc
50
90
51
180
0
LINE
5
160
100
AcDbEntity
8
0
100
AcDbLine
10
18.5
20
10.250000000000004
30
0
11
19.5
21
10.250000000000004
31
0
0
ARC
5
161
100
AcDbEntity
8
0
100
AcDbCircle
10
19.499999999999996
20
10.750000000000011
30
0
40
0.50000000000000711
210
-0
220
0
230
1
100
AcDbArc
50
270.0000000000004
51
360
0
LINE
5
162
100
AcDbEntity
8
0
100
AcDbLine
10
20
20
10.750000000000002
30
0
11
19.999999999999996
21
14.139098033589914
31
0
0
ARC
5
163
100
AcDbEntity
8
0
100
AcDbCircle
10
30.000000000000007
20
14.13909803358991
30
0
40
10.000000000000011
210
0
220
0
230
1
100
AcDbArc
50
142.12501634890177
51
180
0
LINE
5
164
100
AcDbEntity
8
0
100
AcDbLine
10
22.106477826236741
20
20.278504168739126
30
0
11
30.086167222030824
21
30.538104820474388
31
0
0
ARC
5
165
100
AcDbEntity
8
0
100
AcDbCircle
10
26.139406135149201
20
33.607807888048981
30
0
40
4.9999999999999849
210
-0
220
0
230
1
100
AcDbArc
50
-37.874983651098184
51
142.12501634890182
0
LINE
5
166
100
AcDbEntity
8
0
100
AcDbLine
10
22.192645048267579
20
36.677510955623575
30
0
11
22.13577684929362
21
36.604394699799904
31
0
0
ARC
5
167
100
AcDbEntity
8
0
100
AcDbCircle
10
20.951748523229131
20
37.525305620072288
30
0
40
1.5000000000000013
210
0
220
0
230
1
100
AcDbArc
50
188.7747960044845
51
322.12501634890174
0
LINE
5
168
100
AcDbEntity
8
0
100
AcDbLine
10
19.469305148452996
20
37.296478959513799
30
0
11
18.450256228532385
21
43.898342204915686
31
0
0
ARC
5
169
100
AcDbEntity
8
0
100
AcDbCircle
10
14.250000000000004
20
43.249999999999993
30
0
40
4.2500000000000018
210
0
220
-0
230
1
100
AcDbArc
50
8.774796004484184
51
90.09641812406764
0
LINE
5
170
100
AcDbEntity
8
0
100
AcDbLine
10
14.242848034923675
20
47.5
30
0
11
-14.250000000000004
21
47.5
31
0
0
ARC
5
171
100
AcDbEntity
8
0
100
AcDbCircle
10
-14.250000000000004
20
43.249999999999993
30
0
40
4.2500000000000071
210
0
220
-0
230
1
100
AcDbArc
50
90
51
171.22520399551584
0
LINE
5
172
100
AcDbEntity
8
0
100
AcDbLine
10
-18.450256228532393
20
43.898342204915686
30
0
11
-19.469305148453
21
37.296478959513799
31
0
0
ARC
5
173
100
AcDbEntity
8
0
100
AcDbCircle
10
-20.951748523229131
20
37.525305620072288
30
0
40
1.4999999999999996
210
0
220
0
230
1
100
AcDbArc
50
217.87498365109829
51
351.22520399551547
0
LINE
5
174
100
AcDbEntity
8
0
100
AcDbLine
10
-22.13577684929362
20
36.604394699799904
30
0
11
-22.192645048267579
21
36.677510955623575
31
0
0
ARC
5
175
100
AcDbEntity
8
0
100
AcDbCircle
10
-26.139406135149201
20
33.607807888048981
30
0
40
4.9999999999999849
210
0
220
-0
230
1
100
AcDbArc
50
37.874983651098184
51
217.8749836510982
0
LINE
5
176
100
AcDbEntity
8
0
100
AcDbLine
10
-30.086167222030824
20
30.538104820474388
30
0
11
-22.106477826236741
21
20.278504168739119
31
0
0
ARC
5
177
100
AcDbEntity
8
0
100
AcDbCircle
10
-29.999999999999929
20
14.139098033589931
30
0
40
9.9999999999999289
210
0
220
0
230
1
100
AcDbArc
50
0
51
37.874983651098383
0
LINE
5
178
100
AcDbEntity
8
0
100
AcDbLine
10
-20
20
14.139098033589917
30
0
11
-20
21
10.750000000000004
31
0
0
ARC
5
179
100
AcDbEntity
8
0
100
AcDbCircle
10
-19.499999999999996
20
10.750000000000009
30
0
40
0.50000000000000488
210
0
220
0
230
1
100
AcDbArc
50
180
51
269.9999999999996
0
LINE
5
180
100
AcDbEntity
8
0
100
AcDbLine
10
-19.5
20
10.250000000000004
30
0
11
-18.5
21
10.25
31
0
0
ARC
5
181
100
AcDbEntity
8
0
100
AcDbCircle
10
-18.499999999999993
20
9.7500000000000071
30
0
40
0.49999999999999156
210
0
220
0
230
1
100
AcDbArc
50
0
51
90.00000000000081
0
LINE
5
182
100
AcDbEntity
8
0
100
AcDbLine
10
-18.000000000000004
20
9.7500000000000036
30
0
11
-18
21
-9.7500000000000036
31
0
0
ARC
5
183
100
AcDbEntity
8
0
100
AcDbCircle
10
-18.5
20
-9.7500000000000053
30
0
40
0.499999999999996
210
0
220
0
230
1
100
AcDbArc
50
-90
51
0
0
LINE
5
184
100
AcDbEntity
8
0
100
AcDbLine
10
-18.5
20
-10.250000000000002
30
0
11
-19.5
21
-10.250000000000002
31
0
0
ARC
5
185
100
AcDbEntity
8
0
100
AcDbCircle
10
-19.499999999999996
20
-10.750000000000007
30
0
40
0.50000000000000488
210
0
220
0
230
1
100
AcDbArc
50
90.000000000000398
51
180
0
LINE
5
186
100
AcDbEntity
8
0
100
AcDbLine
10
-19.999999999999996
20
-10.750000000000002
30
0
11
-20
21
-14.139098033589914
31
0
0
ARC
5
187
100
AcDbEntity
8
0
100
AcDbCircle
10
-30.000000000000036
20
-14.139098033589892
30
0
40
10.000000000000039
210
0
220
0
230
1
100
AcDbArc
50
322.1250163489018
51
360
0
ENDSEC
0
SECTION
2
OBJECTS
0
DICTIONARY
5
C
100
AcDbDictionary
3
ACAD_GROUP
350
D
3
ACAD_MLINESTYLE
350
17
0
DICTIONARY
5
D
100
AcDbDictionary
0
DICTIONARY
5
1A
330
C
100
AcDbDictionary
0
DICTIONARY
5
17
100
AcDbDictionary
0
ENDSEC
0
EOF
