0
SECTION
2
HEADER
9
$INSUNITS
70
4
9
$ACADVER
1
AC1014
9
$HANDSEED
5
FFFF
0
ENDSEC
0
SECTION
2
TABLES
0
TABLE
2
VPORT
5
8
100
AcDbSymbolTable
0
ENDTAB
0
TABLE
2
LTYPE
5
5
100
AcDbSymbolTable
0
LTYPE
5
14
100
AcDbSymbolTableRecord
100
AcDbLinetypeTableRecord
2
BYBLOCK
70
0
0
LTYPE
5
15
100
AcDbSymbolTableRecord
100
AcDbLinetypeTableRecord
2
BYLAYER
70
0
0
ENDTAB
0
TABLE
2
LAYER
5
2
100
AcDbSymbolTable
70
2
0
LAYER
5
50
100
AcDbSymbolTableRecord
100
AcDbLayerTableRecord
2
0
70
0
6
CONTINUOUS
0
ENDTAB
0
TABLE
2
STYLE
5
3
100
AcDbSymbolTable
70
1
0
STYLE
5
11
100
AcDbSymbolTableRecord
100
AcDbTextStyleTableRecord
2
STANDARD
70
0
0
ENDTAB
0
TABLE
2
VIEW
5
6
100
AcDbSymbolTable
70
0
0
ENDTAB
0
TABLE
2
UCS
5
7
100
AcDbSymbolTable
70
0
0
ENDTAB
0
TABLE
2
APPID
5
9
100
AcDbSymbolTable
70
2
0
APPID
5
12
100
AcDbSymbolTableRecord
100
AcDbRegAppTableRecord
2
ACAD
70
0
0
ENDTAB
0
TABLE
2
DIMSTYLE
5
A
100
AcDbSymbolTable
70
1
0
ENDTAB
0
TABLE
2
BLOCK_RECORD
5
1
100
AcDbSymbolTable
70
1
0
BLOCK_RECORD
5
1F
100
AcDbSymbolTableRecord
100
AcDbBlockTableRecord
2
*MODEL_SPACE
0
BLOCK_RECORD
5
1B
100
AcDbSymbolTableRecord
100
AcDbBlockTableRecord
2
*PAPER_SPACE
0
ENDTAB
0
ENDSEC
0
SECTION
2
BLOCKS
0
BLOCK
5
20
100
AcDbEntity
100
AcDbBlockBegin
2
*MODEL_SPACE
0
ENDBLK
5
21
100
AcDbEntity
100
AcDbBlockEnd
0
BLOCK
5
1C
100
AcDbEntity
100
AcDbBlockBegin
2
*PAPER_SPACE
0
ENDBLK
5
1D
100
AcDbEntity
100
AcDbBlockEnd
0
ENDSEC
0
SECTION
2
ENTITIES
0
CIRCLE
5
100
100
AcDbEntity
8
0
100
AcDbCircle
10
-10.000000000000002
20
10.000000000000002
30
0
40
3.0000000000000004
210
0
220
-0
230
1
0
CIRCLE
5
101
100
AcDbEntity
8
0
100
AcDbCircle
10
-10.000000000000004
20
-9.9999999999999964
30
0
40
3.0000000000000004
210
0
220
-0
230
1
0
CIRCLE
5
102
100
AcDbEntity
8
0
100
AcDbCircle
10
-15.250000000000012
20
-15.249999999999995
30
0
40
3.0000000000000004
210
0
220
-0
230
1
0
CIRCLE
5
103
100
AcDbEntity
8
0
100
AcDbCircle
10
9.9999999999999964
20
-10.000000000000004
30
0
40
3.0000000000000004
210
0
220
-0
230
1
0
CIRCLE
5
104
100
AcDbEntity
8
0
100
AcDbCircle
10
15.249999999999993
20
-15.250000000000014
30
0
40
3.0000000000000004
210
0
220
-0
230
1
0
CIRCLE
5
105
100
AcDbEntity
8
0
100
AcDbCircle
10
-15.250000000000005
20
15.250000000000011
30
0
40
3.0000000000000004
210
0
220
-0
230
1
0
CIRCLE
5
106
100
AcDbEntity
8
0
100
AcDbCircle
10
10.000000000000002
20
9.9999999999999982
30
0
40
3.0000000000000004
210
0
220
-0
230
1
0
CIRCLE
5
107
100
AcDbEntity
8
0
100
AcDbCircle
10
15.250000000000011
20
15.249999999999996
30
0
40
3.0000000000000004
210
0
220
-0
230
1
0
LWPOLYLINE
5
108
100
AcDbEntity
8
0
100
AcDbPolyline
90
4
70
1
43
0.0
10
-17.00000029802322
20
-8.4999999999999982
42
-0.99999999999999989
10
-20.000000298023224
20
-8.4999999999999964
10
-20.000000298023224
20
8.5000000000000107
42
-0.99999999999999989
10
-17.00000029802322
20
8.5000000000000053
0
CIRCLE
5
109
100
AcDbEntity
8
0
100
AcDbCircle
10
27.060317055421585
20
-34.791836214113474
30
0
40
1.5500000000000025
210
0
220
-0
230
1
0
CIRCLE
5
110
100
AcDbEntity
8
0
100
AcDbCircle
10
20.920910934739165
20
-26.898314029098273
30
0
40
1.5500000000000003
210
0
220
-0
230
1
0
CIRCLE
5
111
100
AcDbEntity
8
0
100
AcDbCircle
10
-20.920910934739165
20
26.898314029098273
30
0
40
1.5500000000000025
210
0
220
-0
230
1
0
CIRCLE
5
112
100
AcDbEntity
8
0
100
AcDbCircle
10
-27.060317055421585
20
34.791836214113474
30
0
40
1.5500000000000025
210
0
220
-0
230
1
0
CIRCLE
5
113
100
AcDbEntity
8
0
100
AcDbCircle
10
20.920910934739165
20
26.898314029098273
30
0
40
1.5500000000000003
210
0
220
-0
230
1
0
LWPOLYLINE
5
114
100
AcDbEntity
8
0
100
AcDbPolyline
90
4
70
1
43
0.0
10
17.00000029802322
20
8.5000000000000036
42
-0.99999999999999989
10
20.000000298023224
20
8.5000000000000036
10
20.000000298023224
20
-8.4999999999999982
42
-0.99999999999999989
10
17.00000029802322
20
-8.4999999999999982
0
CIRCLE
5
115
100
AcDbEntity
8
0
100
AcDbCircle
10
-27.060317055421585
20
-34.791836214113474
30
0
40
1.5500000000000025
210
0
220
-0
230
1
0
CIRCLE
5
116
100
AcDbEntity
8
0
100
AcDbCircle
10
27.060317055421585
20
34.791836214113474
30
0
40
1.5500000000000025
210
0
220
-0
230
1
0
CIRCLE
5
117
100
AcDbEntity
8
0
100
AcDbCircle
10
-20.920910934739165
20
-26.898314029098273
30
0
40
1.5500000000000025
210
0
220
-0
230
1
0
LWPOLYLINE
5
118
100
AcDbEntity
8
0
100
AcDbPolyline
90
32
70
1
43
0.0
10
31.007078142303214
20
-31.722133146538873
42
-0.6241111318741871
10
27.060317055421585
20
-39.791836214113466
10
20.25
20
-39.791836214113474
42
-0.34598971436542425
10
17.334852680137665
20
-37.500296589504707
42
0.68261215539659725
10
11.475240146008549
20
-36.707573659931171
42
-0.27230930495234235
10
8.8531266805240953
20
-38.25
10
-8.8531266805240989
20
-38.25
42
-0.27230930495234196
10
-11.475240146008549
20
-36.707573659931171
42
0.68261215539659725
10
-17.334852680137665
20
-37.500296589504707
42
-0.34598971436542425
10
-20.25
20
-39.791836214113474
10
-27.060317055421585
20
-39.791836214113466
42
-0.6241111318741871
10
-31.007078142303214
20
-31.722133146538873
10
-25.212955772326868
20
-24.272547242283551
42
0.089194107913929732
10
-21.924312916777239
20
-18.003573383323371
42
0.19489802673850065
10
-22.522738435355251
20
-10.516823710306493
42
-0.11670854800817183
10
-23.000000298023224
20
-8.5000000000000018
10
-23.000000298023217
20
8.5000000000000053
42
-0.1167085480081715
10
-22.522738435355251
20
10.516823710306491
42
0.1948980267385004
10
-21.924312916777239
20
18.003573383323364
42
0.089194107913929732
10
-25.212955772326865
20
24.272547242283551
10
-31.007078142303218
20
31.722133146538873
42
-0.62411113187418699
10
-27.060317055421585
20
39.791836214113474
10
27.060317055421585
20
39.791836214113466
42
-0.6241111318741871
10
31.007078142303214
20
31.722133146538873
10
25.212955772326865
20
24.272547242283551
42
0.089194107913929732
10
21.924312916777239
20
18.003573383323371
42
0.19489802673850051
10
22.522738435355251
20
10.516823710306493
42
-0.11670854800817183
10
23.000000298023224
20
8.5
10
23.000000298023224
20
-8.5000000000000036
42
-0.1167085480081715
10
22.522738435355251
20
-10.516823710306491
42
0.1948980267385004
10
21.924312916777239
20
-18.003573383323364
42
0.089194107913929732
10
25.212955772326865
20
-24.272547242283551
0
ENDSEC
0
SECTION
2
OBJECTS
0
DICTIONARY
5
C
100
AcDbDictionary
3
ACAD_GROUP
350
D
3
ACAD_MLINESTYLE
350
17
0
DICTIONARY
5
D
100
AcDbDictionary
0
DICTIONARY
5
1A
330
C
100
AcDbDictionary
0
DICTIONARY
5
17
100
AcDbDictionary
0
ENDSEC
0
EOF
