0
SECTION
2
HEADER
9
$INSUNITS
70
4
9
$ACADVER
1
AC1014
9
$HANDSEED
5
FFFF
0
ENDSEC
0
SECTION
2
TABLES
0
TABLE
2
VPORT
5
8
100
AcDbSymbolTable
0
ENDTAB
0
TABLE
2
LTYPE
5
5
100
AcDbSymbolTable
0
LTYPE
5
14
100
AcDbSymbolTableRecord
100
AcDbLinetypeTableRecord
2
BYBLOCK
70
0
0
LTYPE
5
15
100
AcDbSymbolTableRecord
100
AcDbLinetypeTableRecord
2
BYLAYER
70
0
0
ENDTAB
0
TABLE
2
LAYER
5
2
100
AcDbSymbolTable
70
2
0
LAYER
5
50
100
AcDbSymbolTableRecord
100
AcDbLayerTableRecord
2
0
70
0
6
CONTINUOUS
0
ENDTAB
0
TABLE
2
STYLE
5
3
100
AcDbSymbolTable
70
1
0
STYLE
5
11
100
AcDbSymbolTableRecord
100
AcDbTextStyleTableRecord
2
STANDARD
70
0
0
ENDTAB
0
TABLE
2
VIEW
5
6
100
AcDbSymbolTable
70
0
0
ENDTAB
0
TABLE
2
UCS
5
7
100
AcDbSymbolTable
70
0
0
ENDTAB
0
TABLE
2
APPID
5
9
100
AcDbSymbolTable
70
2
0
APPID
5
12
100
AcDbSymbolTableRecord
100
AcDbRegAppTableRecord
2
ACAD
70
0
0
ENDTAB
0
TABLE
2
DIMSTYLE
5
A
100
AcDbSymbolTable
70
1
0
ENDTAB
0
TABLE
2
BLOCK_RECORD
5
1
100
AcDbSymbolTable
70
1
0
BLOCK_RECORD
5
1F
100
AcDbSymbolTableRecord
100
AcDbBlockTableRecord
2
*MODEL_SPACE
0
BLOCK_RECORD
5
1B
100
AcDbSymbolTableRecord
100
AcDbBlockTableRecord
2
*PAPER_SPACE
0
ENDTAB
0
ENDSEC
0
SECTION
2
BLOCKS
0
BLOCK
5
20
100
AcDbEntity
100
AcDbBlockBegin
2
*MODEL_SPACE
0
ENDBLK
5
21
100
AcDbEntity
100
AcDbBlockEnd
0
BLOCK
5
1C
100
AcDbEntity
100
AcDbBlockBegin
2
*PAPER_SPACE
0
ENDBLK
5
1D
100
AcDbEntity
100
AcDbBlockEnd
0
ENDSEC
0
SECTION
2
ENTITIES
0
CIRCLE
5
100
100
AcDbEntity
8
0
100
AcDbCircle
10
-27.060317055421585
20
34.791836214113474
30
0
40
1.4999999999999991
210
0
220
0
230
1
0
CIRCLE
5
101
100
AcDbEntity
8
0
100
AcDbCircle
10
20.920910934739165
20
-26.898314029098273
30
0
40
1.4999999999999991
210
0
220
0
230
1
0
CIRCLE
5
102
100
AcDbEntity
8
0
100
AcDbCircle
10
-20.920910934739165
20
-26.898314029098273
30
0
40
1.4999999999999991
210
0
220
0
230
1
0
CIRCLE
5
103
100
AcDbEntity
8
0
100
AcDbCircle
10
27.060317055421585
20
34.791836214113474
30
0
40
1.4999999999999991
210
0
220
0
230
1
0
CIRCLE
5
104
100
AcDbEntity
8
0
100
AcDbCircle
10
-27.060317055421585
20
-34.791836214113474
30
0
40
1.4999999999999991
210
0
220
0
230
1
0
CIRCLE
5
105
100
AcDbEntity
8
0
100
AcDbCircle
10
27.060317055421585
20
-34.791836214113474
30
0
40
1.4999999999999991
210
0
220
0
230
1
0
CIRCLE
5
106
100
AcDbEntity
8
0
100
AcDbCircle
10
15.250000000000012
20
-15.249999999999995
30
0
40
3.0000000000000004
210
0
220
0
230
1
0
CIRCLE
5
107
100
AcDbEntity
8
0
100
AcDbCircle
10
10.000000000000002
20
10.000000000000002
30
0
40
3.0000000000000004
210
0
220
0
230
1
0
CIRCLE
5
108
100
AcDbEntity
8
0
100
AcDbCircle
10
-20.920910934739165
20
26.898314029098273
30
0
40
1.4999999999999991
210
0
220
0
230
1
0
CIRCLE
5
109
100
AcDbEntity
8
0
100
AcDbCircle
10
20.920910934739165
20
26.898314029098273
30
0
40
1.4999999999999991
210
0
220
0
230
1
0
CIRCLE
5
110
100
AcDbEntity
8
0
100
AcDbCircle
10
-15.249999999999993
20
-15.250000000000014
30
0
40
3.0000000000000004
210
0
220
0
230
1
0
CIRCLE
5
111
100
AcDbEntity
8
0
100
AcDbCircle
10
10.000000000000004
20
-9.9999999999999964
30
0
40
3.0000000000000004
210
0
220
0
230
1
0
CIRCLE
5
112
100
AcDbEntity
8
0
100
AcDbCircle
10
-9.9999999999999964
20
-10.000000000000004
30
0
40
3.0000000000000004
210
0
220
0
230
1
0
LWPOLYLINE
5
113
100
AcDbEntity
8
0
100
AcDbPolyline
90
4
70
1
43
0.0
10
-17.00000029802322
20
-9
42
-0.99999999999999989
10
-20.000000298023224
20
-8.9999999999999982
10
-20.000000298023224
20
9.0000000000000053
42
-0.99999999999999989
10
-17.00000029802322
20
9.0000000000000018
0
CIRCLE
5
114
100
AcDbEntity
8
0
100
AcDbCircle
10
-10.000000000000002
20
9.9999999999999982
30
0
40
3.0000000000000004
210
0
220
0
230
1
0
CIRCLE
5
115
100
AcDbEntity
8
0
100
AcDbCircle
10
-15.250000000000011
20
15.249999999999996
30
0
40
3.0000000000000004
210
0
220
0
230
1
0
CIRCLE
5
116
100
AcDbEntity
8
0
100
AcDbCircle
10
15.250000000000005
20
15.250000000000011
30
0
40
3.0000000000000004
210
0
220
0
230
1
0
LWPOLYLINE
5
117
100
AcDbEntity
8
0
100
AcDbPolyline
90
4
70
1
43
0.0
10
20.000000298023224
20
-9.0000000000000018
42
-0.99999999999999989
10
17.00000029802322
20
-9
10
17.00000029802322
20
9.0000000000000053
42
-0.99999999999999989
10
20.000000298023224
20
9.0000000000000036
0
LWPOLYLINE
5
118
100
AcDbEntity
8
0
100
AcDbPolyline
90
32
70
1
43
0.0
10
22.618453802944451
20
11.813378114837946
42
-0.104063950401523
10
23.000000298023224
20
9.9999998509883863
10
23.000000298023231
20
-10.000000149011612
42
-0.10406394764082318
10
22.618453822754702
20
-11.813378367869152
42
0.20528875274329167
10
22.541145413351465
20
-19.692480514231079
42
0.066573919808272056
10
25.212955772326865
20
-24.272547242283558
10
31.007078142303214
20
-31.722133146538866
42
-0.62411113187418676
10
27.060317055421589
20
-39.791836214113474
10
20.25
20
-39.791836214113474
42
-0.34598971436542425
10
17.334852680137665
20
-37.500296589504707
42
0.68261215539659825
10
11.475240146008549
20
-36.707573659931171
42
-0.27230930495234212
10
8.8531266805240971
20
-38.25
10
-8.8531266805240971
20
-38.25
42
-0.27230930495234223
10
-11.475240146008549
20
-36.707573659931171
42
0.68261215539659803
10
-17.334852680137665
20
-37.500296589504707
42
-0.34598971436542425
10
-20.25
20
-39.791836214113474
10
-27.060317055421585
20
-39.791836214113466
42
-0.6241111318741871
10
-31.007078142303214
20
-31.722133146538873
10
-25.212955772326858
20
-24.272547242283551
42
0.066573919808272153
10
-22.541145413351455
20
-19.692480514231065
42
0.20528875274328981
10
-22.618453822754695
20
-11.813378367869147
42
-0.10406394764082307
10
-23.000000298023227
20
-10.000000149011612
10
-23.000000298023224
20
9.9999998509883881
42
-0.104063950401523
10
-22.618453802944455
20
11.813378114837947
42
0.20528875126912338
10
-22.541145285685403
20
19.692480208133233
42
0.066573923972322674
10
-25.212955772326858
20
24.272547242283544
10
-31.007078142303214
20
31.722133146538873
42
-0.62411113187418743
10
-27.060317055421585
20
39.791836214113466
10
27.060317055421585
20
39.791836214113474
42
-0.62411113187418699
10
31.007078142303218
20
31.722133146538873
10
25.212955772326858
20
24.272547242283533
42
0.066573923972324381
10
22.541145285685403
20
19.692480208133215
42
0.20528875126912319
0
ENDSEC
0
SECTION
2
OBJECTS
0
DICTIONARY
5
C
100
AcDbDictionary
3
ACAD_GROUP
350
D
3
ACAD_MLINESTYLE
350
17
0
DICTIONARY
5
D
100
AcDbDictionary
0
DICTIONARY
5
1A
330
C
100
AcDbDictionary
0
DICTIONARY
5
17
100
AcDbDictionary
0
ENDSEC
0
EOF
