0
SECTION
2
HEADER
9
$INSUNITS
70
4
9
$ACADVER
1
AC1014
9
$HANDSEED
5
FFFF
0
ENDSEC
0
SECTION
2
TABLES
0
TABLE
2
VPORT
5
8
100
AcDbSymbolTable
0
ENDTAB
0
TABLE
2
LTYPE
5
5
100
AcDbSymbolTable
0
LTYPE
5
14
100
AcDbSymbolTableRecord
100
AcDbLinetypeTableRecord
2
BYBLOCK
70
0
0
LTYPE
5
15
100
AcDbSymbolTableRecord
100
AcDbLinetypeTableRecord
2
BYLAYER
70
0
0
ENDTAB
0
TABLE
2
LAYER
5
2
100
AcDbSymbolTable
70
2
0
LAYER
5
50
100
AcDbSymbolTableRecord
100
AcDbLayerTableRecord
2
0
70
0
6
CONTINUOUS
0
ENDTAB
0
TABLE
2
STYLE
5
3
100
AcDbSymbolTable
70
1
0
STYLE
5
11
100
AcDbSymbolTableRecord
100
AcDbTextStyleTableRecord
2
STANDARD
70
0
0
ENDTAB
0
TABLE
2
VIEW
5
6
100
AcDbSymbolTable
70
0
0
ENDTAB
0
TABLE
2
UCS
5
7
100
AcDbSymbolTable
70
0
0
ENDTAB
0
TABLE
2
APPID
5
9
100
AcDbSymbolTable
70
2
0
APPID
5
12
100
AcDbSymbolTableRecord
100
AcDbRegAppTableRecord
2
ACAD
70
0
0
ENDTAB
0
TABLE
2
DIMSTYLE
5
A
100
AcDbSymbolTable
70
1
0
ENDTAB
0
TABLE
2
BLOCK_RECORD
5
1
100
AcDbSymbolTable
70
1
0
BLOCK_RECORD
5
1F
100
AcDbSymbolTableRecord
100
AcDbBlockTableRecord
2
*MODEL_SPACE
0
BLOCK_RECORD
5
1B
100
AcDbSymbolTableRecord
100
AcDbBlockTableRecord
2
*PAPER_SPACE
0
ENDTAB
0
ENDSEC
0
SECTION
2
BLOCKS
0
BLOCK
5
20
100
AcDbEntity
100
AcDbBlockBegin
2
*MODEL_SPACE
0
ENDBLK
5
21
100
AcDbEntity
100
AcDbBlockEnd
0
BLOCK
5
1C
100
AcDbEntity
100
AcDbBlockBegin
2
*PAPER_SPACE
0
ENDBLK
5
1D
100
AcDbEntity
100
AcDbBlockEnd
0
ENDSEC
0
SECTION
2
ENTITIES
0
CIRCLE
5
100
100
AcDbEntity
8
0
100
AcDbCircle
10
26.139406135149201
20
33.607807888048981
30
0
40
1.5500000000000025
210
0
220
0
230
1
0
CIRCLE
5
101
100
AcDbEntity
8
0
100
AcDbCircle
10
-9.9999999999999964
20
-10.000000000000004
30
0
40
3.0000000000000004
210
0
220
0
230
1
0
CIRCLE
5
102
100
AcDbEntity
8
0
100
AcDbCircle
10
26.139406135149201
20
-33.607807888048981
30
0
40
1.5500000000000025
210
0
220
0
230
1
0
CIRCLE
5
103
100
AcDbEntity
8
0
100
AcDbCircle
10
-26.139406135149201
20
33.607807888048981
30
0
40
1.5500000000000025
210
0
220
0
230
1
0
CIRCLE
5
104
100
AcDbEntity
8
0
100
AcDbCircle
10
22.455762454059688
20
28.871694583791019
30
0
40
1.549999999999998
210
0
220
0
230
1
0
CIRCLE
5
105
100
AcDbEntity
8
0
100
AcDbCircle
10
10.000000000000004
20
-9.9999999999999964
30
0
40
3.0000000000000004
210
0
220
0
230
1
0
CIRCLE
5
106
100
AcDbEntity
8
0
100
AcDbCircle
10
-22.455762454059688
20
-28.871694583791019
30
0
40
1.549999999999998
210
0
220
0
230
1
0
CIRCLE
5
107
100
AcDbEntity
8
0
100
AcDbCircle
10
22.455762454059688
20
-28.871694583791019
30
0
40
1.549999999999998
210
0
220
0
230
1
0
CIRCLE
5
108
100
AcDbEntity
8
0
100
AcDbCircle
10
-26.139406135149201
20
-33.607807888048981
30
0
40
1.5500000000000025
210
0
220
0
230
1
0
CIRCLE
5
109
100
AcDbEntity
8
0
100
AcDbCircle
10
-22.455762454059688
20
28.871694583791019
30
0
40
1.549999999999998
210
0
220
0
230
1
0
CIRCLE
5
110
100
AcDbEntity
8
0
100
AcDbCircle
10
-10.000000000000002
20
9.9999999999999982
30
0
40
3.0000000000000004
210
0
220
0
230
1
0
CIRCLE
5
111
100
AcDbEntity
8
0
100
AcDbCircle
10
15.250000000000005
20
15.250000000000011
30
0
40
3.0000000000000004
210
0
220
0
230
1
0
CIRCLE
5
112
100
AcDbEntity
8
0
100
AcDbCircle
10
-15.249999999999993
20
-15.250000000000014
30
0
40
3.0000000000000004
210
0
220
0
230
1
0
CIRCLE
5
113
100
AcDbEntity
8
0
100
AcDbCircle
10
-15.250000000000011
20
15.249999999999996
30
0
40
3.0000000000000004
210
0
220
0
230
1
0
CIRCLE
5
114
100
AcDbEntity
8
0
100
AcDbCircle
10
15.250000000000012
20
-15.249999999999995
30
0
40
3.0000000000000004
210
0
220
0
230
1
0
CIRCLE
5
115
100
AcDbEntity
8
0
100
AcDbCircle
10
10.000000000000002
20
10.000000000000002
30
0
40
3.0000000000000004
210
0
220
0
230
1
0
LWPOLYLINE
5
116
100
AcDbEntity
8
0
100
AcDbPolyline
90
36
70
1
43
0.0
10
30.086167222030834
20
30.538104820474388
10
22.106477826236741
20
20.278504168739111
42
0.16678189791832843
10
20
20
14.13909803358991
10
20
20
10.750000000000004
42
-0.41421356237308982
10
19.5
20
10.250000000000004
10
18.499999999999996
20
10.25
42
0.41421356237309243
10
18.000000000000004
20
9.7500000000000053
10
18.000000000000004
20
-9.7500000000000036
42
0.41421356237309764
10
18.5
20
-10.250000000000004
10
19.5
20
-10.250000000000004
42
-0.41421356237308982
10
19.999999999999996
20
-10.750000000000002
10
19.999999999999993
20
-14.139098033589917
42
0.1667818979183282
10
22.106477826236741
20
-20.278504168739122
10
30.086167222030824
20
-30.538104820474395
42
-1.0192932088937741
10
22.078241824812149
20
-36.524474554715638
42
0.24153136105887033
10
16.392611790340258
20
-33.607807888048981
10
-16.392611790340229
20
-33.607807888048981
42
0.24153136105887105
10
-22.078241824812139
20
-36.524474554715646
42
-1.0192932088937741
10
-30.086167222030838
20
-30.538104820474388
10
-22.106477826236741
20
-20.278504168739119
42
0.16678189791832737
10
-20
20
-14.139098033589912
10
-19.999999999999996
20
-10.750000000000002
42
-0.41421356237308854
10
-19.5
20
-10.250000000000004
10
-18.5
20
-10.250000000000002
42
0.41421356237309631
10
-18
20
-9.7500000000000053
10
-18
20
9.7500000000000053
42
0.41421356237309698
10
-18.500000000000007
20
10.250000000000004
10
-19.5
20
10.250000000000005
42
-0.41421356237308721
10
-20
20
10.750000000000002
10
-19.999999999999996
20
14.13909803358991
42
0.16678189791832887
10
-22.106477826236741
20
20.278504168739122
10
-30.086167222030824
20
30.538104820474388
42
-1.0192932088937741
10
-22.078241824812149
20
36.524474554715646
42
0.24153136105887232
10
-16.392611790340254
20
33.607807888048981
10
16.39261179034024
20
33.607807888048974
42
0.24153136105887224
10
22.078241824812142
20
36.524474554715646
42
-1.0192932088937741
0
ENDSEC
0
SECTION
2
OBJECTS
0
DICTIONARY
5
C
100
AcDbDictionary
3
ACAD_GROUP
350
D
3
ACAD_MLINESTYLE
350
17
0
DICTIONARY
5
D
100
AcDbDictionary
0
DICTIONARY
5
1A
330
C
100
AcDbDictionary
0
DICTIONARY
5
17
100
AcDbDictionary
0
ENDSEC
0
EOF
