0
SECTION
2
HEADER
9
$INSUNITS
70
4
9
$ACADVER
1
AC1014
9
$HANDSEED
5
FFFF
0
ENDSEC
0
SECTION
2
TABLES
0
TABLE
2
VPORT
5
8
100
AcDbSymbolTable
0
ENDTAB
0
TABLE
2
LTYPE
5
5
100
AcDbSymbolTable
0
LTYPE
5
14
100
AcDbSymbolTableRecord
100
AcDbLinetypeTableRecord
2
BYBLOCK
70
0
0
LTYPE
5
15
100
AcDbSymbolTableRecord
100
AcDbLinetypeTableRecord
2
BYLAYER
70
0
0
ENDTAB
0
TABLE
2
LAYER
5
2
100
AcDbSymbolTable
70
2
0
LAYER
5
50
100
AcDbSymbolTableRecord
100
AcDbLayerTableRecord
2
0
70
0
6
CONTINUOUS
0
ENDTAB
0
TABLE
2
STYLE
5
3
100
AcDbSymbolTable
70
1
0
STYLE
5
11
100
AcDbSymbolTableRecord
100
AcDbTextStyleTableRecord
2
STANDARD
70
0
0
ENDTAB
0
TABLE
2
VIEW
5
6
100
AcDbSymbolTable
70
0
0
ENDTAB
0
TABLE
2
UCS
5
7
100
AcDbSymbolTable
70
0
0
ENDTAB
0
TABLE
2
APPID
5
9
100
AcDbSymbolTable
70
2
0
APPID
5
12
100
AcDbSymbolTableRecord
100
AcDbRegAppTableRecord
2
ACAD
70
0
0
ENDTAB
0
TABLE
2
DIMSTYLE
5
A
100
AcDbSymbolTable
70
1
0
ENDTAB
0
TABLE
2
BLOCK_RECORD
5
1
100
AcDbSymbolTable
70
1
0
BLOCK_RECORD
5
1F
100
AcDbSymbolTableRecord
100
AcDbBlockTableRecord
2
*MODEL_SPACE
0
BLOCK_RECORD
5
1B
100
AcDbSymbolTableRecord
100
AcDbBlockTableRecord
2
*PAPER_SPACE
0
ENDTAB
0
ENDSEC
0
SECTION
2
BLOCKS
0
BLOCK
5
20
100
AcDbEntity
100
AcDbBlockBegin
2
*MODEL_SPACE
0
ENDBLK
5
21
100
AcDbEntity
100
AcDbBlockEnd
0
BLOCK
5
1C
100
AcDbEntity
100
AcDbBlockBegin
2
*PAPER_SPACE
0
ENDBLK
5
1D
100
AcDbEntity
100
AcDbBlockEnd
0
ENDSEC
0
SECTION
2
ENTITIES
0
LWPOLYLINE
5
100
100
AcDbEntity
8
0
100
AcDbPolyline
90
22
70
1
43
0.0
10
9.8690879580215416
20
46.22515953270117
42
-0.16754462323607594
10
13.566772015715397
20
47.500000000000007
10
14.250000000000021
20
47.5
42
-0.41421356237309503
10
18.500000000000021
20
43.249999999999993
10
18.5
20
-38.249999999999993
42
-0.4142135623730957
10
14.250000000000004
20
-42.5
10
8.7437366372294285
20
-42.499999999929173
42
-0.085153674769275267
10
5.4107986223844806
20
-41.928230172618079
42
0.17155129341272121
10
-5.4107986223844566
20
-41.928230172618058
42
-0.085153674768647686
10
-8.7437366372044849
20
-42.499999999929123
10
-14.250000000000004
20
-42.499999999999993
42
-0.41421356237309503
10
-18.500000000000004
20
-38.249999999999993
10
-18.500000000000011
20
43.249999999999993
42
-0.41421356237309503
10
-14.250000000000004
20
47.5
10
-13.566772015715397
20
47.500000000000071
42
-0.16754462323600106
10
-9.8690879580228845
20
46.225159532702293
42
-0.22031179677730206
10
-7.7500000000000036
20
41.649296584313547
10
-7.7499999999999991
20
37.5
42
0.41421356237309553
10
-2.7499999999999987
20
32.5
10
2.7499999999999996
20
32.5
42
0.41421356237309553
10
7.7499999999999991
20
37.5
10
7.7499999999999876
20
41.649296584313547
42
-0.22031179677722568
0
CIRCLE
5
101
100
AcDbEntity
8
0
100
AcDbCircle
10
14.249999999999998
20
22.5
30
0
40
1.5999999999999992
210
0
220
0
230
1
0
CIRCLE
5
102
100
AcDbEntity
8
0
100
AcDbCircle
10
-14.250000000000004
20
-22.5
30
0
40
1.5999999999999992
210
0
220
0
230
1
0
CIRCLE
5
103
100
AcDbEntity
8
0
100
AcDbCircle
10
-14.249999999999998
20
22.5
30
0
40
1.5999999999999992
210
0
220
0
230
1
0
CIRCLE
5
104
100
AcDbEntity
8
0
100
AcDbCircle
10
14.249999999999998
20
-22.5
30
0
40
1.5999999999999992
210
0
220
0
230
1
0
LWPOLYLINE
5
105
100
AcDbEntity
8
0
100
AcDbPolyline
90
6
70
1
43
0.0
10
10.818404412399921
20
-16.22531686835632
42
-0.90070599041562127
10
8.6925195962245354
20
-18.318854768921135
10
2.5589272174689399
20
-13.270197621776145
42
-0.22417557464972254
10
1.4654781277978151
20
-10.953936922648325
10
1.4654781277978115
20
-8.786404422965207
42
-0.70948243956844537
10
4.1380874888087638
20
-7.8509968719643108
0
LWPOLYLINE
5
106
100
AcDbEntity
8
0
100
AcDbPolyline
90
6
70
1
43
0.0
10
10.818404412399921
20
17.108016464977005
42
-0.90070599041561805
10
8.6925195962245336
20
15.014478564412199
10
2.5589272174689368
20
20.063135711557187
42
-0.22417557464972174
10
1.4654781277978151
20
22.379396410685008
10
1.4654781277978115
20
24.546928910368131
42
-0.70948243956844537
10
4.1380874888087638
20
25.482336461369023
0
LWPOLYLINE
5
107
100
AcDbEntity
8
0
100
AcDbPolyline
90
6
70
1
43
0.0
10
10.818404412399925
20
0.44134979831034304
42
-0.90070599041561927
10
8.6925195962245354
20
-1.6521881022544682
10
2.5589272174689386
20
3.3964690448905213
42
-0.22417557464972196
10
1.4654781277978151
20
5.7127297440183433
10
1.4654781277978115
20
7.88026224370146
42
-0.70948243956844537
10
4.1380874888087638
20
8.815669794702357
0
LWPOLYLINE
5
108
100
AcDbEntity
8
0
100
AcDbPolyline
90
6
70
1
43
0.0
10
10.818404412399921
20
-32.891983535022987
42
-0.90070599041562083
10
8.6925195962245354
20
-34.985521435587799
10
2.5589272174689368
20
-29.936864288442813
42
-0.22417557464972174
10
1.4654781277978151
20
-27.620603589314992
10
1.4654781277978115
20
-25.453071089631869
42
-0.70948243956844537
10
4.1380874888087638
20
-24.517663538630977
0
LWPOLYLINE
5
109
100
AcDbEntity
8
0
100
AcDbPolyline
90
6
70
1
43
0.0
10
-4.1380874888087611
20
-7.8509968719643126
10
-10.818404412399921
20
-16.225316868356327
42
0.90070599041561961
10
-8.6925195962245354
20
-18.318854768921138
10
-2.5589272174689359
20
-13.270197621776148
42
0.22417557464972201
10
-1.4654781277978137
20
-10.953936922648321
10
-1.4654781277978142
20
-8.7864044229652052
42
0.70948243956844492
0
LWPOLYLINE
5
110
100
AcDbEntity
8
0
100
AcDbPolyline
90
6
70
1
43
0.0
10
-8.6925195962245354
20
15.014478564412197
10
-2.5589272174689368
20
20.063135711557187
42
0.22417557464972199
10
-1.4654781277978137
20
22.379396410685011
10
-1.4654781277978142
20
24.546928910368131
42
0.70948243956844503
10
-4.1380874888087638
20
25.482336461369023
10
-10.818404412399921
20
17.108016464977005
42
0.90070599041561883
0
LWPOLYLINE
5
111
100
AcDbEntity
8
0
100
AcDbPolyline
90
6
70
1
43
0.0
10
-4.1380874888087611
20
8.8156697947023552
10
-10.818404412399921
20
0.44134979831034205
42
0.90070599041562083
10
-8.6925195962245354
20
-1.6521881022544704
10
-2.5589272174689359
20
3.3964690448905213
42
0.2241755746497219
10
-1.4654781277978137
20
5.7127297440183451
10
-1.4654781277978142
20
7.8802622437014609
42
0.70948243956844492
0
LWPOLYLINE
5
112
100
AcDbEntity
8
0
100
AcDbPolyline
90
6
70
1
43
0.0
10
-4.1380874888087629
20
-24.51766353863098
10
-10.818404412399921
20
-32.891983535022995
42
0.90070599041561983
10
-8.6925195962245354
20
-34.985521435587799
10
-2.5589272174689359
20
-29.936864288442813
42
0.2241755746497219
10
-1.4654781277978137
20
-27.620603589314989
10
-1.4654781277978146
20
-25.453071089631869
42
0.70948243956844559
0
CIRCLE
5
113
100
AcDbEntity
8
0
100
AcDbCircle
10
-14.250000000000004
20
43.249999999999993
30
0
40
1.6000000000000014
210
0
220
-0
230
1
0
CIRCLE
5
114
100
AcDbEntity
8
0
100
AcDbCircle
10
-14.250000000000004
20
-38.249999999999993
30
0
40
1.6000000000000014
210
0
220
-0
230
1
0
CIRCLE
5
115
100
AcDbEntity
8
0
100
AcDbCircle
10
14.250000000000021
20
43.249999999999993
30
0
40
1.6000000000000014
210
0
220
-0
230
1
0
CIRCLE
5
116
100
AcDbEntity
8
0
100
AcDbCircle
10
14.250000000000004
20
-38.25
30
0
40
1.6000000000000014
210
0
220
-0
230
1
0
ENDSEC
0
SECTION
2
OBJECTS
0
DICTIONARY
5
C
100
AcDbDictionary
3
ACAD_GROUP
350
D
3
ACAD_MLINESTYLE
350
17
0
DICTIONARY
5
D
100
AcDbDictionary
0
DICTIONARY
5
1A
330
C
100
AcDbDictionary
0
DICTIONARY
5
17
100
AcDbDictionary
0
ENDSEC
0
EOF
