0
SECTION
2
HEADER
9
$INSUNITS
70
4
9
$ACADVER
1
AC1014
9
$HANDSEED
5
FFFF
0
ENDSEC
0
SECTION
2
TABLES
0
TABLE
2
VPORT
5
8
100
AcDbSymbolTable
0
ENDTAB
0
TABLE
2
LTYPE
5
5
100
AcDbSymbolTable
0
LTYPE
5
14
100
AcDbSymbolTableRecord
100
AcDbLinetypeTableRecord
2
BYBLOCK
70
0
0
LTYPE
5
15
100
AcDbSymbolTableRecord
100
AcDbLinetypeTableRecord
2
BYLAYER
70
0
0
ENDTAB
0
TABLE
2
LAYER
5
2
100
AcDbSymbolTable
70
2
0
LAYER
5
50
100
AcDbSymbolTableRecord
100
AcDbLayerTableRecord
2
0
70
0
6
CONTINUOUS
0
ENDTAB
0
TABLE
2
STYLE
5
3
100
AcDbSymbolTable
70
1
0
STYLE
5
11
100
AcDbSymbolTableRecord
100
AcDbTextStyleTableRecord
2
STANDARD
70
0
0
ENDTAB
0
TABLE
2
VIEW
5
6
100
AcDbSymbolTable
70
0
0
ENDTAB
0
TABLE
2
UCS
5
7
100
AcDbSymbolTable
70
0
0
ENDTAB
0
TABLE
2
APPID
5
9
100
AcDbSymbolTable
70
2
0
APPID
5
12
100
AcDbSymbolTableRecord
100
AcDbRegAppTableRecord
2
ACAD
70
0
0
ENDTAB
0
TABLE
2
DIMSTYLE
5
A
100
AcDbSymbolTable
70
1
0
ENDTAB
0
TABLE
2
BLOCK_RECORD
5
1
100
AcDbSymbolTable
70
1
0
BLOCK_RECORD
5
1F
100
AcDbSymbolTableRecord
100
AcDbBlockTableRecord
2
*MODEL_SPACE
0
BLOCK_RECORD
5
1B
100
AcDbSymbolTableRecord
100
AcDbBlockTableRecord
2
*PAPER_SPACE
0
ENDTAB
0
ENDSEC
0
SECTION
2
BLOCKS
0
BLOCK
5
20
100
AcDbEntity
100
AcDbBlockBegin
2
*MODEL_SPACE
0
ENDBLK
5
21
100
AcDbEntity
100
AcDbBlockEnd
0
BLOCK
5
1C
100
AcDbEntity
100
AcDbBlockBegin
2
*PAPER_SPACE
0
ENDBLK
5
1D
100
AcDbEntity
100
AcDbBlockEnd
0
ENDSEC
0
SECTION
2
ENTITIES
0
LWPOLYLINE
5
100
100
AcDbEntity
8
0
100
AcDbPolyline
90
8
70
1
43
0.0
10
1.5000000000000038
20
8.0673437539016426
10
1.5000000000000038
20
4.8205432617649553
42
0.22988911158942549
10
1.9576946710772891
20
3.8776844183249954
10
8.6733854594901434
20
-1.4095259571414624
42
0.1682985283971673
10
9.41569078841286
20
-1.6666671137015032
10
9.5077046553657123
20
-1.6666671137015032
42
0.62839304406632179
10
10.445792144174472
20
0.28165892709921314
10
3.638087488808762
20
8.815669794702357
42
0.7094824395684447
0
LWPOLYLINE
5
101
100
AcDbEntity
8
0
100
AcDbPolyline
90
8
70
1
43
0.0
10
1.5000000000000038
20
24.73401042056831
10
1.5000000000000038
20
21.487209928431625
42
0.2298891115894256
10
1.9576946710772891
20
20.544351084991664
10
8.6733854594901434
20
15.257140709525206
42
0.16829852839716797
10
9.41569078841286
20
14.999999552965164
10
9.5077046553657123
20
14.999999552965164
42
0.62839304406632179
10
10.445792144174472
20
16.94832559376588
10
3.638087488808762
20
25.482336461369023
42
0.70948243956844792
0
LWPOLYLINE
5
102
100
AcDbEntity
8
0
100
AcDbPolyline
90
8
70
1
43
0.0
10
-1.5000000000000053
20
4.8205432617649606
10
-1.5000000000000031
20
8.0673437539016408
42
0.70948243956844559
10
-3.6380874888087633
20
8.8156697947023552
10
-10.445792144174476
20
0.28165892709921342
42
0.6283930440663219
10
-9.5077046553657141
20
-1.6666671137015032
10
-9.4156907884128582
20
-1.6666671137015012
42
0.16829852839716888
10
-8.6733854594901416
20
-1.4095259571414598
10
-1.9576946710772902
20
3.8776844183249959
42
0.22988911158942724
0
LWPOLYLINE
5
103
100
AcDbEntity
8
0
100
AcDbPolyline
90
8
70
1
43
0.0
10
1.5000000000000038
20
-8.5993229127650253
10
1.5000000000000038
20
-11.846123404901711
42
0.22988911158942629
10
1.9576946710772902
20
-12.788982248341673
10
8.6733854594901434
20
-18.076192623808129
42
0.16829852839716797
10
9.41569078841286
20
-18.333333780368172
10
9.5077046553657123
20
-18.333333780368172
42
0.62839304406632179
10
10.445792144174472
20
-16.385007739567456
10
3.638087488808762
20
-7.8509968719643108
42
0.7094824395684447
0
LWPOLYLINE
5
104
100
AcDbEntity
8
0
100
AcDbPolyline
90
8
70
1
43
0.0
10
-1.5000000000000053
20
-28.512790071568372
10
-1.5000000000000031
20
-25.26598957943169
42
0.7094824395684457
10
-3.6380874888087633
20
-24.517663538630977
10
-10.445792144174476
20
-33.05167440623412
42
0.62839304406632113
10
-9.5077046553657141
20
-35.000000447034836
10
-9.4156907884128564
20
-35.000000447034829
42
0.16829852839717582
10
-8.6733854594901416
20
-34.74285929047479
10
-1.9576946710772902
20
-29.455648915008336
42
0.22988911158942626
0
LWPOLYLINE
5
105
100
AcDbEntity
8
0
100
AcDbPolyline
90
8
70
1
43
0.0
10
-1.5000000000000036
20
21.487209928431628
10
-1.5000000000000031
20
24.73401042056831
42
0.7094824395684457
10
-3.6380874888087646
20
25.482336461369023
10
-10.445792144174476
20
16.94832559376588
42
0.62839304406632068
10
-9.5077046553657141
20
14.999999552965164
10
-9.4156907884128582
20
14.999999552965166
42
0.168298528397167
10
-8.6733854594901416
20
15.257140709525208
10
-1.9576946710772902
20
20.544351084991664
42
0.22988911158942626
0
LWPOLYLINE
5
106
100
AcDbEntity
8
0
100
AcDbPolyline
90
8
70
1
43
0.0
10
-1.5000000000000053
20
-11.846123404901707
10
-1.5000000000000031
20
-8.5993229127650253
42
0.70948243956844559
10
-3.6380874888087633
20
-7.8509968719643117
10
-10.445792144174476
20
-16.385007739567456
42
0.62839304406632068
10
-9.5077046553657141
20
-18.333333780368172
10
-9.4156907884128582
20
-18.333333780368168
42
0.168298528397167
10
-8.6733854594901416
20
-18.076192623808126
10
-1.9576946710772902
20
-12.788982248341672
42
0.22988911158942626
0
LWPOLYLINE
5
107
100
AcDbEntity
8
0
100
AcDbPolyline
90
8
70
1
43
0.0
10
1.5000000000000038
20
-25.26598957943169
10
1.5000000000000038
20
-28.512790071568375
42
0.2298891115894256
10
1.9576946710772891
20
-29.455648915008336
10
8.6733854594901434
20
-34.742859290474797
42
0.16829852839716833
10
9.41569078841286
20
-35.000000447034836
10
9.5077046553657123
20
-35.000000447034836
42
0.62839304406632113
10
10.445792144174472
20
-33.05167440623412
10
3.638087488808762
20
-24.517663538630977
42
0.70948243956844792
0
CIRCLE
5
108
100
AcDbEntity
8
0
100
AcDbCircle
10
-14.249999999999991
20
-22.5
30
0
40
1.5999999999999992
210
0
220
-0
230
1
0
CIRCLE
5
109
100
AcDbEntity
8
0
100
AcDbCircle
10
-14.250000000000004
20
-38.249999999999993
30
0
40
1.6000000000000014
210
0
220
-0
230
1
0
CIRCLE
5
110
100
AcDbEntity
8
0
100
AcDbCircle
10
14.250000000000004
20
43.249999999999993
30
0
40
1.6000000000000014
210
0
220
-0
230
1
0
CIRCLE
5
111
100
AcDbEntity
8
0
100
AcDbCircle
10
14.250000000000009
20
27.5
30
0
40
1.6000000000000014
210
0
220
-0
230
1
0
CIRCLE
5
112
100
AcDbEntity
8
0
100
AcDbCircle
10
14.250000000000009
20
-22.5
30
0
40
1.6000000000000014
210
0
220
-0
230
1
0
CIRCLE
5
113
100
AcDbEntity
8
0
100
AcDbCircle
10
-14.250000000000004
20
43.249999999999993
30
0
40
1.6000000000000014
210
0
220
-0
230
1
0
CIRCLE
5
114
100
AcDbEntity
8
0
100
AcDbCircle
10
-14.249999999999991
20
27.5
30
0
40
1.5999999999999992
210
0
220
-0
230
1
0
CIRCLE
5
115
100
AcDbEntity
8
0
100
AcDbCircle
10
14.250000000000004
20
-38.25
30
0
40
1.6000000000000014
210
0
220
-0
230
1
0
LWPOLYLINE
5
116
100
AcDbEntity
8
0
100
AcDbPolyline
90
20
70
1
43
0.0
10
-7.7499999999999991
20
44.5
10
-7.7499999999999991
20
37.5
42
0.41421356237309553
10
-2.7499999999999987
20
32.5
10
2.7499999999999996
20
32.5
42
0.41421356237309553
10
7.7499999999999991
20
37.5
10
7.7500000000000018
20
44.5
42
-0.41421356237309398
10
10.749999999999996
20
47.499999999999993
10
14.250000000000021
20
47.500000000000014
42
-0.41421356237309381
10
18.500000000000021
20
43.249999999999993
10
18.5
20
-38.249999999999993
42
-0.4142135623730957
10
14.250000000000004
20
-42.5
10
12.609519035906411
20
-42.5
42
-0.11732038147575233
10
8.1061194233650564
20
-41.42857166235239
42
0.23791544829017897
10
-8.1061194233650298
20
-41.428571662352397
42
-0.11732038147575199
10
-12.609519035906402
20
-42.5
10
-14.250000000000004
20
-42.499999999999993
42
-0.41421356237309503
10
-18.500000000000004
20
-38.249999999999993
10
-18.500000000000011
20
43.249999999999993
42
-0.41421356237309503
10
-14.250000000000004
20
47.5
10
-10.75
20
47.499999999999993
42
-0.4142135623730942
0
ENDSEC
0
SECTION
2
OBJECTS
0
DICTIONARY
5
C
100
AcDbDictionary
3
ACAD_GROUP
350
D
3
ACAD_MLINESTYLE
350
17
0
DICTIONARY
5
D
100
AcDbDictionary
0
DICTIONARY
5
1A
330
C
100
AcDbDictionary
0
DICTIONARY
5
17
100
AcDbDictionary
0
ENDSEC
0
EOF
