0
SECTION
2
HEADER
9
$INSUNITS
70
4
9
$ACADVER
1
AC1014
9
$HANDSEED
5
FFFF
0
ENDSEC
0
SECTION
2
TABLES
0
TABLE
2
VPORT
5
8
100
AcDbSymbolTable
0
ENDTAB
0
TABLE
2
LTYPE
5
5
100
AcDbSymbolTable
0
LTYPE
5
14
100
AcDbSymbolTableRecord
100
AcDbLinetypeTableRecord
2
BYBLOCK
70
0
0
LTYPE
5
15
100
AcDbSymbolTableRecord
100
AcDbLinetypeTableRecord
2
BYLAYER
70
0
0
ENDTAB
0
TABLE
2
LAYER
5
2
100
AcDbSymbolTable
70
2
0
LAYER
5
50
100
AcDbSymbolTableRecord
100
AcDbLayerTableRecord
2
0
70
0
6
CONTINUOUS
0
ENDTAB
0
TABLE
2
STYLE
5
3
100
AcDbSymbolTable
70
1
0
STYLE
5
11
100
AcDbSymbolTableRecord
100
AcDbTextStyleTableRecord
2
STANDARD
70
0
0
ENDTAB
0
TABLE
2
VIEW
5
6
100
AcDbSymbolTable
70
0
0
ENDTAB
0
TABLE
2
UCS
5
7
100
AcDbSymbolTable
70
0
0
ENDTAB
0
TABLE
2
APPID
5
9
100
AcDbSymbolTable
70
2
0
APPID
5
12
100
AcDbSymbolTableRecord
100
AcDbRegAppTableRecord
2
ACAD
70
0
0
ENDTAB
0
TABLE
2
DIMSTYLE
5
A
100
AcDbSymbolTable
70
1
0
ENDTAB
0
TABLE
2
BLOCK_RECORD
5
1
100
AcDbSymbolTable
70
1
0
BLOCK_RECORD
5
1F
100
AcDbSymbolTableRecord
100
AcDbBlockTableRecord
2
*MODEL_SPACE
0
BLOCK_RECORD
5
1B
100
AcDbSymbolTableRecord
100
AcDbBlockTableRecord
2
*PAPER_SPACE
0
ENDTAB
0
ENDSEC
0
SECTION
2
BLOCKS
0
BLOCK
5
20
100
AcDbEntity
100
AcDbBlockBegin
2
*MODEL_SPACE
0
ENDBLK
5
21
100
AcDbEntity
100
AcDbBlockEnd
0
BLOCK
5
1C
100
AcDbEntity
100
AcDbBlockBegin
2
*PAPER_SPACE
0
ENDBLK
5
1D
100
AcDbEntity
100
AcDbBlockEnd
0
ENDSEC
0
SECTION
2
ENTITIES
0
LWPOLYLINE
5
100
100
AcDbEntity
8
0
100
AcDbPolyline
90
8
70
1
43
0.0
10
-9.9230872426070817
20
-30.000000447034836
10
-9.3464090126957835
20
-30.000000447034836
42
0.16829852839716827
10
-8.727821238593517
20
-29.785716149901464
10
-1.8814122258977406
20
-24.395592347735295
42
0.22988911158942535
10
-1.5000000000000038
20
-23.609876644868663
10
-1.5000000000000027
20
-19.694557510457852
42
0.70948243956844603
10
-3.281739574007303
20
-19.070952476457258
10
-10.704826816614382
20
-28.376395413034238
42
0.62839304406632279
0
LWPOLYLINE
5
101
100
AcDbEntity
8
0
100
AcDbPolyline
90
8
70
1
43
0.0
10
-2.9166666666666652
20
-6.3634154002041665
42
-0.17970931960134853
10
-6.3634154002041674
20
-2.9166666666666652
42
-0.54648810365226064
10
-5.4543560573178578
20
-1.5000000000000004
10
-4.3301270189221919
20
-1.5000000000000009
42
-0.26794919243112275
10
-3.4641016151377535
20
-2.0000000000000009
42
0.13165249758739619
10
-2.0000000000000013
20
-3.4641016151377526
42
-0.26794919243112297
10
-1.5000000000000004
20
-4.3301270189221919
10
-1.5000000000000018
20
-5.4543560573178578
42
-0.54648810365226086
0
LWPOLYLINE
5
102
100
AcDbEntity
8
0
100
AcDbPolyline
90
8
70
1
43
0.0
10
6.3634154002041559
20
-2.9166666666666607
42
-0.17970931960134784
10
2.9166666666666687
20
-6.363415400204163
42
-0.54648810365226241
10
1.4999999999999987
20
-5.4543560573178551
10
1.4999999999999989
20
-4.3301270189221928
42
-0.26794919243112286
10
1.9999999999999993
20
-3.4641016151377539
42
0.13165249758739564
10
3.4641016151377513
20
-2.0000000000000022
42
-0.26794919243112308
10
4.330127018922191
20
-1.5000000000000011
10
5.4543560573178551
20
-1.5000000000000004
42
-0.54648810365226108
0
LWPOLYLINE
5
103
100
AcDbEntity
8
0
100
AcDbPolyline
90
8
70
1
43
0.0
10
1.9576946710772902
20
20.544351084991664
10
8.6733854594901434
20
15.257140709525206
42
0.16829852839716791
10
9.41569078841286
20
14.999999552965164
10
9.5077046553657123
20
14.999999552965164
42
0.62839304406632179
10
10.445792144174472
20
16.94832559376588
10
3.6380874888087633
20
25.482336461369023
42
0.70948243956844526
10
1.5000000000000033
20
24.73401042056831
10
1.500000000000004
20
21.487209928431625
42
0.22988911158942546
0
LWPOLYLINE
5
104
100
AcDbEntity
8
0
100
AcDbPolyline
90
8
70
1
43
0.0
10
1.8814122258977406
20
-24.395592347735295
10
8.7278212385935294
20
-29.785716149901468
42
0.16829852839716758
10
9.3464090126957942
20
-30.000000447034836
10
9.9230872426070817
20
-30.000000447034836
42
0.62839304406632079
10
10.704826816614384
20
-28.376395413034242
10
3.281739574007303
20
-19.070952476457258
42
0.70948243956844503
10
1.5000000000000031
20
-19.694557510457855
10
1.5000000000000044
20
-23.609876644868663
42
0.22988911158942515
0
LWPOLYLINE
5
105
100
AcDbEntity
8
0
100
AcDbPolyline
90
8
70
1
43
0.0
10
-6.3634154002041807
20
2.9166666666666696
42
-0.17970931960134784
10
-2.9166666666666718
20
6.3634154002041656
42
-0.54648810365226275
10
-1.5000000000000011
20
5.4543560573178578
10
-1.5000000000000011
20
4.330127018922191
42
-0.26794919243112264
10
-2.0000000000000009
20
3.4641016151377531
42
0.13165249758739569
10
-3.4641016151377535
20
2
42
-0.26794919243112236
10
-4.330127018922191
20
1.5000000000000013
10
-5.4543560573178578
20
1.5000000000000013
42
-0.54648810365226075
0
LWPOLYLINE
5
106
100
AcDbEntity
8
0
100
AcDbPolyline
90
8
70
1
43
0.0
10
2.9166666666666634
20
6.3634154002041665
42
-0.17970931960134762
10
6.3634154002041674
20
2.9166666666666652
42
-0.54648810365226086
10
5.4543560573178578
20
1.4999999999999996
10
4.3301270189221928
20
1.4999999999999996
42
-0.26794919243112286
10
3.4641016151377544
20
2.0000000000000004
42
0.13165249758739525
10
1.9999999999999991
20
3.4641016151377553
42
-0.26794919243112247
10
1.4999999999999993
20
4.3301270189221936
10
1.5000000000000013
20
5.4543560573178578
42
-0.54648810365226075
0
LWPOLYLINE
5
107
100
AcDbEntity
8
0
100
AcDbPolyline
90
8
70
1
43
0.0
10
-9.5077046553657141
20
14.999999552965164
10
-9.4156907884128582
20
14.999999552965164
42
0.16829852839716802
10
-8.6733854594901416
20
15.257140709525208
10
-1.9576946710772885
20
20.544351084991664
42
0.22988911158942532
10
-1.5000000000000038
20
21.487209928431625
10
-1.5000000000000031
20
24.73401042056831
42
0.7094824395684457
10
-3.6380874888087655
20
25.482336461369023
10
-10.445792144174476
20
16.94832559376588
42
0.62839304406632179
0
CIRCLE
5
108
100
AcDbEntity
8
0
100
AcDbCircle
10
-14.249999999999991
20
-22.5
30
0
40
1.5999999999999992
210
0
220
-0
230
1
0
CIRCLE
5
109
100
AcDbEntity
8
0
100
AcDbCircle
10
-14.250000000000004
20
-38.249999999999993
30
0
40
1.6000000000000014
210
0
220
-0
230
1
0
CIRCLE
5
110
100
AcDbEntity
8
0
100
AcDbCircle
10
14.250000000000004
20
43.249999999999993
30
0
40
1.6000000000000014
210
0
220
-0
230
1
0
CIRCLE
5
111
100
AcDbEntity
8
0
100
AcDbCircle
10
14.250000000000009
20
27.5
30
0
40
1.6000000000000014
210
0
220
-0
230
1
0
CIRCLE
5
112
100
AcDbEntity
8
0
100
AcDbCircle
10
14.250000000000009
20
-22.5
30
0
40
1.6000000000000014
210
0
220
-0
230
1
0
CIRCLE
5
113
100
AcDbEntity
8
0
100
AcDbCircle
10
-14.250000000000004
20
43.249999999999993
30
0
40
1.6000000000000014
210
0
220
-0
230
1
0
CIRCLE
5
114
100
AcDbEntity
8
0
100
AcDbCircle
10
-14.249999999999991
20
27.5
30
0
40
1.5999999999999992
210
0
220
-0
230
1
0
CIRCLE
5
115
100
AcDbEntity
8
0
100
AcDbCircle
10
14.250000000000004
20
-38.25
30
0
40
1.6000000000000014
210
0
220
-0
230
1
0
LWPOLYLINE
5
116
100
AcDbEntity
8
0
100
AcDbPolyline
90
20
70
1
43
0.0
10
-7.7499999999999991
20
44.5
10
-7.7499999999999991
20
37.5
42
0.41421356237309553
10
-2.7499999999999987
20
32.5
10
2.7499999999999996
20
32.5
42
0.41421356237309553
10
7.7499999999999991
20
37.5
10
7.7500000000000018
20
44.5
42
-0.41421356237309398
10
10.749999999999996
20
47.499999999999993
10
14.250000000000021
20
47.500000000000014
42
-0.41421356237309381
10
18.500000000000021
20
43.249999999999993
10
18.5
20
-38.249999999999993
42
-0.4142135623730957
10
14.250000000000004
20
-42.5
10
12.609519035906411
20
-42.5
42
-0.11732038147575233
10
8.1061194233650564
20
-41.42857166235239
42
0.23791544829017897
10
-8.1061194233650298
20
-41.428571662352397
42
-0.11732038147575199
10
-12.609519035906402
20
-42.5
10
-14.250000000000004
20
-42.499999999999993
42
-0.41421356237309503
10
-18.500000000000004
20
-38.249999999999993
10
-18.500000000000011
20
43.249999999999993
42
-0.41421356237309503
10
-14.250000000000004
20
47.5
10
-10.75
20
47.499999999999993
42
-0.4142135623730942
0
ENDSEC
0
SECTION
2
OBJECTS
0
DICTIONARY
5
C
100
AcDbDictionary
3
ACAD_GROUP
350
D
3
ACAD_MLINESTYLE
350
17
0
DICTIONARY
5
D
100
AcDbDictionary
0
DICTIONARY
5
1A
330
C
100
AcDbDictionary
0
DICTIONARY
5
17
100
AcDbDictionary
0
ENDSEC
0
EOF
